<svg width="19" height="18" viewBox="0 0 19 18" fill="none" xmlns="http://www.w3.org/2000/svg">
<g id="Interface/Interface 72 - 24px">
<path id="Icon" fill-rule="evenodd" clip-rule="evenodd" d="M7.91675 14.25C7.91675 15.0784 8.62563 15.75 9.50008 15.75C10.3745 15.75 11.0834 15.0784 11.0834 14.25C11.0834 13.4216 10.3745 12.75 9.50008 12.75C8.62563 12.75 7.91675 13.4216 7.91675 14.25ZM7.91675 9C7.91675 9.82843 8.62563 10.5 9.50008 10.5C10.3745 10.5 11.0834 9.82843 11.0834 9C11.0834 8.17157 10.3745 7.5 9.50008 7.5C8.62563 7.5 7.91675 8.17157 7.91675 9ZM9.50008 5.25C8.62563 5.25 7.91675 4.57843 7.91675 3.75C7.91675 2.92157 8.62563 2.25 9.50008 2.25C10.3745 2.25 11.0834 2.92157 11.0834 3.75C11.0834 4.57843 10.3745 5.25 9.50008 5.25Z" fill="#484860"/>
</g>
</svg>
