<svg width="27" height="27" viewBox="0 0 27 27" fill="none" xmlns="http://www.w3.org/2000/svg">
<g id="Interface/Interface 21 - 24px">
<path id="Icon" fill-rule="evenodd" clip-rule="evenodd" d="M14.9313 4.68645C14.9313 4.01844 14.3897 3.47691 13.7217 3.47691C13.0537 3.47691 12.5122 4.01844 12.5122 4.68645L12.5122 11.9437L5.08307 11.9436C4.41506 11.9436 3.87354 12.4852 3.87354 13.1532C3.87354 13.8212 4.41506 14.3627 5.08307 14.3627H12.5122L12.5122 21.7918C12.5122 22.4598 13.0537 23.0014 13.7217 23.0014C14.3897 23.0014 14.9313 22.4598 14.9313 21.7918L14.9313 14.3627H22.1885C22.8565 14.3627 23.398 13.8212 23.398 13.1532C23.398 12.4852 22.8565 11.9437 22.1885 11.9437L14.9313 11.9437L14.9313 4.68645Z" fill="#EEB702"/>
</g>
</svg>
