<svg width="33" height="33" viewBox="0 0 33 33" fill="none" xmlns="http://www.w3.org/2000/svg">
<g id="fa6-solid:face-angry" clip-path="url(#clip0_71_1646)">
<path id="Vector" d="M32.5533 16.4788C32.5533 25.4074 25.317 32.6436 16.3884 32.6436C7.45991 32.6436 0.223633 25.4074 0.223633 16.4788C0.223633 7.55029 7.45991 0.314011 16.3884 0.314011C25.317 0.314011 32.5533 7.55029 32.5533 16.4788ZM21.6862 23.8856C20.6696 22.7553 18.8953 21.5303 16.3884 21.5303C13.8816 21.5303 12.1073 22.7553 11.0907 23.8856C10.7181 24.3023 10.7497 24.8833 11.1665 25.3126C11.5832 25.6852 12.1641 25.6536 12.5935 25.2369C13.3323 24.416 14.5888 23.5509 16.3316 23.5509C18.188 23.5509 19.4446 24.416 20.1834 25.2369C20.5559 25.6536 21.1937 25.6852 21.6104 25.3126C22.0272 24.8833 22.0588 24.3023 21.6862 23.8856ZM11.3622 17.4891C12.4735 17.4891 13.3828 16.5862 13.3828 15.4685C13.3828 15.3738 13.3765 15.2791 13.3639 15.1907L14.0458 15.418C14.5762 15.538 15.1508 15.3043 15.3276 14.7803C15.4476 14.2498 15.214 13.6752 14.6899 13.4984L8.62807 11.4778C8.09766 11.301 7.52306 11.5915 7.34625 12.1156C7.16945 12.646 7.45991 13.2206 7.98401 13.3974L9.92883 14.0415C9.5626 14.4077 9.3416 14.9129 9.3416 15.4685C9.3416 16.5862 10.2446 17.4891 11.3622 17.4891ZM22.8859 14.0288L24.7929 13.3974C25.317 13.2206 25.5506 12.646 25.4306 12.1156C25.2538 11.5915 24.6792 11.301 24.1488 11.4778L18.087 13.4984C17.5629 13.6752 17.2725 14.2498 17.4493 14.7803C17.6261 15.3043 18.2007 15.538 18.7311 15.418L19.4635 15.1717C19.4509 15.2665 19.4446 15.3675 19.4446 15.4685C19.4446 16.5862 20.3476 17.4891 21.4652 17.4891C22.5765 17.4891 23.4858 16.5862 23.4858 15.4685C23.4858 14.9065 23.2522 14.3951 22.8859 14.0288Z" fill="#E0E0E0"/>
</g>
<defs>
<clipPath id="clip0_71_1646">
<rect width="32.3296" height="32.3296" fill="white" transform="translate(0.223633 0.314011)"/>
</clipPath>
</defs>
</svg>
