<svg width="20" height="20" viewBox="0 0 20 20" fill="none" xmlns="http://www.w3.org/2000/svg">
<g id="Layer_1" clip-path="url(#clip0_227_357)">
<g id="Group 36698">
<path id="Vector" d="M9.57671 19.6876C7.13471 19.6876 4.69273 19.6876 2.25077 19.6876C1.0104 19.6876 0.144576 18.825 0.144464 17.5887C0.143903 13.1467 0.143903 8.70476 0.144464 4.2628C0.144464 3.0386 1.01225 2.17264 2.23712 2.17157C3.05124 2.1709 3.86535 2.16746 4.67907 2.175C4.82926 2.17641 4.87412 2.13287 4.86334 1.98666C4.85093 1.81918 4.85773 1.65001 4.86132 1.48164C4.86549 1.30495 4.93877 1.13697 5.06536 1.0139C5.19196 0.89083 5.36175 0.822518 5.53814 0.823684C5.71453 0.82485 5.88339 0.895399 6.00836 1.02013C6.13333 1.14487 6.20439 1.3138 6.20623 1.49053C6.20674 1.51157 6.205 1.53272 6.20663 1.55365C6.22195 1.75409 6.1178 2.02109 6.24935 2.13641C6.36226 2.23542 6.62255 2.17067 6.81772 2.17078C8.7895 2.17185 10.7613 2.16887 12.7332 2.17579C12.9118 2.17641 12.9663 2.12747 12.9485 1.95431C12.9393 1.80724 12.9384 1.65976 12.9458 1.51258C12.9503 1.11552 13.2312 0.826248 13.6125 0.82411C14.0031 0.822028 14.2873 1.11406 14.2911 1.52276C14.2925 1.6701 14.3017 1.81839 14.2886 1.9646C14.2744 2.12572 14.3223 2.17782 14.4929 2.17579C15.307 2.16612 16.1211 2.17056 16.9348 2.17169C18.1325 2.17332 19.0069 3.04451 19.0072 4.24052C19.0082 8.70356 19.0082 13.1666 19.0072 17.6296C19.0069 18.8113 18.1288 19.6866 16.9448 19.6874C14.4888 19.6887 12.0328 19.6888 9.57671 19.6876ZM9.57458 7.55984C6.95748 7.55984 4.34036 7.55823 1.72323 7.555C1.5261 7.55444 1.48578 7.61126 1.48612 7.79792C1.49174 11.0396 1.49312 14.2812 1.49027 17.5229C1.49027 18.0874 1.74647 18.3416 2.31534 18.3416C7.15667 18.3416 11.998 18.3416 16.8393 18.3416C17.4077 18.3416 17.6615 18.0884 17.6616 17.5202C17.6618 14.2785 17.6633 11.0369 17.6662 7.79522C17.6665 7.60299 17.6175 7.55483 17.4259 7.55534C14.8088 7.56202 12.1917 7.56351 9.57458 7.55984ZM9.55476 6.21384C12.1857 6.21384 14.8166 6.21523 17.4476 6.218C17.6235 6.21845 17.6696 6.17384 17.6661 5.9986C17.6544 5.42355 17.6634 4.84804 17.6611 4.27276C17.6592 3.79458 17.3808 3.51757 16.9 3.51751C12.0169 3.5168 7.13389 3.5168 2.25083 3.51751C1.76668 3.51751 1.49247 3.79109 1.49067 4.27248C1.48859 4.84067 1.49853 5.40931 1.4855 5.97705C1.48112 6.16833 1.53177 6.21851 1.72508 6.218C4.33495 6.21144 6.94485 6.21005 9.55476 6.21384Z" fill="#EEB702"/>
</g>
<path id="Vector_2" d="M8.23428 14.9709C8.14295 14.9751 8.0518 14.9594 7.9671 14.9249C7.8824 14.8905 7.80616 14.838 7.74362 14.7712C7.07291 14.1028 6.40067 13.4359 5.73585 12.7617C5.67272 12.6992 5.62257 12.6247 5.5883 12.5427C5.55402 12.4606 5.53629 12.3726 5.53613 12.2836C5.53598 12.1946 5.55339 12.1065 5.58738 12.0243C5.62136 11.9422 5.67124 11.8675 5.73414 11.8048C5.79705 11.742 5.87173 11.6923 5.95389 11.6586C6.03604 11.6249 6.12405 11.6078 6.21283 11.6083C6.30161 11.6088 6.38941 11.6269 6.47117 11.6616C6.55293 11.6963 6.62703 11.7468 6.6892 11.8103C7.17105 12.2805 7.64701 12.7567 8.1171 13.2389C8.22939 13.354 8.29345 13.3583 8.41675 13.2518C9.77024 12.0833 11.1268 10.9184 12.4866 9.75705C12.7168 9.55919 12.9718 9.5071 13.2469 9.63069C13.3497 9.67684 13.4392 9.74842 13.5068 9.83872C13.5744 9.92901 13.6181 10.035 13.6336 10.1469C13.649 10.2587 13.6359 10.3726 13.5954 10.478C13.5549 10.5833 13.4883 10.6766 13.4019 10.7491C12.8678 11.2247 12.3197 11.6846 11.7768 12.1503C10.7976 12.9904 9.81788 13.8301 8.83784 14.6694C8.66216 14.8199 8.49187 14.9833 8.23428 14.9709Z" fill="#EEB702"/>
</g>
<defs>
<clipPath id="clip0_227_357">
<rect width="18.864" height="18.864" fill="white" transform="translate(0.144043 0.824005)"/>
</clipPath>
</defs>
</svg>
