<svg width="24" height="24" viewBox="0 0 24 24" fill="none" xmlns="http://www.w3.org/2000/svg">
<path id="Button - Search" fill-rule="evenodd" clip-rule="evenodd" d="M8.99936 2.9986C7.81298 2.99907 6.65338 3.35121 5.66716 4.0105C4.68093 4.6698 3.91237 5.60664 3.45864 6.70259C3.0049 7.79855 2.88637 9.0044 3.11802 10.1677C3.34967 11.331 3.9211 12.3995 4.76008 13.2381C5.59905 14.0768 6.6679 14.6479 7.83148 14.8793C8.99506 15.1106 10.2011 14.9919 11.2972 14.538C12.3933 14.0842 13.3302 13.3156 13.9894 12.3294C14.6487 11.3433 15.0007 10.1839 15.0009 8.99772C15.001 8.20976 14.8459 7.4295 14.5443 6.7015C14.2428 5.97351 13.8007 5.31206 13.2434 4.75494C12.686 4.19782 12.0243 3.75596 11.2961 3.4546C10.5679 3.15324 9.78748 2.99829 8.99936 2.9986ZM5.80055e-07 8.99772C-3.44774e-05 7.58176 0.33419 6.18577 0.975495 4.92329C1.6168 3.66081 2.54708 2.56747 3.69068 1.7322C4.83428 0.896929 6.15891 0.3433 7.55686 0.116337C8.95481 -0.110627 10.3866 -0.00451661 11.7358 0.426038C13.085 0.856592 14.3135 1.59943 15.3214 2.59416C16.3294 3.58888 17.0882 4.80739 17.5363 6.15061C17.9845 7.49383 18.1092 8.92383 17.9003 10.3243C17.6915 11.7248 17.155 13.0562 16.3344 14.2103L23.5597 21.4341C23.6993 21.5737 23.81 21.7394 23.8856 21.9217C23.9611 22.1041 24 22.2995 24 22.4969C24 22.6943 23.9611 22.8898 23.8856 23.0721C23.81 23.2545 23.6993 23.4202 23.5597 23.5598C23.4201 23.6993 23.2543 23.81 23.0719 23.8856C22.8895 23.9611 22.694 24 22.4966 24C22.2992 24 22.1037 23.9611 21.9213 23.8856C21.7389 23.81 21.5732 23.6993 21.4336 23.5598L14.2095 16.3372C12.8628 17.2932 11.279 17.8603 9.63139 17.9762C7.98383 18.0922 6.33612 17.7526 4.86873 16.9947C3.40135 16.2368 2.17089 15.0897 1.31212 13.6792C0.453354 12.2686 -0.000592324 10.649 5.80055e-07 8.99772Z" fill="url(#paint0_linear_36_714)"/>
<defs>
<linearGradient id="paint0_linear_36_714" x1="12" y1="0" x2="12" y2="24" gradientUnits="userSpaceOnUse">
<stop stop-color="#233E8B"/>
<stop offset="1" stop-color="#242A6B"/>
</linearGradient>
</defs>
</svg>
