<svg width="17" height="17" viewBox="0 0 17 17" fill="none" xmlns="http://www.w3.org/2000/svg">
<g id="ic:outline-date-range">
<path id="Vector" d="M4.95833 7.83199H6.375V9.23865H4.95833V7.83199ZM14.875 4.31535V14.1619C14.875 14.9356 14.2375 15.5686 13.4583 15.5686H3.54167C3.16594 15.5686 2.80561 15.4204 2.53993 15.1566C2.27426 14.8928 2.125 14.535 2.125 14.1619L2.13208 4.31535C2.13208 3.54169 2.75542 2.9087 3.54167 2.9087H4.25V1.50204H5.66667V2.9087H11.3333V1.50204H12.75V2.9087H13.4583C14.2375 2.9087 14.875 3.54169 14.875 4.31535ZM3.54167 5.72201H13.4583V4.31535H3.54167V5.72201ZM13.4583 14.1619V7.12866H3.54167V14.1619H13.4583ZM10.625 9.23865H12.0417V7.83199H10.625V9.23865ZM7.79167 9.23865H9.20833V7.83199H7.79167V9.23865Z" fill="url(#paint0_linear_28_264)"/>
</g>
<defs>
<linearGradient id="paint0_linear_28_264" x1="8.5" y1="1.50204" x2="8.5" y2="15.5686" gradientUnits="userSpaceOnUse">
<stop stop-color="#EF4165"/>
<stop offset="1" stop-color="#A51656" stop-opacity="0.75"/>
</linearGradient>
</defs>
</svg>
