<svg width="34" height="34" viewBox="0 0 34 34" fill="none" xmlns="http://www.w3.org/2000/svg">
<g id="Calm - Icon">
<path id="Vector" d="M33.9501 16.3383C33.9309 16.166 33.9118 15.9841 33.883 15.8118C33.8352 15.4289 33.7969 15.0364 33.7394 14.6439C33.347 11.8678 32.3227 9.32147 30.7145 7.09102C29.336 5.16691 27.5842 3.60656 25.5261 2.45784C23.6594 1.41441 21.6013 0.763463 19.3995 0.514572C18.7677 0.43799 18.1168 0.399704 17.485 0.399704C16.365 0.399704 15.2545 0.514574 14.1441 0.744319V0.734749L13.9814 0.782613C13.7229 0.840049 13.474 0.897476 13.2156 0.964485C12.8901 1.05064 12.555 1.15595 12.2296 1.26125C11.9328 1.3474 11.6839 1.42398 11.4446 1.51014C8.85039 2.43869 6.59123 3.99904 4.72455 6.1529C2.85787 8.29719 1.59427 10.7765 0.952899 13.5047C0.502981 15.4289 0.388107 17.353 0.598707 19.2292C0.818879 21.1438 1.30708 22.9339 2.05376 24.5421C2.86744 26.2843 3.97787 27.8351 5.34677 29.1466C6.87841 30.6112 8.67808 31.7503 10.8511 32.631C11.7988 33.0139 12.7273 33.1958 13.5889 33.3298C14.0388 33.4256 14.5079 33.5022 14.9674 33.5596C15.1301 33.5787 15.2833 33.5979 15.446 33.617C15.9438 33.7032 16.5756 33.7415 17.3318 33.7415C17.6381 33.7415 17.9349 33.7319 18.2125 33.7223L17.9828 33.8181L18.9783 33.684C19.3995 33.6553 19.7346 33.6075 19.9069 33.5787L19.9547 33.5692C19.9835 33.5596 20.0026 33.55 20.0218 33.5404C21.2854 33.3586 22.5011 33.0618 23.6307 32.6406C25.1336 32.0758 26.5312 31.3196 27.7661 30.3719C29.2403 29.2423 30.4943 27.8734 31.4707 26.2843C32.4471 24.7144 33.1172 23.0488 33.4714 21.3161C33.5863 20.7417 33.6725 20.1578 33.749 19.5834C33.7873 19.3154 33.8256 19.0569 33.8639 18.7889C33.8735 18.741 33.883 18.6836 33.8926 18.6357L33.9118 18.5496L33.9213 16.3957L33.9501 16.3383ZM20.8163 5.51153C22.0607 5.51153 23.0946 6.55496 23.085 7.78027C23.0755 9.00557 22.0416 10.049 20.8163 10.049C19.591 10.049 18.5571 9.00557 18.5571 7.78027C18.5667 6.55496 19.6005 5.51153 20.8163 5.51153ZM23.3339 30.1613C22.4724 31.4727 21.3236 32.43 19.9356 33.0139C19.6293 33.0522 19.3134 33.0905 18.9975 33.1192C17.887 33.215 16.7383 33.2054 15.5609 33.081C15.1492 33.0044 14.7472 32.9469 14.3547 32.8895C14.1441 32.8608 13.9335 32.8321 13.7229 32.7938C12.5167 32.5449 11.3489 32.162 10.248 31.6642C9.04185 31.1186 7.92184 30.4293 6.9167 29.6252C5.99772 28.8881 5.17447 28.0649 4.46609 27.165C3.61412 26.0833 2.90573 24.8963 2.36966 23.6231C1.87188 22.4265 1.53684 21.2874 1.34538 20.1195C1.27837 19.6792 1.22094 19.2197 1.1635 18.7697C1.13478 18.5687 1.11563 18.3677 1.08691 18.1667V16.2713C1.08691 16.2617 1.08691 16.2617 1.09648 16.2521C1.10606 16.2043 1.12521 16.1468 1.12521 16.0798C1.23051 14.7779 1.47939 13.5048 1.8623 12.3177C2.36008 10.7765 3.07804 9.32147 4.01616 7.99086C5.14574 6.38265 6.55294 4.98504 8.18988 3.84588C9.51091 2.9269 10.9277 2.21851 12.4114 1.72073C12.6603 1.64415 12.9188 1.57715 13.1773 1.51014C13.3017 1.47185 13.4357 1.44313 13.5602 1.40484C13.5219 1.68245 13.4932 1.95048 13.4549 2.21852C13.34 3.08006 13.2347 3.90331 13.1485 4.72657C12.9858 6.1529 12.8518 7.85685 13.0528 9.59908C13.2251 11.1116 13.6367 12.3656 14.2973 13.4473C14.9291 14.4812 15.714 15.3619 16.6426 16.0511C17.5711 16.7499 18.538 17.4296 19.524 18.0518C19.8399 18.2528 20.1749 18.3964 20.51 18.54C20.7397 18.6357 20.9599 18.7315 21.1705 18.8463C22.549 19.5739 23.5445 20.445 24.2146 21.5171C24.8177 22.484 25.1049 23.5848 25.0666 24.7814C24.9804 26.7342 24.4061 28.5339 23.3339 30.1613Z" fill="#E0E0E0"/>
<path id="Vector_2" d="M13.897 21.449H13.8587C12.3271 21.449 11.1305 22.6169 11.0827 24.1772C11.0444 25.6897 12.2697 26.9533 13.8205 26.9916C13.8396 26.9916 13.8683 26.9916 13.897 26.9916C15.3808 26.9916 16.6061 25.7567 16.6348 24.2347C16.6444 23.5072 16.3668 22.8083 15.8499 22.2818C15.3329 21.7553 14.6437 21.4586 13.897 21.449Z" fill="white"/>
</g>
</svg>
