<svg width="25" height="25" viewBox="0 0 25 25" fill="none" xmlns="http://www.w3.org/2000/svg">
<g id="Icon / Chat">
<path id="Icon" fill-rule="evenodd" clip-rule="evenodd" d="M2.08325 11.1494V10.8005C2.08325 6.56143 5.5033 3.125 9.72214 3.125H15.2777C19.4965 3.125 22.9166 6.56143 22.9166 10.8005C22.9166 15.0194 19.529 18.4433 15.3378 18.4757L11.8855 21.3665C10.4749 22.5476 8.33325 21.5397 8.33325 19.6947V18.4018C4.79961 17.8939 2.08325 14.8404 2.08325 11.1494ZM10.5517 19.7583L14.2591 16.6541C14.4685 16.4787 14.7326 16.3827 15.0053 16.3827H15.2777C18.3459 16.3827 20.8333 13.8834 20.8333 10.8005C20.8333 7.71754 18.3459 5.21831 15.2777 5.21831H9.72214C6.65389 5.21831 4.16659 7.71754 4.16659 10.8005V11.1494C4.16659 14.0396 6.49844 16.3827 9.37492 16.3827C9.8622 16.3827 10.2713 16.7188 10.3851 17.173C10.4057 17.255 10.4166 17.3409 10.4166 17.4293V19.6947C10.4166 19.7649 10.4981 19.8033 10.5517 19.7583Z" fill="#1D1D28"/>
</g>
</svg>
