<svg width="22" height="21" viewBox="0 0 22 21" fill="none" xmlns="http://www.w3.org/2000/svg">
<g id="Comment Icon">
<path id="Path 7" d="M11 20.7054C10.9567 20.7062 10.9135 20.7036 10.8706 20.6977C10.6529 20.6646 10.4554 20.5516 10.3167 20.3806L6.89774 16.4983H0.891868C0.649995 16.4926 0.420286 16.3911 0.253133 16.2162C0.0859795 16.0413 -0.00496837 15.8072 0.000240855 15.5653V0.934333C-0.00531614 0.692225 0.0854768 0.457815 0.252667 0.282617C0.419857 0.107419 0.649766 0.00576755 0.891868 0H21.1081C21.3502 0.00576755 21.5801 0.107419 21.7473 0.282617C21.9145 0.457815 22.0053 0.692225 21.9998 0.934333V15.5666C22.0053 15.8087 21.9145 16.0431 21.7473 16.2183C21.5801 16.3935 21.3502 16.4952 21.1081 16.5009H15.0958L11.6561 20.4052C11.5743 20.499 11.4735 20.5742 11.3604 20.626C11.2473 20.6778 11.1244 20.7048 11 20.7054ZM1.7835 14.631H7.29502C7.41942 14.6316 7.54225 14.6588 7.65536 14.7105C7.76848 14.7623 7.8693 14.8375 7.95113 14.9312L11 18.3955L14.0489 14.9325C14.1307 14.8388 14.2315 14.7636 14.3446 14.7118C14.4578 14.6601 14.5806 14.6329 14.705 14.6323H20.2165V1.86737H1.7835V14.631Z" fill="url(#paint0_linear_36_782)"/>
<path id="Ellipse 2" d="M7.18893 9.31487C7.72353 9.31487 8.1569 8.88207 8.1569 8.34818C8.1569 7.8143 7.72353 7.3815 7.18893 7.3815C6.65433 7.3815 6.22095 7.8143 6.22095 8.34818C6.22095 8.88207 6.65433 9.31487 7.18893 9.31487Z" fill="url(#paint1_linear_36_782)"/>
<path id="Ellipse 3" d="M10.9997 9.31487C11.5343 9.31487 11.9677 8.88207 11.9677 8.34818C11.9677 7.8143 11.5343 7.3815 10.9997 7.3815C10.4651 7.3815 10.0317 7.8143 10.0317 8.34818C10.0317 8.88207 10.4651 9.31487 10.9997 9.31487Z" fill="url(#paint2_linear_36_782)"/>
<path id="Ellipse 4" d="M14.81 9.31487C15.3446 9.31487 15.778 8.88207 15.778 8.34818C15.778 7.8143 15.3446 7.3815 14.81 7.3815C14.2754 7.3815 13.842 7.8143 13.842 8.34818C13.842 8.88207 14.2754 9.31487 14.81 9.31487Z" fill="url(#paint3_linear_36_782)"/>
</g>
<defs>
<linearGradient id="paint0_linear_36_782" x1="11" y1="0" x2="11" y2="20.7055" gradientUnits="userSpaceOnUse">
<stop stop-color="#233E8B"/>
<stop offset="1" stop-color="#242A6B"/>
</linearGradient>
<linearGradient id="paint1_linear_36_782" x1="7.18893" y1="7.3815" x2="7.18893" y2="9.31487" gradientUnits="userSpaceOnUse">
<stop stop-color="#233E8B"/>
<stop offset="1" stop-color="#242A6B"/>
</linearGradient>
<linearGradient id="paint2_linear_36_782" x1="10.9997" y1="7.3815" x2="10.9997" y2="9.31487" gradientUnits="userSpaceOnUse">
<stop stop-color="#233E8B"/>
<stop offset="1" stop-color="#242A6B"/>
</linearGradient>
<linearGradient id="paint3_linear_36_782" x1="14.81" y1="7.3815" x2="14.81" y2="9.31487" gradientUnits="userSpaceOnUse">
<stop stop-color="#233E8B"/>
<stop offset="1" stop-color="#242A6B"/>
</linearGradient>
</defs>
</svg>
