<svg width="17" height="16" viewBox="0 0 17 16" fill="none" xmlns="http://www.w3.org/2000/svg">
<g id="copy-05" clip-path="url(#clip0_23_894)">
<path id="Icon" d="M5.7721 10.7018V12.5377C5.7721 13.2722 5.7721 13.6394 5.91504 13.9199C6.04076 14.1667 6.24138 14.3673 6.48814 14.493C6.76866 14.636 7.13589 14.636 7.87035 14.636H12.8537C13.5881 14.636 13.9554 14.636 14.2359 14.493C14.4826 14.3673 14.6833 14.1667 14.809 13.9199C14.9519 13.6394 14.9519 13.2722 14.9519 12.5377V7.55438C14.9519 6.81993 14.9519 6.4527 14.809 6.17218C14.6833 5.92542 14.4826 5.7248 14.2359 5.59907C13.9554 5.45614 13.5881 5.45614 12.8537 5.45614H11.0177M3.93614 10.7018H8.91947C9.65392 10.7018 10.0212 10.7018 10.3017 10.5588C10.5484 10.4331 10.7491 10.2325 10.8748 9.98571C11.0177 9.70519 11.0177 9.33796 11.0177 8.60351V3.62017C11.0177 2.88572 11.0177 2.51849 10.8748 2.23797C10.7491 1.99121 10.5484 1.79059 10.3017 1.66486C10.0212 1.52193 9.65392 1.52193 8.91947 1.52193H3.93614C3.20168 1.52193 2.83445 1.52193 2.55393 1.66486C2.30717 1.79059 2.10655 1.99121 1.98083 2.23797C1.83789 2.51849 1.83789 2.88572 1.83789 3.62017V8.60351C1.83789 9.33796 1.83789 9.70519 1.98083 9.98571C2.10655 10.2325 2.30717 10.4331 2.55393 10.5588C2.83445 10.7018 3.20168 10.7018 3.93614 10.7018Z" stroke="#EEB702" stroke-width="1.81579" stroke-linecap="round" stroke-linejoin="round"/>
</g>
<defs>
<clipPath id="clip0_23_894">
<rect width="15.7368" height="15.7368" fill="white" transform="translate(0.526367 0.210526)"/>
</clipPath>
</defs>
</svg>
