<svg width="100" height="100" viewBox="0 0 100 100" fill="none" xmlns="http://www.w3.org/2000/svg">
<g id="Delete">
<rect x="0.865234" width="99.1351" height="99.1351" fill="#EEB702"/>
<g id="Icon">
<path d="M45.7097 33.3504C45.7097 32.6046 46.2946 32 47.0161 32H53.9839C54.7054 32 55.2903 32.6046 55.2903 33.3504V34.7009H62.6935C63.4151 34.7009 64 35.3055 64 36.0513C64 36.7971 63.4151 37.4017 62.6935 37.4017H38.3065C37.5849 37.4017 37 36.7971 37 36.0513C37 35.3055 37.5849 34.7009 38.3065 34.7009H45.7097V33.3504Z" fill="white"/>
<path fill-rule="evenodd" clip-rule="evenodd" d="M40.4663 42.2539C40.5153 41.798 40.8881 41.453 41.3319 41.453H59.6681C60.1119 41.453 60.4847 41.798 60.5337 42.2539L60.8824 45.4973C61.5108 51.3438 61.5108 57.2442 60.8824 63.0906L60.848 63.4099C60.6192 65.5392 59.0226 67.2371 56.97 67.5341C52.6776 68.1553 48.3224 68.1553 44.03 67.5341C41.9774 67.2371 40.3808 65.5392 40.1519 63.4099L40.1176 63.0906C39.4892 57.2442 39.4892 51.3438 40.1176 45.4973L40.4663 42.2539ZM48.3226 48.4753C48.3226 47.7294 47.7377 47.1248 47.0161 47.1248C46.2946 47.1248 45.7097 47.7294 45.7097 48.4753L45.7097 61.0793C45.7097 61.8251 46.2946 62.4297 47.0161 62.4297C47.7377 62.4297 48.3226 61.8251 48.3226 61.0793L48.3226 48.4753ZM55.2903 48.4753C55.2903 47.7294 54.7054 47.1248 53.9839 47.1248C53.2623 47.1248 52.6774 47.7294 52.6774 48.4753V61.0793C52.6774 61.8251 53.2623 62.4297 53.9839 62.4297C54.7054 62.4297 55.2903 61.8251 55.2903 61.0793V48.4753Z" fill="white"/>
</g>
<rect x="1.21929" y="0.354054" width="98.427" height="98.427" stroke="black" stroke-opacity="0.05" stroke-width="0.708108"/>
</g>
</svg>
