<svg width="85" height="75" viewBox="0 0 85 75" fill="none" xmlns="http://www.w3.org/2000/svg">
<g id="OBJECTS" clip-path="url(#clip0_71_1685)">
<path id="Vector" d="M79.1476 39.0497C79.1476 39.0497 81.4929 41.4736 81.5045 42.0792C81.5292 43.4544 79.6941 44.0391 79.6941 44.0391C79.6941 44.0391 81.9109 45.3467 81.9109 46.6419C81.9109 47.5898 80.6313 49.2636 80.3514 50.0271C80.0716 50.7906 82.6183 53.4353 81.2009 55.3693C79.5148 57.6688 71.8593 57.0323 63.3816 55.471C63.6476 61.7683 64.81 68.0482 67.6224 73.8833L30.7534 73.8865C34.7805 64.3921 35.4231 52.2526 33.4868 45.8548C28.6921 41.2344 20.8419 32.1982 22.1633 23.5955C24.4857 8.47687 37.4464 2.09997 51.414 2.09997C66.7119 2.09997 73.7259 9.28698 76.5694 14.7824C78.1972 18.0002 78.978 21.5169 78.8505 25.0552C78.7862 26.288 75.8983 28.4442 75.9847 28.836C76.0711 29.2278 83.7206 34.3457 84.694 35.6956C85.6675 37.0455 79.1476 39.0497 79.1476 39.0497Z" fill="#BDBDBD"/>
<path id="Vector_2" d="M42.7736 1.89664C51.1022 -0.0956593 59.9457 0.725654 67.656 4.20753C67.7944 4.26987 67.9165 4.0817 67.7777 4.01878C60.0107 0.50904 51.101 -0.320057 42.7097 1.68603C42.6788 1.69375 42.6527 1.71225 42.6369 1.73746C42.6212 1.76267 42.6171 1.79253 42.6256 1.82046C42.6342 1.84839 42.6546 1.8721 42.6824 1.88639C42.7102 1.90067 42.7428 1.90436 42.7736 1.89664Z" fill="#EFE6DB"/>
<path id="Vector_3" d="M22.3568 33.8511C24.6841 38.5821 27.8898 42.9158 31.8343 46.6634C31.9416 46.7654 32.1115 46.6107 32.0046 46.509C28.0755 42.774 24.8826 38.4552 22.565 33.7407C22.5007 33.6125 22.2938 33.7235 22.3568 33.8511Z" fill="#EFE6DB"/>
<path id="Vector_4" d="M56.2666 34.4677C62.9916 28.37 62.9916 18.4837 56.2666 12.386C49.5417 6.28835 38.6383 6.28835 31.9133 12.386C25.1883 18.4837 25.1883 28.37 31.9133 34.4677C38.6383 40.5654 49.5416 40.5654 56.2666 34.4677Z" fill="white"/>
<path id="Vector_5" d="M56.2657 21.3944C56.2214 21.8796 56.1201 22.3592 55.9637 22.825C55.9163 22.9706 55.864 23.1163 55.8066 23.2619C53.9982 27.8735 47.5159 32.6503 44.7835 34.4596C44.4376 34.6885 44.0205 34.8118 43.5924 34.8118C43.1642 34.8118 42.7471 34.6885 42.4013 34.4596C39.6679 32.6497 33.1856 27.873 31.3753 23.2608C31.3181 23.1155 31.266 22.9699 31.2191 22.8238C31.0625 22.3581 30.9613 21.8785 30.9171 21.3932C30.378 15.0347 39.0774 11.6197 43.5922 18.4053C48.1064 11.6215 56.8057 15.0358 56.2657 21.3944Z" fill="#EEB702"/>
<path id="Vector_6" d="M55.9632 22.825C55.9159 22.9706 55.8635 23.1163 55.8061 23.2619H51.7954C51.7417 23.2619 51.6893 23.2473 51.645 23.2199C51.6006 23.1925 51.5664 23.1537 51.5467 23.1084L51.4323 22.8462L50.8357 21.4771L50.3596 22.5718C50.3416 22.6126 50.3106 22.6475 50.2705 22.6721C50.2304 22.6967 50.1831 22.7099 50.1347 22.7099H48.7366C48.6885 22.7098 48.6416 22.6965 48.602 22.6719C48.5623 22.6473 48.5318 22.6124 48.5142 22.5718L48.0699 21.5523L46.4118 25.3605C46.3939 25.4012 46.3628 25.436 46.3227 25.4605C46.2826 25.4849 46.2353 25.4979 46.187 25.4977C46.1387 25.4976 46.0915 25.4846 46.0515 25.4601C46.0114 25.4357 45.9803 25.401 45.9621 25.3605L45.1184 23.4192L42.6494 29.0906C42.6317 29.1315 42.6007 29.1666 42.5606 29.1912C42.5204 29.2159 42.473 29.2289 42.4246 29.2287C42.376 29.2292 42.3285 29.2162 42.2883 29.1915C42.2481 29.1669 42.2172 29.1316 42.1997 29.0906L39.5466 22.998H38.5362C38.4876 22.9981 38.4402 22.9849 38.4 22.9601C38.3599 22.9353 38.329 22.9001 38.3113 22.8591L37.7864 21.6539L37.1438 23.1247C37.1262 23.1657 37.0953 23.2009 37.0551 23.2255C37.015 23.2502 36.9675 23.2632 36.9189 23.2628H31.3732C31.316 23.1175 31.2639 22.9719 31.217 22.8259H36.7609L37.5641 20.979C37.5819 20.9381 37.6128 20.903 37.6529 20.8782C37.6931 20.8535 37.7404 20.8403 37.7889 20.8403C37.8375 20.8401 37.885 20.8532 37.9251 20.878C37.9653 20.9028 37.9962 20.938 38.0138 20.979L38.7033 22.5605H39.713C39.7614 22.5603 39.8088 22.5734 39.8489 22.598C39.889 22.6226 39.92 22.6575 39.9379 22.6983L42.4265 28.4151L44.8954 22.7437C44.9132 22.7028 44.9442 22.6678 44.9844 22.6431C45.0245 22.6185 45.0719 22.6054 45.1203 22.6056C45.1688 22.6055 45.2161 22.6186 45.2562 22.6433C45.2964 22.6679 45.3274 22.7029 45.3452 22.7437L46.1902 24.6855L47.847 20.8788C47.8648 20.838 47.8958 20.803 47.9359 20.7784C47.9761 20.7538 48.0234 20.7408 48.0718 20.741C48.1203 20.7406 48.1678 20.7536 48.2079 20.7782C48.2481 20.8028 48.279 20.8379 48.2967 20.8788L48.9071 22.2747H49.9763L50.6189 20.8033C50.6366 20.7624 50.6676 20.7274 50.7077 20.7027C50.7479 20.6781 50.7953 20.665 50.8438 20.6653C50.8922 20.665 50.9397 20.678 50.9798 20.7027C51.02 20.7273 51.0509 20.7624 51.0687 20.8033L51.9505 22.8259L55.9632 22.825Z" fill="white"/>
<path id="Vector_7" d="M30.4416 19.4074C30.4536 20.234 30.1029 21.031 29.4667 21.6232C28.8305 22.2153 27.961 22.554 27.0494 22.5648C26.1378 22.5756 25.2589 22.2576 24.6059 21.6807C23.9529 21.1039 23.5794 20.3155 23.5674 19.489C23.5556 18.6624 23.9063 17.8655 24.5425 17.2734C25.1787 16.6814 26.0482 16.3427 26.9597 16.3318C27.8712 16.3211 28.7501 16.6391 29.4031 17.2159C30.0561 17.7926 30.4296 18.5809 30.4416 19.4074Z" fill="black"/>
<path id="Vector_8" d="M27.0664 22.5433C27.0436 22.9715 27.0057 23.3817 26.9417 23.8457C26.6253 26.1353 25.6415 29.2019 22.7524 30.8078C21.0175 31.7723 18.9517 31.6436 16.6122 30.4256C15.4999 29.834 14.4798 29.1101 13.5791 28.2732C13.5679 28.2622 13.5543 28.2532 13.5392 28.2469C13.5241 28.2406 13.5078 28.2371 13.4912 28.2366C13.4746 28.236 13.4581 28.2384 13.4425 28.2436C13.4269 28.2489 13.4127 28.2568 13.4005 28.2671C13.3883 28.2773 13.3785 28.2896 13.3715 28.3033C13.3646 28.317 13.3607 28.3318 13.3601 28.3468C13.3594 28.3619 13.3621 28.3769 13.3679 28.391C13.3737 28.4051 13.3825 28.418 13.3938 28.4291C14.3105 29.2814 15.3488 30.0189 16.4812 30.6217C17.4166 31.1336 18.4534 31.4747 19.5332 31.6258C19.7776 31.6552 20.0238 31.6701 20.2702 31.6704C21.1929 31.6745 22.0984 31.4434 22.8831 31.0033C24.2412 30.2291 25.3206 29.1124 25.9892 27.7902C26.6211 26.5505 27.0273 25.2262 27.192 23.8687C27.2563 23.3965 27.2974 22.9365 27.3205 22.5013C27.233 22.4874 27.1429 22.5023 27.0664 22.5433Z" fill="black"/>
<path id="Vector_9" d="M29.6924 19.4165C29.6984 19.8258 29.6154 20.2322 29.4481 20.6124C29.2809 20.9927 29.0327 21.3393 28.7177 21.6326C28.4027 21.9258 28.027 22.1599 27.6122 22.3215C27.1974 22.4832 26.7515 22.5691 26.3001 22.5745C25.3886 22.5852 24.5097 22.2672 23.8567 21.6904C23.2038 21.1137 22.8302 20.3254 22.8182 19.4989C22.8121 19.0896 22.8951 18.6832 23.0623 18.3029C23.2295 17.9226 23.4777 17.576 23.7927 17.2827C24.1077 16.9894 24.4833 16.7553 24.8981 16.5936C25.3129 16.432 25.7587 16.346 26.2101 16.3406C27.1218 16.3298 28.0008 16.6478 28.6538 17.2246C29.3069 17.8014 29.6805 18.5899 29.6924 19.4165Z" fill="url(#paint0_linear_71_1685)"/>
<path id="Vector_10" d="M28.131 19.4482C28.131 19.845 27.9571 20.2256 27.6477 20.5062C27.3383 20.7869 26.9186 20.9445 26.4809 20.9446C26.2642 20.9446 26.0496 20.9059 25.8494 20.8307C25.6491 20.7555 25.4672 20.6453 25.3139 20.5063C25.1607 20.3674 25.0391 20.2024 24.9562 20.0209C24.8733 19.8393 24.8306 19.6447 24.8306 19.4482C24.8306 19.2517 24.8733 19.0571 24.9562 18.8756C25.0391 18.6941 25.1607 18.5291 25.314 18.3902C25.4672 18.2512 25.6492 18.141 25.8494 18.0659C26.0496 17.9907 26.2642 17.952 26.4809 17.9521C26.9186 17.9521 27.3382 18.1097 27.6477 18.3903C27.9571 18.6709 28.131 19.0514 28.131 19.4482Z" fill="url(#paint1_linear_71_1685)"/>
<path id="Vector_11" d="M26.4807 17.9521H25.8773V20.9446H26.4807V17.9521Z" fill="url(#paint2_linear_71_1685)"/>
<path id="Vector_12" d="M27.463 19.4482C27.463 19.6447 27.4204 19.8393 27.3375 20.0208C27.2546 20.2024 27.1331 20.3674 26.9798 20.5063C26.8266 20.6453 26.6447 20.7555 26.4445 20.8307C26.2443 20.9059 26.0297 20.9446 25.813 20.9446C25.5962 20.9446 25.3816 20.9059 25.1814 20.8307C24.9812 20.7555 24.7992 20.6453 24.646 20.5063C24.4927 20.3674 24.3712 20.2024 24.2882 20.0209C24.2053 19.8393 24.1626 19.6447 24.1626 19.4482C24.1626 19.2517 24.2053 19.0571 24.2882 18.8756C24.3712 18.6941 24.4927 18.5291 24.646 18.3902C24.7993 18.2512 24.9812 18.141 25.1814 18.0659C25.3816 17.9907 25.5962 17.952 25.813 17.9521C26.0297 17.952 26.2442 17.9907 26.4445 18.0659C26.6447 18.1411 26.8266 18.2513 26.9798 18.3902C27.133 18.5291 27.2546 18.6941 27.3375 18.8756C27.4204 19.0571 27.463 19.2517 27.463 19.4482Z" fill="white"/>
<path id="Vector_13" d="M11.2652 25.177L16.7701 25.5792C16.8443 25.5846 16.9183 25.5679 16.981 25.5317C17.0438 25.4955 17.0918 25.4417 17.1177 25.3785L19.8502 18.7103C19.8685 18.6655 19.8751 18.6175 19.8695 18.5699C19.864 18.5224 19.8463 18.4767 19.818 18.4364C19.7897 18.396 19.7515 18.3622 19.7063 18.3375C19.6612 18.3128 19.6103 18.298 19.5578 18.2941L14.0528 17.8918C13.9787 17.8864 13.9046 17.9031 13.8419 17.9393C13.7792 17.9755 13.7312 18.0293 13.7052 18.0925L10.9744 24.7607C10.9561 24.8054 10.9494 24.8533 10.9549 24.9008C10.9604 24.9482 10.9779 24.9938 11.0061 25.0341C11.0342 25.0744 11.0722 25.1083 11.1172 25.133C11.1621 25.1578 11.2128 25.1728 11.2652 25.177Z" fill="black"/>
<path id="Vector_14" d="M18.7403 21.5089C18.7403 21.5089 17.5134 21.4462 17.3193 21.674C17.1253 21.9018 18.3541 22.125 18.3541 22.125C18.3541 22.125 17.6284 22.1049 17.4443 22.2607C17.2602 22.4166 18.161 22.6686 18.161 22.6686C18.161 22.6686 17.6756 22.6729 17.6573 22.9138C17.639 23.1547 17.8231 23.2415 18.0923 23.301C18.2034 23.3256 18.3194 23.3263 18.431 23.3032C18.5425 23.28 18.6465 23.2336 18.7348 23.1675C18.8412 23.0714 18.7506 22.825 18.7506 22.825C18.7506 22.825 19.2122 22.6179 19.2293 22.4582C19.2328 22.4092 19.2248 22.36 19.2059 22.3139C19.1871 22.2678 19.1577 22.2259 19.1197 22.1908C19.1857 22.179 19.2474 22.1524 19.2992 22.1135C19.3509 22.0746 19.3912 22.0246 19.4162 21.968C19.441 21.9189 19.4518 21.8651 19.4476 21.8113C19.4435 21.7575 19.4245 21.7055 19.3925 21.6601C19.3925 21.6601 19.4763 21.3688 19.5351 21.1596C19.5939 20.9504 19.1775 20.7908 18.9318 20.6606C18.686 20.5304 18.3567 20.9184 17.9512 20.9997C17.9512 20.9997 17.7447 21.1139 17.966 21.2543C18.1741 21.34 18.4053 21.3684 18.631 21.3358C18.7329 21.344 18.7403 21.5089 18.7403 21.5089Z" fill="#EAAD7B"/>
<path id="Vector_15" d="M1.45273 29.8893C1.41633 30.2484 1.53091 30.6067 1.7735 30.8924C2.0161 31.1781 2.36879 31.3701 2.76094 31.43C2.8223 31.444 2.88495 31.4566 2.94856 31.467C5.02911 31.8146 8.54477 30.4766 8.54477 30.4766L3.25055 21.4462C3.25055 21.4462 1.67633 26.0529 1.47329 29.3723C1.46365 29.5236 1.45765 29.6712 1.4553 29.8151C1.45305 29.839 1.45273 29.8643 1.45273 29.8893Z" fill="url(#paint3_linear_71_1685)"/>
<path id="Vector_16" d="M1.45273 29.8894C1.41633 30.2484 1.53091 30.6067 1.7735 30.8924C2.0161 31.1781 2.36879 31.3701 2.76094 31.4301C2.71757 30.6703 2.01527 30.1271 1.4553 29.8127C1.45305 29.839 1.45273 29.8643 1.45273 29.8894Z" fill="url(#paint4_linear_71_1685)"/>
<path id="Vector_17" d="M11.1523 15.2118C10.2309 15.2118 10.2206 14.3134 10.2206 14.3044C10.2206 14.2902 10.2268 14.2767 10.2378 14.2667C10.2488 14.2567 10.2638 14.2511 10.2794 14.2511H12.0219C12.0357 14.2511 12.049 14.2554 12.0596 14.2634C12.0701 14.2714 12.0773 14.2825 12.0798 14.2948C12.101 14.4085 12.0968 14.5249 12.0677 14.6372C12.0385 14.7494 11.9848 14.8553 11.9098 14.9484C11.8136 15.0413 11.6955 15.1132 11.5643 15.1588C11.4331 15.2044 11.2923 15.2225 11.1523 15.2118ZM10.3407 14.3577C10.3391 14.4553 10.3588 14.5522 10.3989 14.6428C10.4389 14.7334 10.4984 14.8159 10.5739 14.8855C10.6495 14.955 10.7395 15.0103 10.8388 15.048C10.938 15.0857 11.0446 15.1051 11.1523 15.1052C11.2749 15.1154 11.3984 15.1004 11.5138 15.0615C11.6292 15.0226 11.7335 14.9606 11.8189 14.8803C11.9404 14.7297 11.9944 14.5429 11.9699 14.3577H10.3407Z" fill="black"/>
<path id="Vector_18" d="M14.4787 69.0221L14.8186 71.7443L16.6701 71.8768L16.9801 69.0993L14.4787 69.0221Z" fill="#EAAD7B"/>
<path id="Vector_19" d="M5.43793 69.3338L5.77783 72.0557L7.46289 72.1824L7.77324 69.4045L5.43793 69.3338Z" fill="#EAAD7B"/>
<path id="Vector_20" d="M14.5795 38.5684C14.5795 38.5684 17.494 50.4786 18.2371 55.6519C18.9802 60.8251 17.3218 70.0154 17.3218 70.0154L13.8843 70.2776C13.2417 64.3117 13.0592 58.5672 13.0592 55.9513C11.3006 53.2652 8.54346 43.3088 8.54346 43.3088L14.5795 38.5684Z" fill="black"/>
<path id="Vector_21" d="M17.6412 69.1336L17.4751 70.2764L13.7339 70.4494L13.6327 69.4328L17.6412 69.1336Z" fill="#4B4E65"/>
<path id="Vector_22" d="M13.5055 55.9729C14.5986 55.9856 15.69 55.8879 16.7593 55.6816C16.8557 55.6629 16.8145 55.5304 16.7191 55.5487C15.6633 55.7525 14.5858 55.8491 13.5064 55.8365C13.4863 55.8365 13.467 55.8438 13.4528 55.8567C13.4386 55.8696 13.4306 55.8871 13.4306 55.9053C13.4306 55.9235 13.4386 55.941 13.4528 55.9539C13.467 55.9668 13.4863 55.974 13.5064 55.974L13.5055 55.9729Z" fill="#4B4E65"/>
<path id="Vector_23" d="M3.60093 42.4969L4.05842 56.3481C3.54454 57.6557 3.30365 59.0387 3.34809 60.4263C3.4011 62.815 5.07074 70.0148 5.07074 70.0148L8.08426 70.277C8.08426 70.277 10.3248 49.8642 10.2689 45.058C10.213 40.2518 3.60093 42.4969 3.60093 42.4969Z" fill="black"/>
<path id="Vector_24" d="M4.56018 69.0401L4.72628 70.1829L8.30298 70.3382L8.40386 69.3215L4.56018 69.0401Z" fill="#4B4E65"/>
<path id="Vector_25" d="M4.32829 56.5753C5.27065 56.3921 6.24882 56.4284 7.17154 56.6807C7.19074 56.6851 7.21105 56.6824 7.22812 56.6733C7.2452 56.6643 7.25769 56.6495 7.26294 56.6322C7.26818 56.6149 7.26575 56.5964 7.25618 56.5807C7.2466 56.565 7.23064 56.5534 7.2117 56.5482C6.26261 56.2899 5.25685 56.2536 4.28814 56.4427C4.19175 56.4614 4.23288 56.5939 4.32829 56.5753Z" fill="#4B4E65"/>
<path id="Vector_26" d="M9.39854 46.6416C9.51522 47.2438 9.68628 47.8364 9.91001 48.4133C9.94213 48.4963 10.0886 48.4605 10.0562 48.3769C9.83254 47.8 9.66148 47.2074 9.54472 46.6052C9.52802 46.5178 9.38184 46.555 9.39854 46.6416Z" fill="#4B4E65"/>
<path id="Vector_27" d="M14.4213 71.3909C14.1916 71.9464 14.1765 74.2192 14.1765 74.2192L19.8607 74.2247C19.927 74.081 19.9554 73.9253 19.9438 73.7699C19.9322 73.6145 19.8808 73.4637 19.7937 73.3295C19.7066 73.1952 19.5863 73.0812 19.4421 72.9965C19.298 72.9117 19.1341 72.8586 18.9634 72.8413C18.4864 72.7401 18.0352 72.5572 17.634 72.3024C17.634 72.2762 17.33 71.014 17.1431 70.9534C17.1431 70.9534 17.0146 70.8223 16.9044 70.9534C16.8075 71.1297 16.7385 71.3175 16.6994 71.5112C15.9271 70.6417 15.1701 70.7576 14.4213 71.3909Z" fill="#ED0976"/>
<path id="Vector_28" d="M14.3588 72.0464C14.6304 71.9536 14.9231 71.9229 15.2109 71.9569C15.4987 71.991 15.7729 72.0887 16.0092 72.2416C16.0892 72.2925 16.165 72.1734 16.0856 72.1227C15.832 71.9602 15.5386 71.8563 15.2307 71.8199C14.9227 71.7835 14.6097 71.8157 14.3186 71.9138C14.2277 71.9444 14.2669 72.0773 14.3588 72.0464Z" fill="black"/>
<path id="Vector_29" d="M19.861 73.8877L14.2346 73.8821C14.2247 73.8822 14.2148 73.8804 14.2056 73.877C14.1964 73.8735 14.188 73.8685 14.1809 73.8621C14.1739 73.8557 14.1683 73.8481 14.1645 73.8397C14.1607 73.8314 14.1588 73.8224 14.1588 73.8134C14.1588 73.8044 14.1608 73.7954 14.1646 73.7871C14.1684 73.7787 14.174 73.7712 14.181 73.7648C14.1881 73.7584 14.1964 73.7533 14.2056 73.7499C14.2148 73.7464 14.2247 73.7446 14.2346 73.7446L19.8614 73.7502C19.8815 73.7503 19.9008 73.7576 19.915 73.7705C19.9292 73.7834 19.9372 73.801 19.9372 73.8192C19.9371 73.8282 19.9351 73.8372 19.9313 73.8455C19.9274 73.8538 19.9218 73.8614 19.9147 73.8677C19.9077 73.8741 19.8993 73.8791 19.8901 73.8826C19.8809 73.886 19.871 73.8877 19.861 73.8877Z" fill="black"/>
<path id="Vector_30" d="M5.31573 71.3909C5.08602 71.9464 5.07092 74.2192 5.07092 74.2192L10.7552 74.2247C10.8214 74.081 10.8499 73.9253 10.8383 73.7699C10.8267 73.6145 10.7753 73.4637 10.6882 73.3295C10.6011 73.1952 10.4807 73.0812 10.3366 72.9965C10.1925 72.9117 10.0286 72.8586 9.85785 72.8413C9.3809 72.7401 8.92967 72.5572 8.52843 72.3024C8.52843 72.2762 8.22451 71.014 8.03753 70.9534C8.03753 70.9534 7.90903 70.8223 7.79883 70.9534C7.70196 71.1297 7.63296 71.3175 7.59386 71.5112C6.82153 70.6417 6.06461 70.7576 5.31573 71.3909Z" fill="#ED0976"/>
<path id="Vector_31" d="M5.25412 72.0464C5.52576 71.9536 5.81838 71.9229 6.1062 71.957C6.39401 71.991 6.66817 72.0887 6.90448 72.2416C6.98448 72.2925 7.0603 72.1734 6.98095 72.1227C6.72735 71.9602 6.43388 71.8563 6.12597 71.8199C5.81807 71.7835 5.50502 71.8157 5.21396 71.9138C5.12304 71.9444 5.16224 72.0773 5.25412 72.0464Z" fill="black"/>
<path id="Vector_32" d="M10.7558 73.8877L5.12909 73.8821C5.11913 73.8822 5.10927 73.8804 5.10007 73.877C5.09087 73.8735 5.08252 73.8685 5.07549 73.8621C5.06847 73.8557 5.06292 73.8481 5.05916 73.8397C5.0554 73.8314 5.05351 73.8224 5.05359 73.8134C5.05359 73.7952 5.06158 73.7777 5.0758 73.7648C5.09002 73.7519 5.1093 73.7446 5.12941 73.7446L10.7561 73.7502C10.7763 73.7503 10.7956 73.7576 10.8098 73.7705C10.824 73.7834 10.832 73.801 10.832 73.8192C10.8319 73.8282 10.8299 73.8372 10.8261 73.8455C10.8222 73.8538 10.8166 73.8614 10.8095 73.8677C10.8025 73.8741 10.7941 73.8791 10.7849 73.8826C10.7756 73.886 10.7658 73.8877 10.7558 73.8877Z" fill="black"/>
<path id="Vector_33" d="M14.0301 24.3712C13.6831 26.0558 13.6767 30.1614 13.8769 31.3269C13.9604 31.8134 12.5102 32.3948 11.1284 32.6774C8.63597 33.1869 5.10778 32.1417 5.11195 31.5914C5.12599 30.2998 5.06798 29.0084 4.93815 27.7221C4.40002 24.5932 2.98354 22.8486 3.21967 21.5569C3.33019 20.9536 4.26444 20.1834 5.09396 19.6052C5.7908 19.1208 6.41117 18.7724 6.41117 18.7724L8.84479 18.1006C8.84479 18.1006 12.8735 18.8714 13.909 19.7276C15.0411 20.6632 14.4963 22.1084 14.0301 24.3712Z" fill="url(#paint5_linear_71_1685)"/>
<path id="Vector_34" d="M13.2811 19.5697C12.5836 19.6473 11.946 19.9654 11.5004 20.458C11.0548 20.9507 10.8356 21.58 10.8882 22.2153C10.8956 22.3027 11.0473 22.3027 11.0399 22.2153C10.987 21.6163 11.1902 21.0218 11.6074 20.5549C12.0246 20.088 12.6239 19.7845 13.2811 19.7072C13.3774 19.6961 13.3774 19.5583 13.2811 19.5697Z" fill="url(#paint6_linear_71_1685)"/>
<path id="Vector_35" d="M7.58598 53.1831L7.70967 52.4391L7.73537 52.2844L8.15849 49.753L8.69565 52.2605L8.72778 52.4123L8.88391 53.1405C14.1813 52.948 20.1046 52.474 20.7847 52.0508C20.7847 52.0508 19.0762 45.1982 17.058 41.2461C14.5807 36.3979 13.7602 26.7564 13.7602 26.7564L3.34682 22.7364C3.34682 22.7364 4.80796 31.333 2.28277 39.865C0.89135 44.5655 0.798502 51.7502 0.343262 52.7814C0.1505 53.2169 3.5232 53.2961 7.58598 53.1831Z" fill="url(#paint7_linear_71_1685)"/>
<path id="Vector_36" d="M13.4863 27.3833C13.4863 27.3833 15.5556 29.564 17.7322 30.2648C18.6481 30.5591 19.5834 30.5917 20.392 30.0901C20.4338 30.0638 20.4759 30.0365 20.5176 30.0079C23.1867 28.196 25.2307 21.9321 25.2307 21.9321L24.1441 21.1471C24.1441 21.1471 20.1244 27.0646 18.7593 25.9186C17.3942 24.7726 14.2593 20.106 14.2593 20.106C12.5129 21.3784 12.3583 23.8853 13.4863 27.3833Z" fill="url(#paint8_linear_71_1685)"/>
<path id="Vector_37" d="M17.7322 30.2648C18.6481 30.5591 19.5833 30.5917 20.392 30.0901C20.4337 30.0638 20.4758 30.0365 20.5176 30.0079C20.3159 29.8602 20.0818 29.753 19.831 29.6935C19.5802 29.6339 19.3182 29.6233 19.0626 29.6624C18.5528 29.709 18.0795 29.9233 17.7322 30.2648Z" fill="url(#paint9_linear_71_1685)"/>
<path id="Vector_38" d="M24.0843 22.0924C23.9094 22.2795 23.7724 22.4932 23.6795 22.7236C23.6474 22.8069 23.7922 22.8428 23.8257 22.7603C23.9097 22.5521 24.0336 22.3589 24.1916 22.1896C24.2539 22.1224 24.1473 22.0248 24.0843 22.0924Z" fill="url(#paint10_linear_71_1685)"/>
<path id="Vector_39" d="M24.4283 22.5061C24.4283 22.5392 24.4429 22.571 24.4687 22.5945C24.4946 22.6179 24.5297 22.6311 24.5662 22.6311C24.6028 22.631 24.6377 22.6178 24.6635 22.5944C24.6893 22.5709 24.7038 22.5392 24.7038 22.5061C24.7039 22.4897 24.7003 22.4734 24.6934 22.4582C24.6865 22.4431 24.6764 22.4293 24.6636 22.4177C24.6509 22.4061 24.6357 22.3968 24.619 22.3906C24.6022 22.3843 24.5843 22.381 24.5662 22.381C24.5481 22.381 24.5302 22.3842 24.5134 22.3905C24.4967 22.3967 24.4815 22.406 24.4686 22.4176C24.4558 22.4292 24.4457 22.443 24.4388 22.4582C24.4318 22.4734 24.4283 22.4896 24.4283 22.5061Z" fill="url(#paint11_linear_71_1685)"/>
<path id="Vector_40" d="M24.7499 22.8366C24.4948 22.8866 24.2288 22.8637 23.9886 22.7712C23.7483 22.6787 23.5455 22.521 23.408 22.3199C23.3556 22.2456 23.2242 22.3143 23.2769 22.3892C23.432 22.6159 23.6609 22.7935 23.9319 22.8973C24.203 23.0012 24.5029 23.0263 24.7904 22.9692C24.8868 22.952 24.8456 22.8195 24.7499 22.8366Z" fill="url(#paint12_linear_71_1685)"/>
<path id="Vector_41" d="M23.6541 21.836C23.6541 21.836 23.329 19.4214 23.4238 19.1677C23.5185 18.9139 24.8123 18.5446 25.0532 18.4732C25.3819 18.3756 25.903 18.5446 25.5775 18.8169C25.4664 18.8968 25.3369 18.9529 25.1986 18.9813C25.0603 19.0096 24.9167 19.0094 24.7785 18.9806C24.7785 18.9806 25.4057 18.6282 25.6081 18.7033C25.8105 18.7785 26.9211 19.4852 27.0406 20.0191C27.1601 20.5531 26.5561 20.8662 26.4 20.9933C26.2439 21.1203 26.1539 20.5534 26.1539 20.5534C26.0273 20.6929 25.8784 20.8144 25.7122 20.914C25.4294 21.0888 25.4349 21.9024 25.113 22.0638C24.8764 22.1779 24.6047 22.2175 24.3406 22.1763C24.0764 22.135 23.835 22.0153 23.6541 21.836Z" fill="#EAAD7B"/>
<path id="Vector_42" d="M25.0683 19.3063C25.2534 19.1219 25.5013 18.9988 25.7725 18.9568C25.8425 18.9454 25.8287 18.8458 25.758 18.8569C25.4582 18.9038 25.1844 19.0406 24.9802 19.2452C24.932 19.2929 25.0201 19.3541 25.0683 19.3066V19.3063Z" fill="#ED0976"/>
<path id="Vector_43" d="M24.8228 19.008C25.0318 18.8458 25.2945 18.7514 25.5694 18.74C25.6407 18.7368 25.6404 18.636 25.5694 18.6395C25.2654 18.6522 24.9749 18.7571 24.7444 18.9373C24.6901 18.9792 24.7691 19.0497 24.8234 19.008H24.8228Z" fill="#ED0976"/>
<path id="Vector_44" d="M25.2766 19.6376C25.3794 19.5085 25.5104 19.4 25.6615 19.3189C25.8125 19.2378 25.9804 19.1858 26.1547 19.1662C26.2254 19.1662 26.2401 19.0666 26.1688 19.0666C25.9752 19.0845 25.7878 19.1391 25.619 19.2269C25.4501 19.3146 25.3035 19.4336 25.1886 19.5761C25.1395 19.6227 25.2278 19.6839 25.2766 19.6373V19.6376Z" fill="#ED0976"/>
<path id="Vector_45" d="M25.7258 19.8866C25.8216 19.7667 25.9489 19.6703 26.0961 19.6061C26.2434 19.542 26.4059 19.5122 26.5691 19.5193C26.6398 19.5222 26.6546 19.4223 26.5829 19.4194C26.4006 19.4104 26.2187 19.4429 26.0537 19.5138C25.8887 19.5847 25.7458 19.6918 25.6381 19.8254C25.5957 19.8776 25.6834 19.939 25.7258 19.8866Z" fill="#ED0976"/>
<path id="Vector_46" d="M26.1813 20.6061C26.2482 20.5127 26.2931 20.4078 26.3131 20.2979C26.3331 20.188 26.3278 20.0755 26.2976 19.9676C26.2802 19.9055 26.169 19.9181 26.1877 19.9807C26.2158 20.0756 26.2219 20.1747 26.2057 20.2718C26.1894 20.3689 26.1511 20.4619 26.0932 20.545C26.0553 20.5991 26.143 20.6615 26.1813 20.6061Z" fill="#ED0976"/>
<path id="Vector_47" d="M26.3349 20.2624C26.3755 20.2223 26.4285 20.1943 26.4869 20.1819C26.5454 20.1696 26.6066 20.1734 26.6625 20.1931C26.676 20.1972 26.6906 20.1965 26.7035 20.1912C26.7164 20.1858 26.7266 20.1762 26.7319 20.1643C26.7372 20.1524 26.7373 20.1391 26.7322 20.1271C26.7271 20.1151 26.7171 20.1054 26.7043 20.0998C26.6257 20.0725 26.5398 20.0675 26.4581 20.0856C26.3763 20.1038 26.3026 20.1441 26.2468 20.2012C26.1993 20.2493 26.2873 20.3105 26.3349 20.2624Z" fill="#ED0976"/>
<path id="Vector_48" d="M6.87836 19.105C7.95902 19.4614 9.14823 19.4345 10.208 19.0299L9.9905 18.1481L9.75308 17.1868L9.58667 16.5133L7.25392 15.4169L6.87836 19.105Z" fill="#EAAD7B"/>
<path id="Vector_49" d="M6.68093 18.1015L6.14376 18.9311C6.14376 18.9311 5.60563 19.4817 7.70385 19.5962C8.96493 19.6606 10.2121 19.3299 11.2362 18.6596C11.2362 18.6596 10.8507 17.8833 10.2705 17.694C9.69027 17.5046 6.68093 18.1015 6.68093 18.1015Z" fill="url(#paint13_linear_71_1685)"/>
<path id="Vector_50" d="M6.51262 14.9715C6.75839 15.6415 6.98007 15.8562 7.55964 16.4941C8.02251 16.9737 8.66737 17.2778 9.36615 17.3462C10.9381 17.4044 11.6414 16.802 11.3645 14.882C11.1919 13.6897 11.5277 13.0093 11.1717 12.5592C11.1482 12.5385 11.1248 12.5187 11.101 12.4992C10.5282 12.0356 9.78001 11.7908 9.01275 11.8158C5.20313 11.9186 6.15955 14.0122 6.51262 14.9715Z" fill="#EAAD7B"/>
<path id="Vector_51" d="M11.256 14.1619C11.256 14.1619 11.3424 15.0067 11.6602 15.2878C11.9779 15.5689 11.2348 15.6738 11.2348 15.6738L11.256 14.1619Z" fill="#EAAD7B"/>
<path id="Vector_52" d="M3.90131 26.4779C4.10892 26.8657 4.46046 27.1748 4.89427 27.3511C5.32809 27.5274 5.8165 27.5596 6.27389 27.4421C7.99172 27.0713 8.23717 26.1814 9.54602 26.5522C10.8549 26.923 11.1823 26.5522 11.1823 26.5522C11.1823 26.5522 10.0369 23.6593 10.4459 22.8433C10.8549 22.0274 11.6732 21.212 11.2639 20.2472C10.8546 19.2824 9.82328 18.3683 10.4607 17.2308C11.0981 16.0933 9.76545 16.077 9.73686 15.0096" fill="black"/>
<path id="Vector_53" d="M9.73871 15.0096C9.47977 14.2793 9.94465 14.1453 10.7391 14.1905C11.5336 14.2356 12.1206 13.108 11.3865 12.205C10.8205 11.59 10.045 11.1633 9.18217 10.992C8.3193 10.8206 7.41809 10.9144 6.62046 11.2585C5.12913 11.8653 5.04624 13.6454 5.45618 14.9808C5.86612 16.3161 5.78355 16.5384 5.21073 17.3543C4.6379 18.1702 4.63823 18.17 4.96528 19.5796C5.29233 20.9892 4.39277 19.9504 4.14732 21.434C3.90187 22.9176 5.21073 23.0653 5.12912 23.9561C5.04752 24.8469 3.73449 25.6212 3.90187 26.4779" fill="black"/>
<path id="Vector_54" d="M11.2461 15.1963C11.2808 15.0702 11.2834 14.9385 11.2539 14.8112C11.2243 14.684 11.1634 14.5645 11.0755 14.4617C10.8506 14.1896 10.4378 13.7745 10.077 13.8418C9.54692 13.9405 9.51415 14.3757 9.59832 14.8118C9.68249 15.2479 10.042 15.8049 10.7032 15.6729C10.8351 15.6503 10.9569 15.5931 11.0534 15.5084C11.1499 15.4237 11.2169 15.3152 11.2461 15.1963Z" fill="#EAAD7B"/>
<path id="Vector_55" d="M9.84706 15.4556C9.92083 15.5557 10.0235 15.6354 10.1438 15.6862C10.2641 15.737 10.3975 15.7569 10.5294 15.7437C10.6258 15.7292 10.5937 15.5949 10.4973 15.6094C10.3916 15.6165 10.2858 15.5973 10.1912 15.5539C10.0966 15.5106 10.0169 15.4446 9.96047 15.3633C9.8991 15.2939 9.78698 15.3866 9.84802 15.4556H9.84706Z" fill="#ED0976"/>
<path id="Vector_56" d="M10.6666 16.3514C10.5522 16.3511 10.4411 16.3162 10.351 16.2521C10.2609 16.1881 10.197 16.0987 10.1693 15.998C10.1373 15.8784 10.1587 15.7522 10.2289 15.6468C10.2992 15.5415 10.4125 15.4656 10.5442 15.4358C10.6096 15.4211 10.6775 15.4182 10.744 15.4274C10.8106 15.4366 10.8745 15.4577 10.932 15.4894C10.9897 15.5209 11.0399 15.5625 11.0798 15.6117C11.1196 15.6609 11.1483 15.7167 11.1643 15.776C11.1805 15.8353 11.1835 15.8968 11.1733 15.9571C11.1631 16.0174 11.1399 16.0753 11.1049 16.1273C11.0702 16.1796 11.0244 16.2252 10.9702 16.2613C10.916 16.2975 10.8544 16.3235 10.789 16.338C10.749 16.3468 10.7079 16.3513 10.6666 16.3514ZM10.2673 15.9759C10.2801 16.0235 10.3031 16.0683 10.3352 16.1078C10.3672 16.1472 10.4076 16.1805 10.454 16.2057C10.5001 16.2312 10.5513 16.2482 10.6047 16.2556C10.6581 16.263 10.7125 16.2607 10.765 16.2488C10.8174 16.2373 10.8669 16.2164 10.9104 16.1874C10.9539 16.1584 10.9906 16.1218 11.0184 16.0799C11.0466 16.0381 11.0652 15.9916 11.0734 15.9432C11.0816 15.8948 11.079 15.8454 11.066 15.7979C11.0398 15.702 10.9728 15.6193 10.8796 15.5682C10.7863 15.517 10.6745 15.5015 10.5687 15.5249C10.4628 15.5486 10.3716 15.6093 10.3151 15.6939C10.2586 15.7784 10.2414 15.8798 10.2673 15.9759Z" fill="white"/>
<path id="Vector_57" d="M10.4435 15.1856C10.2892 15.0666 10.1704 14.9143 10.0981 14.7428C10.0432 14.5849 10.0374 14.302 10.2526 14.2289C10.3249 14.2045 10.2954 14.0984 10.2224 14.1232C10.128 14.1634 10.0502 14.2299 10.0004 14.313C9.9505 14.3961 9.93117 14.4914 9.94518 14.5852C9.98109 14.8512 10.1293 15.0943 10.3587 15.2633C10.4146 15.312 10.4997 15.2342 10.4435 15.1856Z" fill="black"/>
<path id="Vector_58" d="M11.9066 41.0183C9.06367 41.5548 6.10247 41.1284 3.5828 39.8196C3.56541 39.8104 3.54471 39.8078 3.52525 39.8125C3.50579 39.8171 3.48917 39.8286 3.47903 39.8443C3.46889 39.8601 3.46607 39.8788 3.47119 39.8965C3.47631 39.9141 3.48895 39.9292 3.50633 39.9384C6.06154 41.265 9.06443 41.6964 11.9467 41.1508C12.0431 41.1325 12.002 40.9999 11.9066 41.0183Z" fill="url(#paint14_linear_71_1685)"/>
<path id="Vector_59" d="M15.9883 51.6864C13.562 51.9669 11.1287 52.1836 8.69543 52.2611L8.72756 52.4129C12.6676 52.278 16.5871 51.7598 20.4915 51.271C20.5879 51.259 20.5468 51.1253 20.4514 51.1384C18.9632 51.326 17.477 51.5139 15.9883 51.6864Z" fill="url(#paint15_linear_71_1685)"/>
<path id="Vector_60" d="M0.587704 52.0397C2.0467 52.2334 3.51582 52.3581 4.98911 52.4134C5.8967 52.4472 6.80332 52.4542 7.70866 52.4391L7.73436 52.2844C5.35772 52.3346 2.98053 52.2084 0.626578 51.9072C0.532125 51.8944 0.491002 52.0269 0.587704 52.0397Z" fill="url(#paint16_linear_71_1685)"/>
<path id="Vector_61" d="M3.61761 24.9815C3.68476 25.9515 3.74194 26.9224 3.74612 27.8945C3.7503 29.0629 3.68829 30.2305 3.61761 31.3968C3.61215 31.4842 3.76379 31.4842 3.76925 31.3968C3.83929 30.2316 3.90129 29.0629 3.89776 27.8945C3.89423 26.9224 3.83704 25.9515 3.76925 24.9815C3.76315 24.8941 3.61151 24.8941 3.61761 24.9815Z" fill="url(#paint17_linear_71_1685)"/>
<path id="Vector_62" d="M11.7988 25.7738C11.8632 29.1864 12.1907 32.5907 12.779 35.9618C13.3741 39.3631 14.2247 42.7235 15.3248 46.0196C15.9506 47.8989 16.654 49.7548 17.4349 51.5873C17.4696 51.6692 17.6164 51.6336 17.5814 51.5509C16.2125 48.3381 15.0799 45.0467 14.191 41.6982C13.3067 38.3625 12.6788 34.9753 12.3116 31.5608C12.1062 29.6382 11.9858 27.7096 11.9505 25.775C11.9505 25.7568 11.9425 25.7393 11.9283 25.7264C11.914 25.7135 11.8948 25.7062 11.8746 25.7062C11.8545 25.7062 11.8353 25.7135 11.821 25.7264C11.8068 25.7393 11.7988 25.7568 11.7988 25.775V25.7738Z" fill="url(#paint18_linear_71_1685)"/>
<path id="Vector_63" d="M15.0091 40.0963C15.0401 41.2435 15.3704 42.3678 15.9729 43.377C16.1948 43.8075 16.5474 44.1719 16.9894 44.4274C17.1977 44.5392 17.4357 44.5975 17.6778 44.596C17.9199 44.5944 18.1569 44.5331 18.3635 44.4187C18.4444 44.37 18.3686 44.2509 18.287 44.2998C18.0514 44.423 17.7781 44.4735 17.5082 44.4436C17.2382 44.4138 16.9862 44.3053 16.7902 44.1343C16.4231 43.8184 16.1325 43.4367 15.9369 43.0134C15.4535 42.1018 15.1895 41.1075 15.1623 40.0963C15.1623 40.0781 15.1544 40.0606 15.1401 40.0477C15.1259 40.0348 15.1066 40.0276 15.0865 40.0276C15.0664 40.0276 15.0471 40.0348 15.0329 40.0477C15.0187 40.0606 15.0107 40.0781 15.0107 40.0963H15.0091Z" fill="url(#paint19_linear_71_1685)"/>
<path id="Vector_64" d="M15.0508 40.1202C15.5919 40.1979 16.118 40.3451 16.6135 40.5571C16.7012 40.5947 16.7783 40.4762 16.6899 40.4383C16.1832 40.2205 15.645 40.0691 15.0913 39.9888C14.9949 39.9748 14.9547 40.1074 15.0508 40.1214V40.1202Z" fill="url(#paint20_linear_71_1685)"/>
<path id="Vector_65" d="M19.0251 26.1822C19.6274 26.4951 20.2459 26.7809 20.8483 27.094C20.8655 27.1018 20.8854 27.1033 20.9039 27.0983C20.9223 27.0933 20.938 27.0821 20.9478 27.067C20.9575 27.052 20.9606 27.0341 20.9564 27.017C20.9522 27 20.941 26.985 20.925 26.9752C20.3227 26.662 19.7042 26.3765 19.1018 26.0634C19.0846 26.0556 19.0647 26.0541 19.0462 26.0591C19.0278 26.0641 19.0121 26.0753 19.0023 26.0903C18.9926 26.1054 18.9895 26.1233 18.9937 26.1403C18.9979 26.1574 19.0091 26.1724 19.0251 26.1822Z" fill="url(#paint21_linear_71_1685)"/>
<path id="Vector_66" d="M19.3982 26.3631C19.6661 26.3608 19.9328 26.3311 20.2014 26.329C20.2215 26.329 20.2408 26.3218 20.255 26.3089C20.2692 26.296 20.2772 26.2785 20.2772 26.2603C20.2772 26.2421 20.2692 26.2246 20.255 26.2117C20.2408 26.1988 20.2215 26.1916 20.2014 26.1916C19.9334 26.1936 19.6668 26.2233 19.3982 26.2256C19.3781 26.2256 19.3588 26.2329 19.3446 26.2458C19.3304 26.2587 19.3224 26.2762 19.3224 26.2944C19.3224 26.3126 19.3304 26.3301 19.3446 26.343C19.3588 26.3559 19.3781 26.3631 19.3982 26.3631Z" fill="url(#paint22_linear_71_1685)"/>
<path id="Vector_67" d="M13.9457 27.5764C12.9643 26.7975 12.0895 25.9147 11.3402 24.9468C11.2842 24.8749 11.1529 24.9436 11.2091 25.0161C11.9653 25.9941 12.8481 26.8864 13.8387 27.6737C13.9116 27.732 14.0192 27.6347 13.9457 27.5764Z" fill="url(#paint23_linear_71_1685)"/>
<path id="Vector_68" d="M11.6854 25.514L11.1123 25.3002C11.022 25.2664 10.9838 25.3995 11.0721 25.4327L11.645 25.6465C11.7352 25.6803 11.7735 25.5472 11.6854 25.514Z" fill="url(#paint24_linear_71_1685)"/>
<path id="Vector_69" d="M10.7379 14.2487C10.726 14.247 10.715 14.2421 10.7063 14.2346C10.6976 14.2272 10.6916 14.2174 10.6891 14.2068C10.6875 14.1999 10.6875 14.1929 10.6889 14.186C10.6904 14.1791 10.6934 14.1725 10.6976 14.1667C10.7019 14.1609 10.7074 14.1558 10.7138 14.1519C10.7202 14.148 10.7274 14.1453 10.735 14.1439C11.1729 14.1018 11.6156 14.1561 12.0255 14.3021C12.0398 14.3075 12.0511 14.3177 12.0571 14.3306C12.0631 14.3435 12.0633 14.3581 12.0577 14.3711C12.0518 14.3841 12.0404 14.3944 12.0262 14.3998C12.0119 14.4053 11.9959 14.4054 11.9815 14.4002C11.5922 14.2632 11.1729 14.2107 10.7572 14.247C10.7509 14.2485 10.7444 14.249 10.7379 14.2487Z" fill="black"/>
</g>
<defs>
<linearGradient id="paint0_linear_71_1685" x1="26.2553" y1="16.3403" x2="26.2553" y2="22.5747" gradientUnits="userSpaceOnUse">
<stop stop-color="#233E8B"/>
<stop offset="1" stop-color="#242A6B"/>
</linearGradient>
<linearGradient id="paint1_linear_71_1685" x1="26.4808" y1="17.9521" x2="26.4808" y2="20.9446" gradientUnits="userSpaceOnUse">
<stop stop-color="#233E8B"/>
<stop offset="1" stop-color="#242A6B"/>
</linearGradient>
<linearGradient id="paint2_linear_71_1685" x1="26.179" y1="17.9521" x2="26.179" y2="20.9446" gradientUnits="userSpaceOnUse">
<stop stop-color="#233E8B"/>
<stop offset="1" stop-color="#242A6B"/>
</linearGradient>
<linearGradient id="paint3_linear_71_1685" x1="4.99544" y1="21.4462" x2="4.99544" y2="31.5247" gradientUnits="userSpaceOnUse">
<stop stop-color="#233E8B"/>
<stop offset="1" stop-color="#242A6B"/>
</linearGradient>
<linearGradient id="paint4_linear_71_1685" x1="2.10352" y1="29.8127" x2="2.10352" y2="31.4301" gradientUnits="userSpaceOnUse">
<stop stop-color="#233E8B"/>
<stop offset="1" stop-color="#242A6B"/>
</linearGradient>
<linearGradient id="paint5_linear_71_1685" x1="8.88617" y1="18.1006" x2="8.88617" y2="32.8135" gradientUnits="userSpaceOnUse">
<stop stop-color="#233E8B"/>
<stop offset="1" stop-color="#242A6B"/>
</linearGradient>
<linearGradient id="paint6_linear_71_1685" x1="12.1169" y1="19.569" x2="12.1169" y2="22.2808" gradientUnits="userSpaceOnUse">
<stop stop-color="#233E8B"/>
<stop offset="1" stop-color="#242A6B"/>
</linearGradient>
<linearGradient id="paint7_linear_71_1685" x1="10.5601" y1="22.7364" x2="10.5601" y2="53.2294" gradientUnits="userSpaceOnUse">
<stop stop-color="#233E8B"/>
<stop offset="1" stop-color="#242A6B"/>
</linearGradient>
<linearGradient id="paint8_linear_71_1685" x1="18.9987" y1="20.106" x2="18.9987" y2="30.4783" gradientUnits="userSpaceOnUse">
<stop stop-color="#233E8B"/>
<stop offset="1" stop-color="#242A6B"/>
</linearGradient>
<linearGradient id="paint9_linear_71_1685" x1="19.1249" y1="29.6393" x2="19.1249" y2="30.4783" gradientUnits="userSpaceOnUse">
<stop stop-color="#233E8B"/>
<stop offset="1" stop-color="#242A6B"/>
</linearGradient>
<linearGradient id="paint10_linear_71_1685" x1="23.9427" y1="22.0695" x2="23.9427" y2="22.807" gradientUnits="userSpaceOnUse">
<stop stop-color="#233E8B"/>
<stop offset="1" stop-color="#242A6B"/>
</linearGradient>
<linearGradient id="paint11_linear_71_1685" x1="24.5661" y1="22.381" x2="24.5661" y2="22.6311" gradientUnits="userSpaceOnUse">
<stop stop-color="#233E8B"/>
<stop offset="1" stop-color="#242A6B"/>
</linearGradient>
<linearGradient id="paint12_linear_71_1685" x1="24.055" y1="22.2879" x2="24.055" y2="22.9991" gradientUnits="userSpaceOnUse">
<stop stop-color="#233E8B"/>
<stop offset="1" stop-color="#242A6B"/>
</linearGradient>
<linearGradient id="paint13_linear_71_1685" x1="8.65906" y1="17.6569" x2="8.65906" y2="19.6041" gradientUnits="userSpaceOnUse">
<stop stop-color="#233E8B"/>
<stop offset="1" stop-color="#242A6B"/>
</linearGradient>
<linearGradient id="paint14_linear_71_1685" x1="7.73521" y1="39.8102" x2="7.73521" y2="41.3811" gradientUnits="userSpaceOnUse">
<stop stop-color="#233E8B"/>
<stop offset="1" stop-color="#242A6B"/>
</linearGradient>
<linearGradient id="paint15_linear_71_1685" x1="14.621" y1="51.1375" x2="14.621" y2="52.4129" gradientUnits="userSpaceOnUse">
<stop stop-color="#233E8B"/>
<stop offset="1" stop-color="#242A6B"/>
</linearGradient>
<linearGradient id="paint16_linear_71_1685" x1="4.13339" y1="51.9063" x2="4.13339" y2="52.4467" gradientUnits="userSpaceOnUse">
<stop stop-color="#233E8B"/>
<stop offset="1" stop-color="#242A6B"/>
</linearGradient>
<linearGradient id="paint17_linear_71_1685" x1="3.75767" y1="24.9159" x2="3.75767" y2="31.4624" gradientUnits="userSpaceOnUse">
<stop stop-color="#233E8B"/>
<stop offset="1" stop-color="#242A6B"/>
</linearGradient>
<linearGradient id="paint18_linear_71_1685" x1="14.6928" y1="25.7062" x2="14.6928" y2="51.6337" gradientUnits="userSpaceOnUse">
<stop stop-color="#233E8B"/>
<stop offset="1" stop-color="#242A6B"/>
</linearGradient>
<linearGradient id="paint19_linear_71_1685" x1="16.7036" y1="40.0276" x2="16.7036" y2="44.596" gradientUnits="userSpaceOnUse">
<stop stop-color="#233E8B"/>
<stop offset="1" stop-color="#242A6B"/>
</linearGradient>
<linearGradient id="paint20_linear_71_1685" x1="15.8624" y1="39.9878" x2="15.8624" y2="40.5644" gradientUnits="userSpaceOnUse">
<stop stop-color="#233E8B"/>
<stop offset="1" stop-color="#242A6B"/>
</linearGradient>
<linearGradient id="paint21_linear_71_1685" x1="19.9751" y1="26.0562" x2="19.9751" y2="27.1012" gradientUnits="userSpaceOnUse">
<stop stop-color="#233E8B"/>
<stop offset="1" stop-color="#242A6B"/>
</linearGradient>
<linearGradient id="paint22_linear_71_1685" x1="19.7998" y1="26.1916" x2="19.7998" y2="26.3631" gradientUnits="userSpaceOnUse">
<stop stop-color="#233E8B"/>
<stop offset="1" stop-color="#242A6B"/>
</linearGradient>
<linearGradient id="paint23_linear_71_1685" x1="12.5828" y1="24.9164" x2="12.5828" y2="27.6916" gradientUnits="userSpaceOnUse">
<stop stop-color="#233E8B"/>
<stop offset="1" stop-color="#242A6B"/>
</linearGradient>
<linearGradient id="paint24_linear_71_1685" x1="11.3787" y1="25.2947" x2="11.3787" y2="25.652" gradientUnits="userSpaceOnUse">
<stop stop-color="#233E8B"/>
<stop offset="1" stop-color="#242A6B"/>
</linearGradient>
<clipPath id="clip0_71_1685">
<rect width="84.4549" height="73.6104" fill="white" transform="translate(0.334473 0.614323)"/>
</clipPath>
</defs>
</svg>
