<svg width="316" height="281" viewBox="0 0 316 281" fill="none" xmlns="http://www.w3.org/2000/svg">
<path d="M57.2557 64.0644H5.93868C-1.79896 64.0644 -1.79403 55.7651 4.89803 53.5703C11.3639 51.4499 17.0534 56.3835 17.0534 56.3835C17.0534 56.3835 18.917 36.19 36.5821 38.5611C50.5087 40.4301 49.6991 53.4118 49.6991 53.4118C49.6991 53.4118 52.566 48.069 60.0782 50.0907C67.9166 52.1999 67.0669 64.0644 57.2557 64.0644Z" fill="#E0E0E0"/>
<path d="M104.252 137.108H60.751C54.1914 137.108 54.1984 130.073 59.8688 128.213C65.3504 126.415 70.1732 130.597 70.1732 130.597C70.1732 130.597 71.7529 113.479 86.7272 115.489C98.5324 117.074 97.8461 128.078 97.8461 128.078C97.8461 128.078 100.276 123.549 106.645 125.263C113.289 127.051 112.569 137.108 104.252 137.108Z" fill="#E0E0E0"/>
<path d="M224.801 17.6959H189.461C184.132 17.6959 184.065 12.038 188.795 10.8998C190.215 10.5577 191.698 10.5155 193.138 10.7762C194.577 11.0369 195.936 11.5941 197.115 12.407C197.115 12.407 198.399 -1.49958 210.564 0.133315C220.154 1.42016 219.597 10.3603 219.597 10.3603C219.597 10.3603 221.57 6.6807 226.745 8.07281C232.142 9.52544 231.557 17.6959 224.801 17.6959Z" fill="#E0E0E0"/>
<path d="M304.547 59.0571H236.895C226.694 59.0571 226.567 48.2262 235.621 46.0472C238.339 45.3922 241.179 45.3113 243.934 45.8103C246.689 46.3094 249.29 47.3759 251.548 48.9321C251.548 48.9321 254.005 22.311 277.293 25.4367C295.652 27.9005 294.586 45.0137 294.586 45.0137C294.586 45.0137 298.365 37.9742 308.268 40.636C318.601 43.4157 317.482 59.0571 304.547 59.0571Z" fill="#E0E0E0"/>
<path d="M73.5432 269.868C90.0012 269.868 103.343 267.284 103.343 264.097C103.343 260.909 90.0012 258.325 73.5432 258.325C57.0851 258.325 43.7432 260.909 43.7432 264.097C43.7432 267.284 57.0851 269.868 73.5432 269.868Z" fill="#E0E0E0"/>
<path d="M147.907 280.117C212.715 280.117 265.252 276.605 265.252 272.274C265.252 267.942 212.715 264.43 147.907 264.43C83.0987 264.43 30.5613 267.942 30.5613 272.274C30.5613 276.605 83.0987 280.117 147.907 280.117Z" fill="#E0E0E0"/>
<path d="M160.06 86.8013C198.15 86.8013 229.028 81.0022 229.028 73.8486C229.028 66.6951 198.15 60.896 160.06 60.896C121.97 60.896 91.092 66.6951 91.092 73.8486C91.092 81.0022 121.97 86.8013 160.06 86.8013Z" fill="#B9793F"/>
<path d="M149.21 59.8394C149.694 58.4695 149.791 57.0058 149.492 55.5904C149.192 54.1751 148.505 52.8562 147.498 51.7617L163.086 53.8335L160.866 68.4C162.255 67.2998 163.969 66.62 165.78 66.4507C167.592 66.2814 169.417 66.6308 171.011 67.4523C172.605 68.2738 173.894 69.5287 174.707 71.0503C175.52 72.572 175.817 74.2884 175.561 75.9718C175.304 77.6552 174.505 79.2258 173.27 80.4753C172.035 81.7248 170.422 82.594 168.646 82.9675C166.869 83.3411 165.013 83.2012 163.324 82.5666C161.634 81.932 160.192 80.8327 159.187 79.4145L156.967 93.9809L121.774 89.3046C119.704 89.0297 117.836 87.9984 116.581 86.4375C115.325 84.8766 114.786 82.9141 115.08 80.9816L120.088 48.1196L135.763 50.2025C134.564 50.9362 133.572 51.927 132.867 53.0923C132.163 54.2576 131.768 55.5633 131.714 56.9005C131.661 58.2376 131.951 59.5672 132.561 60.7781C133.171 61.989 134.082 63.046 135.219 63.8607C136.356 64.6754 137.685 65.2242 139.095 65.4612C140.505 65.6981 141.956 65.6163 143.325 65.2226C144.695 64.8289 145.944 64.1348 146.967 63.1983C147.991 62.2617 148.759 61.11 149.208 59.8394H149.21Z" fill="url(#paint0_linear_25_638)"/>
<path d="M169.597 66.8012C168.13 66.3485 166.563 66.2577 165.047 66.5377C163.532 66.8178 162.119 67.459 160.947 68.3993L163.165 53.844L178.766 55.917C177.587 54.6205 176.859 53.0199 176.677 51.3276C176.495 49.6354 176.869 47.9315 177.749 46.4423C178.629 44.9532 179.973 43.7491 181.603 42.9899C183.233 42.2308 185.071 41.9526 186.875 42.1922C188.678 42.4317 190.36 43.1778 191.699 44.3313C193.037 45.4848 193.968 46.9912 194.368 48.6504C194.768 50.3096 194.618 52.0432 193.939 53.621C193.259 55.1988 192.081 56.5461 190.561 57.4841L206.161 59.5578L201.153 92.4197C201.008 93.3766 200.661 94.2973 200.135 95.1292C199.608 95.9612 198.911 96.6881 198.083 97.2685C197.256 97.8488 196.314 98.2713 195.311 98.5117C194.309 98.7522 193.265 98.8059 192.24 98.6698L157.047 93.9928L159.278 79.3572C160.063 80.4759 161.125 81.4027 162.372 82.0601C163.62 82.7175 165.018 83.0864 166.45 83.136C167.882 83.1855 169.306 82.9144 170.602 82.3451C171.899 81.7758 173.031 80.9249 173.903 79.8637C174.775 78.8024 175.363 77.5616 175.617 76.2449C175.87 74.9282 175.783 73.5739 175.361 72.2953C174.94 71.0166 174.197 69.8508 173.194 68.8952C172.191 67.9396 170.958 67.2221 169.597 66.8026V66.8012Z" fill="white"/>
<path d="M156.668 40.7893C158.135 41.242 159.702 41.3328 161.218 41.0529C162.733 40.773 164.146 40.1319 165.318 39.192L163.1 53.7446L147.499 51.6716C148.678 52.9679 149.407 54.5684 149.588 56.2606C149.77 57.9527 149.397 59.6565 148.517 61.1457C147.638 62.6349 146.294 63.8391 144.664 64.5985C143.034 65.3578 141.196 65.6363 139.393 65.3971C137.589 65.1579 135.907 64.4122 134.568 63.2591C133.229 62.1059 132.298 60.5999 131.898 58.9408C131.497 57.2818 131.646 55.5483 132.326 53.9704C133.005 52.3925 134.183 51.0449 135.702 50.1065L120.101 48.0334L125.11 15.1708C125.255 14.214 125.601 13.2933 126.128 12.4613C126.655 11.6294 127.352 10.9025 128.18 10.3221C129.007 9.74174 129.949 9.31927 130.952 9.07884C131.954 8.8384 132.998 8.78471 134.023 8.92082L169.216 13.5978L166.985 28.2347C166.199 27.1156 165.138 26.1885 163.89 25.5307C162.642 24.873 161.243 24.5038 159.811 24.4541C158.379 24.4044 156.955 24.6755 155.658 25.2448C154.362 25.8141 153.23 26.6651 152.357 27.7266C151.484 28.7881 150.897 30.0292 150.643 31.3462C150.389 32.6631 150.477 34.0177 150.899 35.2965C151.321 36.5754 152.064 37.7413 153.067 38.6969C154.07 39.6525 155.304 40.37 156.665 40.7893H156.668Z" fill="white"/>
<path d="M175.115 84.0395L177.363 92.0178L206.162 89.2461L203.628 77.5723L175.115 84.0395Z" fill="#D58136"/>
<path d="M92.4865 229.081C108.242 241.779 135.865 236.004 135.865 236.004C135.865 236.004 137.944 209.644 122.188 196.947C106.432 184.25 78.8093 190.024 78.8093 190.024C78.8093 190.024 76.7287 216.384 92.4865 229.081Z" fill="url(#paint1_linear_25_638)"/>
<mask id="mask0_25_638" style="mask-type:luminance" maskUnits="userSpaceOnUse" x="78" y="188" width="58" height="50">
<path d="M92.4865 229.081C108.242 241.779 135.865 236.004 135.865 236.004C135.865 236.004 137.944 209.644 122.188 196.947C106.432 184.25 78.8093 190.024 78.8093 190.024C78.8093 190.024 76.7287 216.384 92.4865 229.081Z" fill="white"/>
</mask>
<g mask="url(#mask0_25_638)">
<path d="M137.317 237.265L77.2622 188.869" stroke="url(#paint2_linear_25_638)" stroke-width="1.137" stroke-miterlimit="10"/>
<path d="M125.914 198.925L124.076 226.595" stroke="url(#paint3_linear_25_638)" stroke-width="1.137" stroke-miterlimit="10"/>
<path d="M105.025 182.092L103.188 209.762" stroke="url(#paint4_linear_25_638)" stroke-width="1.137" stroke-miterlimit="10"/>
<path d="M113.077 217.731L82.8899 218.881" stroke="url(#paint5_linear_25_638)" stroke-width="1.137" stroke-miterlimit="10"/>
<path d="M99.139 206.408L78.7388 206.921" stroke="url(#paint6_linear_25_638)" stroke-width="1.137" stroke-miterlimit="10"/>
</g>
<path d="M244.868 201.315C231.866 216.269 204.505 215.64 204.505 215.64C204.505 215.64 198.226 190.766 211.229 175.812C224.232 160.858 251.592 161.487 251.592 161.487C251.592 161.487 257.875 186.361 244.868 201.315Z" fill="url(#paint7_linear_25_638)"/>
<mask id="mask1_25_638" style="mask-type:luminance" maskUnits="userSpaceOnUse" x="202" y="161" width="54" height="62">
<path d="M246.842 206.101L246.842 206.101C240.08 214.406 229.555 218.412 220.654 220.335C216.212 221.294 212.194 221.73 209.288 221.926C207.835 222.024 206.661 222.061 205.851 222.075C205.49 222.081 205.202 222.082 204.993 222.081C204.95 221.878 204.892 221.597 204.824 221.244C204.67 220.451 204.466 219.297 204.264 217.86C203.859 214.983 203.462 210.973 203.491 206.442C203.55 197.361 205.32 186.267 212.081 177.963C218.843 169.659 229.369 165.652 238.27 163.73C242.712 162.771 246.729 162.335 249.635 162.139C251.088 162.041 252.262 162.003 253.072 161.99C253.433 161.984 253.722 161.983 253.93 161.983C253.973 162.186 254.032 162.468 254.1 162.821C254.253 163.614 254.457 164.767 254.66 166.205C255.065 169.082 255.462 173.091 255.433 177.623C255.375 186.703 253.605 197.797 246.842 206.101Z" fill="white" stroke="white"/>
</mask>
<g mask="url(#mask1_25_638)">
<path d="M203.323 217.104L252.884 160.106" stroke="url(#paint8_linear_25_638)" stroke-width="1.217" stroke-miterlimit="10"/>
<path d="M207.988 178.367L214.25 204.538" stroke="url(#paint9_linear_25_638)" stroke-width="1.217" stroke-miterlimit="10"/>
<path d="M225.226 158.542L231.488 184.713" stroke="url(#paint10_linear_25_638)" stroke-width="1.217" stroke-miterlimit="10"/>
<path d="M223.327 194.099L252.387 189.845" stroke="url(#paint11_linear_25_638)" stroke-width="1.217" stroke-miterlimit="10"/>
<path d="M234.815 180.782L254.411 177.655" stroke="url(#paint12_linear_25_638)" stroke-width="1.217" stroke-miterlimit="10"/>
</g>
<path d="M225.802 203.762C212.832 208.504 207.865 225.575 207.865 225.575C207.865 225.575 223.926 234.957 236.893 230.214C249.861 225.471 254.83 208.401 254.83 208.401C254.83 208.401 238.772 199.019 225.802 203.762Z" fill="#243F5E"/>
<path d="M225.802 203.762C212.832 208.504 207.865 225.575 207.865 225.575C207.865 225.575 223.926 234.957 236.893 230.214C249.861 225.471 254.83 208.401 254.83 208.401C254.83 208.401 238.772 199.019 225.802 203.762Z" fill="url(#paint13_linear_25_638)"/>
<mask id="mask2_25_638" style="mask-type:luminance" maskUnits="userSpaceOnUse" x="207" y="202" width="48" height="30">
<path d="M225.802 203.762C212.832 208.504 207.865 225.575 207.865 225.575C207.865 225.575 223.926 234.957 236.893 230.214C249.861 225.471 254.83 208.401 254.83 208.401C254.83 208.401 238.772 199.019 225.802 203.762Z" fill="white"/>
</mask>
<g mask="url(#mask2_25_638)">
<path d="M206.613 225.983L256.049 207.907" stroke="url(#paint14_linear_25_638)" stroke-width="1.137" stroke-miterlimit="10"/>
<path d="M234.478 231.656L217.512 221.998" stroke="url(#paint15_linear_25_638)" stroke-width="1.137" stroke-miterlimit="10"/>
<path d="M251.673 225.368L234.707 215.71" stroke="url(#paint16_linear_25_638)" stroke-width="1.137" stroke-miterlimit="10"/>
<path d="M226.566 218.687L235.266 201.644" stroke="url(#paint17_linear_25_638)" stroke-width="1.137" stroke-miterlimit="10"/>
<path d="M238.098 214.521L244.143 203.085" stroke="url(#paint18_linear_25_638)" stroke-width="1.137" stroke-miterlimit="10"/>
</g>
<path d="M210.517 178.49L222.834 263.525H120.195C120.195 263.525 123.867 242.086 126.45 223.88C127.526 216.24 128.423 209.173 128.764 204.488C128.764 204.419 128.78 204.35 128.78 204.28C107.878 202.886 100.413 199.401 100.413 199.401V154.792L78.7661 149.216C78.7661 149.216 88.8415 119.593 88.4702 112.623C88.4702 106.001 91.8275 74.2296 91.8275 74.2296C101.506 91.802 233.967 90.3888 227.694 71.2901C259.188 117.947 218.872 170.127 210.517 178.49Z" fill="#E8B78B"/>
<path d="M194.649 116.065C196.945 115.763 199.214 115.3 201.437 114.68C204.615 113.764 207.297 114.324 208.315 117.582C209.566 121.999 209.372 126.53 208.949 131.019C208.346 136.561 206.65 142.509 201.973 146.329C199.284 148.525 196.166 150.216 192.79 151.307C196.55 148.931 200.3 146.299 202.623 142.659C205.969 137.183 206.175 130.567 206.287 124.406C206.153 111.977 204.187 117.822 194.651 116.065H194.649Z" fill="url(#paint19_linear_25_638)"/>
<path d="M111.238 114.365C121.481 115.626 129.058 115.023 135.871 107.047C133.468 117.528 119.858 120.086 111.238 114.365Z" fill="url(#paint20_linear_25_638)"/>
<path d="M100.413 179.187C114.738 182.67 125.5 179.993 135.87 170.126C134.4 173.093 132.254 175.724 129.581 177.836C126.908 179.947 123.774 181.488 120.397 182.351C117.02 183.214 113.482 183.378 110.031 182.832C106.579 182.285 103.297 181.041 100.413 179.187Z" fill="url(#paint21_linear_25_638)"/>
<g style="mix-blend-mode:multiply" opacity="0.5">
<path d="M186.854 184.596C173.268 212.992 126.45 223.88 126.45 223.88C127.525 216.24 128.423 209.173 128.764 204.488C158.34 204.21 177.091 192.277 186.854 184.596Z" fill="#E8B78B"/>
</g>
<path d="M128.78 204.28C149.82 202.24 177.471 196.79 189.763 179.202C190.521 177.754 191.067 176.218 191.387 174.634C192.293 171.382 193.189 168.128 194.219 164.897C193.708 169.112 193.138 173.24 192.387 177.427C192.009 179.187 191.234 180.852 190.113 182.311C189.647 182.918 189.023 183.862 188.508 184.421C175.167 200.376 149.437 205.456 128.78 204.278V204.28Z" fill="url(#paint22_linear_25_638)"/>
<path d="M138.519 267.488C138.519 268.804 140.009 269.866 141.843 269.866H240.391C240.513 269.853 240.635 269.886 240.732 269.955C240.829 270.025 240.893 270.127 240.912 270.24V272.895C240.893 273.007 240.829 273.109 240.732 273.179C240.635 273.249 240.513 273.281 240.391 273.268H131.941C130.099 273.268 128.61 272.199 128.61 270.883V253.639C128.61 252.323 130.099 251.261 131.941 251.261H240.391C240.513 251.247 240.636 251.279 240.733 251.349C240.83 251.418 240.895 251.521 240.912 251.635V254.289C240.912 254.491 240.68 254.656 240.391 254.656H141.839C140.008 254.656 138.516 255.725 138.516 257.041L138.519 267.488Z" fill="url(#paint23_linear_25_638)"/>
<path d="M137.556 254.659H236.642V269.869H137.556C136.627 269.869 135.737 269.525 135.081 268.912C134.425 268.299 134.056 267.468 134.056 266.601V257.927C134.056 257.06 134.425 256.229 135.081 255.616C135.737 255.003 136.627 254.659 137.556 254.659Z" fill="#E0E0E0"/>
<g style="mix-blend-mode:multiply">
<path d="M180.282 264.65H134.056V265.746H180.282V264.65Z" fill="#E0E0E0"/>
</g>
<g style="mix-blend-mode:multiply">
<path d="M210.137 261.634H134.056V262.73H210.137V261.634Z" fill="#E0E0E0"/>
</g>
<g style="mix-blend-mode:multiply">
<path d="M230.113 258.874H134.056V259.97H230.113V258.874Z" fill="#E0E0E0"/>
</g>
<g style="mix-blend-mode:multiply">
<path d="M221.192 255.926H144.945V257.022H221.192V255.926Z" fill="#E0E0E0"/>
</g>
<g style="mix-blend-mode:multiply">
<path d="M223.455 264.65H196.997V265.746H223.455V264.65Z" fill="#E0E0E0"/>
</g>
<path d="M243.9 239.842V249.877C243.9 250.64 243.058 251.259 241.337 251.259H130.226C129.953 251.259 129.737 251.162 129.737 251.042V249.502C129.737 249.382 129.953 249.285 130.226 249.285H232.071C233.792 249.285 235.178 248.664 235.178 247.903V241.823C235.178 241.054 233.792 240.433 232.071 240.433H130.228C129.955 240.433 129.739 240.336 129.739 240.216V238.675C129.739 238.556 129.955 238.458 130.228 238.458H241.339C243.058 238.458 243.9 239.079 243.9 239.842Z" fill="black"/>
<path d="M241.513 243.207V246.512C241.512 246.698 241.49 246.884 241.449 247.066C241.314 247.691 240.952 248.254 240.423 248.659C239.895 249.064 239.233 249.285 238.55 249.287H133.735V240.433H238.55C239.223 240.433 239.876 240.649 240.401 241.044C240.925 241.439 241.289 241.989 241.433 242.604C241.488 242.801 241.515 243.003 241.513 243.207Z" fill="#E0E0E0"/>
<g style="mix-blend-mode:multiply">
<path d="M241.515 242.605H197.283V243.701H241.515V242.605Z" fill="#E0E0E0"/>
</g>
<g style="mix-blend-mode:multiply">
<path d="M241.515 244.36H168.716V245.455H241.515V244.36Z" fill="#E0E0E0"/>
</g>
<g style="mix-blend-mode:multiply">
<path d="M241.515 245.967H139.982V247.063H241.515V245.967Z" fill="#E0E0E0"/>
</g>
<g style="mix-blend-mode:multiply">
<path d="M231.095 247.682H148.519V248.778H231.095V247.682Z" fill="#E0E0E0"/>
</g>
<g style="mix-blend-mode:multiply">
<path d="M181.289 242.605H146.354V243.701H181.289V242.605Z" fill="#E0E0E0"/>
</g>
<path d="M116.514 233.012L116.529 245.421L115.849 244.229L115.167 245.423L114.486 244.23L113.809 245.425L113.128 244.232L112.447 245.426L111.766 244.233L111.088 245.427L111.073 233.018L116.514 233.012Z" fill="#A1815D"/>
<g style="mix-blend-mode:multiply">
<path d="M138.155 273.268H131.941C130.099 273.268 128.61 272.199 128.61 270.883V253.639C128.61 252.323 130.099 251.261 131.941 251.261H130.227C129.955 251.261 129.738 251.164 129.738 251.044V249.504C129.738 249.384 129.955 249.287 130.227 249.287H133.735V240.433H130.227C129.955 240.433 129.738 240.336 129.738 240.216V238.675C129.738 238.556 129.955 238.458 130.227 238.458H138.107V240.432L138.123 249.286V251.26L138.131 254.654V259.972L138.14 261.631V265.744L138.147 269.864L138.155 273.268Z" fill="#E0E0E0"/>
</g>
<path d="M134.08 274.981L103.328 275.01L97.6256 275.018L97.5938 245.114L97.5776 233.875L134.024 233.837L134.08 274.981Z" fill="#EEB702"/>
<g style="mix-blend-mode:multiply">
<path d="M134.028 233.838L97.5793 233.876L97.5882 241.317L134.037 241.279L134.028 233.838Z" fill="#E0E0E0"/>
</g>
<path d="M134.322 232.994L96.6726 233.033L96.6824 241.114L134.332 241.074L134.322 232.994Z" fill="#3F3F3F"/>
<path d="M118.727 233.01L118.743 245.419L118.062 244.227L117.38 245.421L116.699 244.228L116.022 245.422L115.342 244.229L114.66 245.423L113.979 244.231L113.301 245.425L113.286 233.016L118.727 233.01Z" fill="black"/>
<g style="mix-blend-mode:multiply">
<path d="M103.344 245.122L103.328 275.01L97.6257 275.018L97.594 245.114L103.344 245.122Z" fill="#E0E0E0"/>
</g>
<path d="M68.0329 231.305C68.8079 227.461 71.1626 223.83 74.8891 221.881C77.0381 220.662 79.4815 219.969 81.9933 219.865C84.187 219.875 86.3564 220.294 88.374 221.098C91.8986 222.421 94.7241 224.985 96.2391 228.238C97.3273 230.981 97.4968 233.968 96.7253 236.803C96.0573 239.556 94.4002 242.382 95.4895 245.251C95.8002 246.07 96.7006 246.966 96.4308 247.883C96.1095 248.972 94.7708 249.321 93.8238 249.786C92.6993 250.34 91.5755 250.895 90.4524 251.452C89.6471 251.851 88.4839 252.702 87.5059 252.36C86.5392 252.066 86.2377 250.87 85.674 250.175C84.1944 248.345 81.5988 247.564 79.3159 247.033C76.7119 246.494 74.299 245.341 72.3068 243.685C70.5129 242.14 69.1768 240.188 68.428 238.019C67.6792 235.85 67.5431 233.537 68.0329 231.305Z" fill="#F0D054"/>
<path d="M93.3134 250.727C93.3134 250.727 89.5678 243.593 87.9389 239.993C87.3781 238.856 86.9671 237.66 86.715 236.431C86.5036 235.379 86.2282 233.064 87.8325 232.819C89.7264 232.531 89.553 235.102 88.7646 236.039C87.8744 236.889 86.6624 237.378 85.3897 237.4C83.5148 237.33 81.8175 235.783 81.2116 234.285C81.1176 234.045 81.1123 233.783 81.1967 233.541C81.281 233.299 81.4501 233.09 81.6767 232.948C81.9034 232.806 82.1746 232.739 82.4468 232.758C82.719 232.777 82.9765 232.88 83.1781 233.052C84.0672 233.784 85.1833 237.526 83.3528 238.569C82.3692 239.1 81.2079 239.267 80.0991 239.036C78.1093 238.654 77.6471 235.592 80.1808 236.446C81.9817 237.052 83.4423 238.846 84.3906 240.31C86.987 244.323 88.9091 247.534 91.4244 251.589" stroke="white" stroke-width="1.043" stroke-miterlimit="10"/>
<path d="M88.9869 253.035L96.5791 249.229L96.1769 248.529L88.5847 252.335L88.9869 253.035Z" fill="#649DE1"/>
<path d="M89.8482 255.748C89.8686 255.641 89.8482 255.531 89.7906 255.436C89.7329 255.341 89.6417 255.268 89.5326 255.229L89.4621 255.206C89.3544 255.168 89.264 255.097 89.206 255.004C89.148 254.911 89.126 254.803 89.1436 254.697L89.1683 254.565C89.1869 254.455 89.1626 254.342 89.0999 254.248C89.0372 254.153 88.9402 254.082 88.8266 254.048C88.7147 254.015 88.6189 253.946 88.5559 253.854C88.4929 253.761 88.4668 253.651 88.482 253.543L88.5398 253.188C88.5502 253.124 88.5763 253.063 88.6162 253.01C88.6561 252.958 88.7085 252.914 88.7695 252.883L96.3127 249.098C96.3736 249.068 96.4413 249.051 96.5104 249.049C96.5795 249.047 96.6481 249.061 96.7108 249.088L97.0595 249.239C97.165 249.287 97.2491 249.368 97.297 249.468C97.345 249.568 97.3537 249.681 97.3216 249.786C97.2892 249.893 97.2989 250.008 97.3489 250.109C97.3989 250.21 97.4859 250.291 97.5943 250.337L97.7225 250.389C97.8268 250.434 97.9116 250.51 97.9628 250.606C98.0141 250.702 98.0287 250.811 98.0044 250.916L97.9839 250.986C97.9582 251.092 97.9729 251.204 98.0257 251.301C98.0784 251.398 98.1658 251.475 98.2728 251.518L98.3714 251.556C98.4806 251.6 98.5694 251.679 98.6218 251.779C98.6742 251.878 98.6869 251.992 98.6575 252.1L98.6427 252.145C98.6099 252.255 98.5541 252.357 98.4785 252.447C98.4029 252.536 98.309 252.61 98.2023 252.666L90.917 256.322C90.8093 256.374 90.6916 256.405 90.5707 256.415C90.4497 256.424 90.328 256.411 90.2125 256.377L90.1638 256.363C90.0516 256.327 89.9569 256.254 89.8967 256.158C89.8366 256.062 89.8149 255.95 89.8355 255.841L89.8482 255.748Z" fill="#87C0EC"/>
<path d="M89.1689 253.967C89.1534 253.956 89.1404 253.941 89.1309 253.925C89.1133 253.895 89.1095 253.859 89.1202 253.826C89.1309 253.792 89.1553 253.764 89.188 253.748L92.7031 251.984C92.7194 251.974 92.7378 251.967 92.757 251.964C92.7762 251.962 92.7959 251.962 92.8148 251.967C92.8336 251.971 92.8513 251.979 92.8666 251.991C92.882 252.002 92.8947 252.016 92.9039 252.032C92.9132 252.048 92.9187 252.066 92.9203 252.084C92.9219 252.102 92.9194 252.12 92.913 252.137C92.9067 252.154 92.8966 252.17 92.8833 252.184C92.8701 252.197 92.8541 252.208 92.8362 252.215L89.3204 253.979C89.2966 253.99 89.2697 253.996 89.2428 253.993C89.216 253.991 89.1903 253.982 89.1689 253.967Z" fill="#649DE1"/>
<path d="M94.251 251.417C94.2326 251.403 94.218 251.386 94.2086 251.366C94.1993 251.346 94.1954 251.324 94.1972 251.303C94.1991 251.281 94.2068 251.26 94.2194 251.242C94.2321 251.223 94.2495 251.208 94.27 251.198L96.2188 250.22C96.2512 250.208 96.2874 250.207 96.3204 250.218C96.3534 250.229 96.3809 250.251 96.3974 250.279C96.414 250.308 96.4184 250.342 96.4099 250.374C96.4014 250.405 96.3805 250.433 96.3513 250.451L94.4024 251.429C94.3786 251.44 94.3517 251.446 94.3248 251.444C94.298 251.441 94.2723 251.432 94.251 251.417Z" fill="#649DE1"/>
<path d="M92.0776 253.544C92.0617 253.533 92.0487 253.519 92.0396 253.502C92.022 253.472 92.0182 253.436 92.0289 253.403C92.0396 253.369 92.0639 253.341 92.0966 253.325L97.1914 250.769C97.2077 250.758 97.2263 250.751 97.2458 250.747C97.2653 250.744 97.2854 250.744 97.3048 250.749C97.3241 250.753 97.3423 250.761 97.358 250.772C97.3738 250.784 97.3868 250.798 97.3962 250.814C97.4056 250.831 97.4112 250.849 97.4126 250.867C97.414 250.886 97.4112 250.905 97.4044 250.922C97.3976 250.939 97.3869 250.955 97.373 250.969C97.3591 250.982 97.3424 250.992 97.3239 250.999L92.2291 253.556C92.2053 253.567 92.1783 253.573 92.1515 253.57C92.1246 253.568 92.099 253.559 92.0776 253.544Z" fill="#649DE1"/>
<path d="M89.6228 254.777C89.6074 254.766 89.5945 254.752 89.5847 254.736C89.5672 254.705 89.5634 254.669 89.5741 254.636C89.5848 254.603 89.6091 254.575 89.6418 254.558L91.1447 253.805C91.1775 253.789 91.2159 253.785 91.2515 253.795C91.2872 253.805 91.3171 253.828 91.3349 253.858C91.3521 253.889 91.3558 253.925 91.3449 253.958C91.3341 253.991 91.3098 254.019 91.2771 254.035L89.775 254.789C89.7511 254.801 89.724 254.806 89.697 254.804C89.67 254.802 89.6442 254.793 89.6228 254.777Z" fill="#649DE1"/>
<path d="M94.4001 253.416C94.3846 253.405 94.3716 253.391 94.3621 253.375C94.3445 253.344 94.3407 253.308 94.3514 253.275C94.3621 253.242 94.3864 253.214 94.4191 253.197L97.1451 251.83C97.1615 251.819 97.18 251.812 97.1995 251.809C97.2191 251.805 97.2392 251.806 97.2585 251.81C97.2778 251.814 97.296 251.822 97.3117 251.834C97.3275 251.845 97.3405 251.859 97.3499 251.876C97.3593 251.892 97.3649 251.91 97.3663 251.929C97.3678 251.947 97.365 251.966 97.3581 251.983C97.3513 252.001 97.3406 252.016 97.3267 252.03C97.3128 252.043 97.2961 252.053 97.2776 252.06L94.5523 253.428C94.5284 253.44 94.5013 253.445 94.4744 253.443C94.4474 253.441 94.4216 253.432 94.4001 253.416Z" fill="#649DE1"/>
<path d="M91.5247 254.86C91.5093 254.848 91.4964 254.834 91.4867 254.818C91.4692 254.787 91.4655 254.752 91.4763 254.718C91.4871 254.685 91.5116 254.657 91.5444 254.641L92.6394 254.091C92.6723 254.074 92.7108 254.071 92.7464 254.081C92.7821 254.091 92.812 254.114 92.8296 254.145C92.8469 254.175 92.8505 254.211 92.8396 254.244C92.8288 254.277 92.8045 254.305 92.7718 254.322L91.6769 254.872C91.653 254.883 91.6259 254.889 91.5989 254.886C91.572 254.884 91.5462 254.875 91.5247 254.86Z" fill="#649DE1"/>
<path d="M93.3681 251.86C93.3497 251.847 93.3352 251.829 93.3258 251.809C93.3165 251.79 93.3125 251.768 93.3144 251.746C93.3163 251.724 93.324 251.703 93.3366 251.685C93.3493 251.667 93.3667 251.652 93.3872 251.641L93.7817 251.444C93.7981 251.434 93.8165 251.427 93.8359 251.424C93.8552 251.421 93.8751 251.421 93.8941 251.426C93.9132 251.43 93.931 251.438 93.9465 251.45C93.962 251.461 93.9747 251.475 93.984 251.491C93.9933 251.507 93.9988 251.525 94.0003 251.544C94.0018 251.562 93.9992 251.58 93.9926 251.597C93.986 251.615 93.9756 251.631 93.9621 251.644C93.9486 251.657 93.9323 251.668 93.9142 251.675L93.5196 251.872C93.4958 251.884 93.4689 251.889 93.442 251.887C93.4152 251.885 93.3895 251.876 93.3681 251.86Z" fill="#649DE1"/>
<g style="mix-blend-mode:multiply">
<path d="M68.033 231.305C68.808 227.461 71.1627 223.83 74.8892 221.881C75.3119 221.659 75.7509 221.446 76.1969 221.248C70.3715 224.615 67.9667 232.121 71.5467 237.904C74.558 242.766 79.1737 244.994 85.765 244.473C86.4106 244.369 87.0746 244.434 87.6829 244.661C88.2913 244.888 88.8203 245.268 89.2111 245.759C90.0122 246.783 90.2835 248.091 91.1642 249.071C91.288 249.227 91.4554 249.349 91.6482 249.422C91.8351 249.467 92.0305 249.47 92.2189 249.431C93.7845 249.186 95.2525 248.558 96.4731 247.61C96.4687 247.702 96.4538 247.793 96.4288 247.881C96.1075 248.971 94.7688 249.32 93.8218 249.785C92.6973 250.339 91.5735 250.894 90.4504 251.451C89.6451 251.85 88.4818 252.701 87.5039 252.359C86.5372 252.064 86.2357 250.868 85.672 250.174C84.1924 248.343 81.5967 247.562 79.3139 247.032C76.7099 246.492 74.297 245.34 72.3048 243.683C70.5115 242.138 69.1759 240.187 68.4275 238.018C67.6791 235.849 67.5432 233.537 68.033 231.305Z" fill="#F0D054"/>
</g>
<path d="M69.3408 245.683L69.3052 275.032L101.384 275.066L101.419 245.717L69.3408 245.683Z" fill="#EEB702"/>
<g style="mix-blend-mode:multiply" opacity="0.2">
<path d="M192.707 73.4572C177.407 74.5098 157.698 87.2322 168.233 112.176C168.333 114.369 169.914 115.774 171.347 115.194C172.779 114.614 170.976 110.628 170.976 110.628C171.212 91.2362 175.555 87.4296 183.622 86.6533L202.514 84.6349C207.262 84.7875 216.119 86.9467 219.234 102.124L224.036 102.441C223.073 91.3441 217.809 71.7276 192.707 73.4572Z" fill="#5E749C"/>
</g>
<path d="M192.437 71.2164C177.137 72.269 157.428 84.9921 167.963 109.936L170.706 108.388C170.942 88.9954 175.286 85.1888 183.352 84.4131L202.245 82.394C206.992 82.5467 216.175 85.5026 219.29 100.68L223.766 100.201C222.803 89.1033 217.539 69.4874 192.437 71.2164Z" fill="black"/>
<path d="M189.372 71.9625L187.667 76.844C187.667 76.844 188.252 79.4316 190.994 79.0881C193.737 78.7447 193.961 77.5217 193.961 77.5217L193.68 72.1519L189.372 71.9625Z" fill="#ECB7A1"/>
<path d="M200.537 66.869C198.47 71.398 197.487 72.8427 194.191 73.8361C189.923 75.1237 184.694 72.8868 186.155 65.8684C187.346 60.1447 190.259 60.7019 193.037 60.6216C195.814 60.5414 202.771 61.9762 200.537 66.869Z" fill="#ECB7A1"/>
<path d="M189.884 64.5848C189.508 64.4857 189.109 64.4993 188.742 64.6238C188.376 64.7482 188.06 64.9772 187.84 65.2782C187.594 65.5735 187.433 65.9236 187.375 66.2942C187.317 66.6648 187.363 67.0431 187.509 67.3921C186.985 67.4758 186.517 67.7501 186.208 68.155C185.9 68.5599 185.776 69.0624 185.863 69.5526C184.952 68.0565 185.146 66.3809 184.806 64.7881C184.465 63.1953 184.449 61.4263 185.417 60.0776C185.828 59.5306 186.346 59.0618 186.945 58.696C188.072 57.988 189.36 57.536 190.707 57.3761C192.054 57.2161 193.423 57.3527 194.704 57.7749C195.818 58.2739 197.097 58.3478 198.27 57.9808C201.511 56.8802 203.707 58.7776 201.944 60.9552C202.632 61.0276 203.263 61.3462 203.705 61.844C203.759 61.9095 203.793 61.9866 203.805 62.068C203.818 62.1494 203.808 62.2325 203.776 62.3091C203.708 62.405 203.609 62.478 203.494 62.5177C202.952 62.7536 202.356 62.8613 201.759 62.8315C202.004 62.9861 203.247 62.9256 203.701 63.5552C204.907 65.2361 200.868 64.7473 200.249 64.6309C200.948 64.6789 202.904 65.8282 202.439 66.8065C202.348 67 200.082 68.573 197.202 66.0769C196.553 65.4607 195.722 65.0382 194.816 64.8631C194.095 64.8354 193.383 65.0164 192.777 65.3815C192.31 65.6032 191.153 66.4394 190.746 66.0565C190.3 65.6348 190.719 64.8703 189.884 64.5848Z" fill="#1B2841"/>
<path d="M219.773 100.633C219.358 102.874 218.701 103.161 219.561 103.421C220.422 103.681 220.937 102.395 220.937 102.395L224.801 102.7C224.801 102.7 223.674 100.497 223.044 100.283C222.414 100.068 219.773 100.633 219.773 100.633Z" fill="#ECB7A1"/>
<path d="M170.706 108.388C171.341 109.481 171.474 109.474 172.327 110.778C173.958 113.271 171.379 117.752 168.921 113.41C168.428 112.299 168.105 111.128 167.962 109.933L170.706 108.388Z" fill="#ECB7A1"/>
<path d="M218.852 108.228C219.36 107.026 219.527 105.722 219.336 104.443C219.145 103.163 218.603 101.951 217.763 100.925L231.59 103.52L228.808 116.442C230.11 115.524 231.681 114.997 233.311 114.932C234.941 114.867 236.553 115.266 237.935 116.077C239.316 116.887 240.401 118.071 241.045 119.471C241.688 120.871 241.861 122.421 241.539 123.914C241.218 125.408 240.418 126.775 239.244 127.834C238.071 128.892 236.581 129.593 234.972 129.842C233.362 130.092 231.709 129.878 230.233 129.23C228.756 128.581 227.526 127.529 226.705 126.213L223.924 139.134L193.858 133.491C191.716 133.089 189.834 131.909 188.624 130.211C187.414 128.513 186.976 126.435 187.406 124.436L193.45 96.3619L207.354 98.9717C206.242 99.5708 205.3 100.41 204.607 101.418C203.913 102.427 203.488 103.576 203.368 104.769C203.247 105.962 203.434 107.165 203.913 108.277C204.392 109.389 205.149 110.378 206.121 111.16C207.094 111.943 208.252 112.497 209.501 112.776C210.749 113.055 212.051 113.051 213.297 112.764C214.543 112.478 215.698 111.916 216.664 111.127C217.631 110.339 218.381 109.345 218.852 108.23V108.228Z" fill="#EEB702"/>
<path d="M233.231 152.274L231.523 155.48L235.697 157.075L236.142 153.382L233.231 152.274Z" fill="#ECB7A1"/>
<path d="M235.751 141.837C226.284 145.685 230.163 155.012 235.926 153.917C238.731 153.384 240.153 144.95 240.153 144.95L235.751 141.837Z" fill="#ECB7A1"/>
<path d="M238.896 140.507C238.633 139.942 238.253 139.432 237.776 139.005C237.532 138.799 237.219 138.677 236.889 138.661C236.56 138.645 236.235 138.735 235.969 138.917C235.335 139.47 235.706 140.505 236.35 141.049C235.795 141.115 235.136 140.754 234.73 141.111C234.42 141.38 234.528 141.859 234.705 142.219C235.127 143.069 235.8 143.789 236.645 144.295C236.165 144.549 235.608 145.042 235.896 145.479C235.975 145.601 236.107 145.685 236.188 145.808C236.371 146.094 236.195 146.457 236.009 146.742C235.71 147.202 235.389 147.648 235.045 148.08C235.14 147.992 235.258 147.926 235.386 147.888C235.515 147.851 235.651 147.842 235.784 147.864C235.917 147.885 236.042 147.936 236.149 148.012C236.257 148.088 236.343 148.187 236.402 148.3C236.497 148.543 236.517 148.806 236.457 149.058C236.397 149.311 236.261 149.542 236.064 149.724C235.865 149.945 235.598 150.104 235.3 150.18C235.04 150.236 233.891 153.548 234.788 154.197C235.894 154.999 239.657 154.302 240.201 153.396C240.453 153.689 240.781 153.917 241.153 154.061C241.524 154.205 241.929 154.259 242.329 154.219C242.523 154.186 242.706 154.112 242.865 154.003C243.025 153.895 243.155 153.754 243.248 153.591C243.341 153.429 243.393 153.249 243.401 153.065C243.409 152.881 243.372 152.698 243.294 152.529C243.723 152.677 244.19 152.697 244.632 152.587C245.074 152.476 245.468 152.241 245.761 151.913C246.054 151.585 246.23 151.181 246.267 150.755C246.303 150.329 246.198 149.904 245.965 149.536C246.428 149.405 246.522 148.819 246.404 148.38C246.278 147.936 246.032 147.53 245.688 147.2C245.345 146.871 244.917 146.63 244.444 146.5C244.684 146.48 244.906 146.378 245.069 146.214C245.232 146.049 245.324 145.834 245.327 145.61C245.315 145.158 245.127 144.726 244.799 144.394C244.396 143.953 243.898 143.595 243.337 143.345C242.776 143.095 242.166 142.958 241.544 142.942C240.214 142.788 239.486 141.526 238.896 140.507Z" fill="#243F5E"/>
<path d="M230.024 235.139C230.024 235.139 224.485 237.623 223.741 238.396C223.741 238.396 234.64 238.857 235.493 238.374C236.345 237.891 233.748 235.132 233.748 235.132L230.024 235.139Z" fill="#1B2841"/>
<path d="M250.631 232.331C250.631 232.331 245.761 235.831 245.205 236.733C245.205 236.733 256.698 235.139 256.698 234.439C256.698 233.738 254.272 231.604 254.272 231.604L250.631 232.331Z" fill="#1B2841"/>
<path d="M235.38 187.184C235.175 188.236 227.591 216.193 249.291 232.954L255.577 231.608C255.577 231.608 248.262 225.201 244.814 213.671C241.553 202.769 244.143 201.698 246.098 195.694C248.262 189.049 246.653 184.222 246.653 184.222L235.38 187.184Z" fill="#2C635B"/>
<path d="M225.008 187.1C221.569 194.777 215.662 220.939 228.531 235.67L234.959 235.658C234.959 235.658 229.896 230.476 229.33 218.454C228.764 206.431 232.037 201.151 234.346 197.186C236.654 193.222 238.791 186.478 238.791 186.478L225.008 187.1Z" fill="#37756E"/>
<path d="M220.472 139.506C218.765 145.128 218.203 155.515 226.757 159.7L232.482 158.396C232.482 158.396 222.161 153.344 224.372 140.574L220.472 139.506Z" fill="#E8E8E8"/>
<path d="M204.7 136.628L209.144 136.117C209.144 136.117 208.609 153.542 230.162 155.009C246.614 156.128 247.906 184.958 247.906 184.958C242.602 188.292 233.7 189.3 222.294 188.538C222.294 188.538 223.024 167.972 221.212 162.342C221.212 162.342 203.305 157.081 204.7 136.628Z" fill="white"/>
<path d="M199.266 133.466C198.515 134.28 201.655 135.312 204.7 136.628L208.601 136.179C208.628 135.684 208.628 135.188 208.601 134.694C208.552 133.935 208.145 133.503 207.685 134.153C207.225 134.804 205.25 135.025 204.321 134.431C203.392 133.837 200.019 132.651 199.266 133.466Z" fill="#ECB7A1"/>
<path d="M220.472 139.506C219.043 138.194 219.422 138.274 219.422 138.274L223.781 139.195C223.781 139.195 224.74 137.209 225.552 137.155C226.363 137.101 224.94 138.524 225.265 139.052C225.591 139.58 224.372 140.577 224.372 140.577L220.472 139.506Z" fill="#ECB7A1"/>
<defs>
<linearGradient id="paint0_linear_25_638" x1="145.326" y1="48.1196" x2="145.326" y2="93.9809" gradientUnits="userSpaceOnUse">
<stop stop-color="#233E8B"/>
<stop offset="1" stop-color="#242A6B"/>
</linearGradient>
<linearGradient id="paint1_linear_25_638" x1="107.337" y1="188.714" x2="107.337" y2="237.314" gradientUnits="userSpaceOnUse">
<stop stop-color="#233E8B"/>
<stop offset="1" stop-color="#242A6B"/>
</linearGradient>
<linearGradient id="paint2_linear_25_638" x1="107.289" y1="188.869" x2="107.289" y2="237.265" gradientUnits="userSpaceOnUse">
<stop stop-color="#233E8B"/>
<stop offset="1" stop-color="#242A6B"/>
</linearGradient>
<linearGradient id="paint3_linear_25_638" x1="124.995" y1="198.925" x2="124.995" y2="226.595" gradientUnits="userSpaceOnUse">
<stop stop-color="#233E8B"/>
<stop offset="1" stop-color="#242A6B"/>
</linearGradient>
<linearGradient id="paint4_linear_25_638" x1="104.106" y1="182.092" x2="104.106" y2="209.762" gradientUnits="userSpaceOnUse">
<stop stop-color="#233E8B"/>
<stop offset="1" stop-color="#242A6B"/>
</linearGradient>
<linearGradient id="paint5_linear_25_638" x1="97.9833" y1="217.731" x2="97.9833" y2="218.881" gradientUnits="userSpaceOnUse">
<stop stop-color="#233E8B"/>
<stop offset="1" stop-color="#242A6B"/>
</linearGradient>
<linearGradient id="paint6_linear_25_638" x1="88.9389" y1="206.408" x2="88.9389" y2="206.921" gradientUnits="userSpaceOnUse">
<stop stop-color="#233E8B"/>
<stop offset="1" stop-color="#242A6B"/>
</linearGradient>
<linearGradient id="paint7_linear_25_638" x1="228.049" y1="161.483" x2="228.049" y2="215.644" gradientUnits="userSpaceOnUse">
<stop stop-color="#233E8B"/>
<stop offset="1" stop-color="#242A6B"/>
</linearGradient>
<linearGradient id="paint8_linear_25_638" x1="228.104" y1="160.106" x2="228.104" y2="217.104" gradientUnits="userSpaceOnUse">
<stop stop-color="#233E8B"/>
<stop offset="1" stop-color="#242A6B"/>
</linearGradient>
<linearGradient id="paint9_linear_25_638" x1="211.119" y1="178.367" x2="211.119" y2="204.538" gradientUnits="userSpaceOnUse">
<stop stop-color="#233E8B"/>
<stop offset="1" stop-color="#242A6B"/>
</linearGradient>
<linearGradient id="paint10_linear_25_638" x1="228.357" y1="158.542" x2="228.357" y2="184.713" gradientUnits="userSpaceOnUse">
<stop stop-color="#233E8B"/>
<stop offset="1" stop-color="#242A6B"/>
</linearGradient>
<linearGradient id="paint11_linear_25_638" x1="237.857" y1="189.845" x2="237.857" y2="194.099" gradientUnits="userSpaceOnUse">
<stop stop-color="#233E8B"/>
<stop offset="1" stop-color="#242A6B"/>
</linearGradient>
<linearGradient id="paint12_linear_25_638" x1="244.613" y1="177.655" x2="244.613" y2="180.782" gradientUnits="userSpaceOnUse">
<stop stop-color="#233E8B"/>
<stop offset="1" stop-color="#242A6B"/>
</linearGradient>
<linearGradient id="paint13_linear_25_638" x1="231.348" y1="202.423" x2="231.348" y2="231.553" gradientUnits="userSpaceOnUse">
<stop stop-color="#233E8B"/>
<stop offset="1" stop-color="#242A6B"/>
</linearGradient>
<linearGradient id="paint14_linear_25_638" x1="231.331" y1="207.907" x2="231.331" y2="225.983" gradientUnits="userSpaceOnUse">
<stop stop-color="#233E8B"/>
<stop offset="1" stop-color="#242A6B"/>
</linearGradient>
<linearGradient id="paint15_linear_25_638" x1="225.995" y1="221.998" x2="225.995" y2="231.656" gradientUnits="userSpaceOnUse">
<stop stop-color="#233E8B"/>
<stop offset="1" stop-color="#242A6B"/>
</linearGradient>
<linearGradient id="paint16_linear_25_638" x1="243.19" y1="215.71" x2="243.19" y2="225.368" gradientUnits="userSpaceOnUse">
<stop stop-color="#233E8B"/>
<stop offset="1" stop-color="#242A6B"/>
</linearGradient>
<linearGradient id="paint17_linear_25_638" x1="230.916" y1="201.644" x2="230.916" y2="218.687" gradientUnits="userSpaceOnUse">
<stop stop-color="#233E8B"/>
<stop offset="1" stop-color="#242A6B"/>
</linearGradient>
<linearGradient id="paint18_linear_25_638" x1="241.12" y1="203.085" x2="241.12" y2="214.521" gradientUnits="userSpaceOnUse">
<stop stop-color="#233E8B"/>
<stop offset="1" stop-color="#242A6B"/>
</linearGradient>
<linearGradient id="paint19_linear_25_638" x1="201.03" y1="114.284" x2="201.03" y2="151.307" gradientUnits="userSpaceOnUse">
<stop stop-color="#233E8B"/>
<stop offset="1" stop-color="#242A6B"/>
</linearGradient>
<linearGradient id="paint20_linear_25_638" x1="123.555" y1="107.047" x2="123.555" y2="117.345" gradientUnits="userSpaceOnUse">
<stop stop-color="#233E8B"/>
<stop offset="1" stop-color="#242A6B"/>
</linearGradient>
<linearGradient id="paint21_linear_25_638" x1="118.142" y1="170.126" x2="118.142" y2="183.148" gradientUnits="userSpaceOnUse">
<stop stop-color="#233E8B"/>
<stop offset="1" stop-color="#242A6B"/>
</linearGradient>
<linearGradient id="paint22_linear_25_638" x1="161.499" y1="164.897" x2="161.499" y2="204.441" gradientUnits="userSpaceOnUse">
<stop stop-color="#233E8B"/>
<stop offset="1" stop-color="#242A6B"/>
</linearGradient>
<linearGradient id="paint23_linear_25_638" x1="184.761" y1="251.258" x2="184.761" y2="273.271" gradientUnits="userSpaceOnUse">
<stop stop-color="#233E8B"/>
<stop offset="1" stop-color="#242A6B"/>
</linearGradient>
</defs>
</svg>
