<svg width="19" height="19" viewBox="0 0 19 19" fill="none" xmlns="http://www.w3.org/2000/svg">
<g id="Layer_1" clip-path="url(#clip0_73_3378)">
<path id="Vector" d="M1.78212 19C1.5353 18.9267 1.28049 18.8777 1.05479 18.743C0.359728 18.3281 0.00300412 17.717 0.00201267 16.9078C-0.000928659 14.5338 -0.00127548 12.1597 0.000971828 9.78563C0.000971828 8.2276 -0.00219963 6.66961 0.00221236 5.11148C0.00498844 4.12976 0.637932 3.32827 1.57808 3.10056C1.74678 3.06161 1.91953 3.04299 2.09265 3.04509C4.76998 3.04605 7.44733 3.04633 10.1247 3.04593C10.5056 3.04593 10.7571 3.26373 10.7616 3.59434C10.766 3.93139 10.5101 4.15846 10.1209 4.15856C7.46828 4.15902 4.81566 4.15912 2.16304 4.15886C1.47854 4.15886 1.11423 4.52535 1.11423 5.21418C1.11423 9.0906 1.11423 12.967 1.11423 16.8434C1.11423 17.5164 1.48439 17.8867 2.15724 17.8867C6.04045 17.8869 9.92355 17.8869 13.8065 17.8867C14.4682 17.8867 14.8437 17.5137 14.8437 16.8565C14.844 14.2166 14.8442 11.5766 14.8442 8.93665C14.8401 8.85642 14.8435 8.77597 14.8541 8.69635C14.88 8.56142 14.9544 8.44064 15.0633 8.35684C15.1721 8.27305 15.3079 8.23206 15.445 8.24162C15.582 8.25326 15.7099 8.31511 15.8041 8.41528C15.8983 8.51545 15.9521 8.64688 15.9553 8.78433C15.962 8.97576 15.9569 9.16763 15.9569 9.35931C15.9569 11.8571 15.9451 14.3549 15.9619 16.8525C15.9702 18.0687 15.0861 18.8713 14.2227 18.9735C14.2062 18.9755 14.1913 18.9908 14.1755 18.9999L1.78212 19Z" fill="#1E2819"/>
<path id="Vector_2" d="M19 2.56354C18.905 2.96588 18.6419 3.25188 18.3584 3.53456C15.6878 6.19758 13.0207 8.86428 10.3574 11.5346C10.2006 11.7009 9.99493 11.8128 9.7702 11.8542C8.9631 12.005 8.15942 12.1741 7.35341 12.331C6.90562 12.4181 6.58305 12.0957 6.66995 11.6519C6.83483 10.8098 7.00343 9.96838 7.1698 9.12653C7.19987 8.9744 7.27602 8.8352 7.38792 8.72782C10.1569 5.96199 12.925 3.19524 15.6923 0.42756C16.2654 -0.145036 17.0415 -0.140922 17.62 0.431823C17.8749 0.684118 18.1209 0.945632 18.3827 1.19019C18.6724 1.46098 18.9145 1.75664 19 2.15536V2.56354ZM7.9363 10.9762C7.92931 11.1267 8.03985 11.0614 8.09884 11.0502C8.54148 10.9665 8.98273 10.8756 9.42462 10.7875C9.50943 10.7726 9.5875 10.7317 9.64795 10.6704C11.8577 8.4577 14.0693 6.24685 16.2828 4.03786C16.3805 3.94051 16.3627 3.89134 16.2749 3.80574C15.9121 3.45198 15.5523 3.0949 15.2004 2.73014C15.103 2.62922 15.0524 2.63289 14.9546 2.73088C12.7506 4.94054 10.5445 7.14814 8.3363 9.3537C8.29793 9.39207 8.24999 9.42369 8.23785 9.48406C8.13806 9.98052 8.03737 10.4764 7.93619 10.9762H7.9363ZM16.6531 1.11798C16.6283 1.11706 16.6035 1.1215 16.5804 1.13099C16.5574 1.14048 16.5367 1.15481 16.5197 1.173C16.3218 1.36809 16.1281 1.5673 15.9283 1.76056C15.8589 1.82762 15.9025 1.86356 15.9485 1.90926C16.3289 2.2886 16.7101 2.66734 17.0873 3.04984C17.1525 3.11596 17.1938 3.12915 17.2641 3.0548C17.4382 2.87105 17.6198 2.6944 17.8 2.5166C17.916 2.4021 17.9104 2.29489 17.796 2.18163C17.467 1.85563 17.1406 1.527 16.8128 1.19991C16.7935 1.17568 16.7693 1.15584 16.7417 1.14171C16.7142 1.12758 16.684 1.11949 16.653 1.11798H16.6531Z" fill="#1E2819"/>
</g>
<defs>
<clipPath id="clip0_73_3378">
<rect width="19" height="19" fill="white"/>
</clipPath>
</defs>
</svg>
