<svg width="19" height="20" viewBox="0 0 19 20" fill="none" xmlns="http://www.w3.org/2000/svg">
<g id="Layer_1" clip-path="url(#clip0_227_57)">
<path id="Vector" d="M4.46918 0.82431C5.13556 0.844531 5.85596 0.854186 6.56559 1.01649C7.69953 1.27587 8.40659 1.96939 8.62925 3.10379C8.90529 4.50523 8.90591 5.94705 8.63108 7.34872C8.40691 8.50345 7.68924 9.21842 6.53477 9.44686C5.17335 9.71392 3.7738 9.72156 2.40954 9.46939C1.07288 9.22727 0.367 8.46982 0.149432 7.0829C-0.0575721 5.81947 -0.0494531 4.53009 0.173445 3.26937C0.425051 1.88926 1.24494 1.13556 2.63606 0.941559C3.24405 0.864123 3.85629 0.824963 4.46918 0.82431ZM1.29061 5.31065C1.28186 5.80083 1.3093 6.29099 1.37272 6.77712C1.4951 7.71838 1.84351 8.10193 2.77709 8.25447C3.82887 8.42007 4.89949 8.42731 5.95341 8.27593C6.97597 8.13588 7.30417 7.81466 7.45656 6.78549C7.61673 5.73194 7.61209 4.65988 7.44283 3.60776C7.28691 2.65802 6.96578 2.32805 6.02325 2.19713C4.9137 2.0433 3.7968 2.03123 2.68827 2.22325C1.88323 2.3627 1.56735 2.69525 1.40987 3.49813C1.29726 4.07278 1.28675 4.65366 1.29077 5.31065H1.29061Z" fill="#EEB702"/>
<path id="Vector_2" d="M14.5097 0.823975C15.1847 0.845429 15.898 0.856425 16.6016 1.01503C17.7931 1.28358 18.4735 2.03481 18.7028 3.21293C18.8776 4.1108 18.8831 5.02009 18.8444 5.93051C18.8323 6.42495 18.7736 6.91713 18.6691 7.40052C18.4098 8.50623 17.7318 9.2087 16.6249 9.43741C15.2367 9.72425 13.8328 9.71197 12.4405 9.46911C11.2101 9.25456 10.4479 8.50365 10.23 7.26772C9.98317 5.86754 9.96736 4.45557 10.2605 3.06146C10.52 1.82783 11.3633 1.12659 12.6718 0.942243C13.2692 0.858088 13.8691 0.835292 14.5097 0.823975ZM17.5907 5.17076C17.5988 4.67458 17.5713 4.17847 17.5086 3.68622C17.3868 2.75793 17.0637 2.39782 16.1453 2.21251C15.5056 2.08341 14.8558 2.09821 14.2075 2.10084C13.652 2.10309 13.1007 2.13441 12.5557 2.25767C11.963 2.39176 11.6169 2.7538 11.4843 3.34021C11.4053 3.71974 11.3589 4.10535 11.3456 4.4928C11.3031 5.30935 11.3106 6.12446 11.4461 6.93324C11.5819 7.74433 11.9532 8.10739 12.7585 8.25173C13.1011 8.30906 13.4472 8.34338 13.7944 8.35444C14.5901 8.38925 15.3851 8.38362 16.1731 8.24829C16.9722 8.11115 17.3148 7.76557 17.4711 6.96521C17.5835 6.39044 17.5937 5.80951 17.5907 5.17076Z" fill="#EEB702"/>
<path id="Vector_3" d="M4.38971 19.688C3.70045 19.666 2.97999 19.6575 2.27041 19.4943C1.0818 19.2207 0.402448 18.4688 0.176517 17.2889C0.00322319 16.3836 -0.00245699 15.4683 0.0381194 14.5511C0.0517362 14.0702 0.109294 13.5915 0.210074 13.1211C0.469452 11.9955 1.16145 11.2914 2.28585 11.0691C3.69266 10.7902 5.14043 10.7897 6.54744 11.0675C7.67592 11.288 8.39203 11.9901 8.62182 13.1164C8.90943 14.5094 8.91534 15.9459 8.63919 17.3411C8.37316 18.6844 7.55778 19.3816 6.19978 19.5701C5.59924 19.6448 4.99485 19.6841 4.38971 19.688ZM1.29004 15.204C1.28779 15.9243 1.30076 16.5717 1.45191 17.2086C1.58592 17.7725 1.92897 18.1161 2.49227 18.2496C2.80391 18.3248 3.12198 18.3703 3.4422 18.3856C4.35739 18.4257 5.27215 18.4516 6.18081 18.2883C6.8489 18.1683 7.27192 17.8078 7.40801 17.1206C7.48153 16.7334 7.52564 16.3412 7.53998 15.9473C7.57568 15.1512 7.56421 14.3565 7.43562 13.5669C7.32155 12.8661 6.95492 12.4068 6.22851 12.2858C5.02734 12.0827 3.80054 12.0837 2.59968 12.2887C1.90361 12.4076 1.53467 12.838 1.41198 13.5173C1.31862 14.0746 1.27779 14.6393 1.29004 15.2042V15.204Z" fill="#EEB702"/>
<path id="Vector_4" d="M14.4658 19.6877C13.7111 19.67 12.9553 19.6619 12.2175 19.4719C11.1336 19.193 10.4634 18.4982 10.2511 17.4062C9.97678 16.0046 9.97651 14.5631 10.2503 13.1614C10.4745 12.0057 11.1943 11.2895 12.3484 11.0654C13.7426 10.7936 15.1761 10.7931 16.5706 11.0639C17.7838 11.2973 18.4748 12.0737 18.7044 13.2718C18.8766 14.1703 18.8822 15.079 18.8443 15.9895C18.8228 16.5044 18.7816 17.0166 18.654 17.5178C18.3616 18.6663 17.6042 19.3066 16.4608 19.5292C15.8012 19.6576 15.1338 19.6716 14.4658 19.6877ZM17.5908 15.2249C17.5989 14.7277 17.5716 14.2306 17.5089 13.7374C17.3925 12.8467 17.0754 12.4341 16.2451 12.2851C15.0255 12.0637 13.7753 12.0715 12.5585 12.3083C12.0251 12.4122 11.6557 12.7257 11.5216 13.2733C11.4722 13.4534 11.434 13.6363 11.4071 13.8211C11.2872 14.7915 11.2878 15.773 11.4088 16.7433C11.5569 17.8766 11.9104 18.17 12.8556 18.3112C13.961 18.4819 15.0866 18.4743 16.1897 18.2887C16.9937 18.1501 17.3159 17.8117 17.4707 17.0162C17.5831 16.4415 17.594 15.8607 17.5907 15.2249H17.5908Z" fill="#EEB702"/>
</g>
<defs>
<clipPath id="clip0_227_57">
<rect width="18.864" height="18.864" fill="white" transform="translate(0 0.823975)"/>
</clipPath>
</defs>
</svg>
