<svg width="330" height="330" viewBox="0 0 330 330" fill="none" xmlns="http://www.w3.org/2000/svg">
<circle cx="165" cy="165" r="165" fill="url(#paint0_linear_66_864)"/>
<circle cx="165.412" cy="164.587" r="150.562" fill="#E0E0E0"/>
<path d="M294.035 242.305C282.734 261.33 267.379 277.629 249.062 290.044C230.746 302.459 209.918 310.684 188.061 314.134C166.204 317.584 143.855 316.173 122.605 310.003C101.355 303.833 81.7262 293.055 65.1155 278.436C48.5048 263.817 35.3206 245.717 26.5011 225.423C17.6816 205.129 13.4437 183.14 14.0889 161.022C14.7342 138.904 20.2467 117.2 30.2342 97.4546C40.2217 77.7092 54.4387 60.408 71.8733 46.7821L164.587 165.412L294.035 242.305Z" fill="#EEB702"/>
<g filter="url(#filter0_d_66_864)">
<circle cx="164.175" cy="165.825" r="127.875" fill="#F7F7F7"/>
</g>
<g filter="url(#filter1_dd_66_864)">
<circle cx="165" cy="165.825" r="103.125" fill="#EEEEEE"/>
</g>
<defs>
<filter id="filter0_d_66_864" x="15.3" y="16.95" width="305.75" height="305.75" filterUnits="userSpaceOnUse" color-interpolation-filters="sRGB">
<feFlood flood-opacity="0" result="BackgroundImageFix"/>
<feColorMatrix in="SourceAlpha" type="matrix" values="0 0 0 0 0 0 0 0 0 0 0 0 0 0 0 0 0 0 127 0" result="hardAlpha"/>
<feMorphology radius="5" operator="dilate" in="SourceAlpha" result="effect1_dropShadow_66_864"/>
<feOffset dx="4" dy="4"/>
<feGaussianBlur stdDeviation="10"/>
<feComposite in2="hardAlpha" operator="out"/>
<feColorMatrix type="matrix" values="0 0 0 0 0.137255 0 0 0 0 0 0 0 0 0 0.298039 0 0 0 0.25 0"/>
<feBlend mode="normal" in2="BackgroundImageFix" result="effect1_dropShadow_66_864"/>
<feBlend mode="normal" in="SourceGraphic" in2="effect1_dropShadow_66_864" result="shape"/>
</filter>
<filter id="filter1_dd_66_864" x="49.875" y="50.7" width="230.25" height="230.25" filterUnits="userSpaceOnUse" color-interpolation-filters="sRGB">
<feFlood flood-opacity="0" result="BackgroundImageFix"/>
<feColorMatrix in="SourceAlpha" type="matrix" values="0 0 0 0 0 0 0 0 0 0 0 0 0 0 0 0 0 0 127 0" result="hardAlpha"/>
<feOffset dx="2" dy="2"/>
<feGaussianBlur stdDeviation="5"/>
<feComposite in2="hardAlpha" operator="out"/>
<feColorMatrix type="matrix" values="0 0 0 0 0.819608 0 0 0 0 0.819608 0 0 0 0 0.819608 0 0 0 0.25 0"/>
<feBlend mode="normal" in2="BackgroundImageFix" result="effect1_dropShadow_66_864"/>
<feColorMatrix in="SourceAlpha" type="matrix" values="0 0 0 0 0 0 0 0 0 0 0 0 0 0 0 0 0 0 127 0" result="hardAlpha"/>
<feOffset dx="-2" dy="-2"/>
<feGaussianBlur stdDeviation="5"/>
<feComposite in2="hardAlpha" operator="out"/>
<feColorMatrix type="matrix" values="0 0 0 0 0.820833 0 0 0 0 0.820833 0 0 0 0 0.820833 0 0 0 0.25 0"/>
<feBlend mode="normal" in2="effect1_dropShadow_66_864" result="effect2_dropShadow_66_864"/>
<feBlend mode="normal" in="SourceGraphic" in2="effect2_dropShadow_66_864" result="shape"/>
</filter>
<linearGradient id="paint0_linear_66_864" x1="63.525" y1="34.2375" x2="259.875" y2="311.025" gradientUnits="userSpaceOnUse">
<stop stop-color="#FBFBFB"/>
<stop offset="1" stop-color="#D9D9D9" stop-opacity="0"/>
</linearGradient>
</defs>
</svg>
