<svg width="354" height="263" viewBox="0 0 354 263" fill="none" xmlns="http://www.w3.org/2000/svg">
<path d="M251.864 24.6251L245.335 18.994L237.003 21.189L240.332 13.2291L235.673 5.96979L244.259 6.68156L249.712 -7.62939e-06L251.69 8.39952L259.718 11.5296L252.354 16.0092L251.864 24.6251Z" fill="#F1F3F2"/>
<path d="M130.081 149.106L121.746 146.924L115.226 152.565L114.722 143.949L107.352 139.481L115.376 136.339L117.341 127.936L122.804 134.61L131.389 133.885L126.741 141.152L130.081 149.106Z" fill="#F1F3F2"/>
<path d="M310.189 86.2767C319.699 86.2767 327.408 78.5545 327.408 69.0286C327.408 59.5027 319.699 51.7805 310.189 51.7805C300.679 51.7805 292.97 59.5027 292.97 69.0286C292.97 78.5545 300.679 86.2767 310.189 86.2767Z" fill="#FFB12A"/>
<path d="M304.593 68.6415C305.461 68.6415 306.164 67.1566 306.164 65.3249C306.164 63.4932 305.461 62.0083 304.593 62.0083C303.726 62.0083 303.022 63.4932 303.022 65.3249C303.022 67.1566 303.726 68.6415 304.593 68.6415Z" fill="#30313C"/>
<path d="M315.785 68.6415C316.653 68.6415 317.356 67.1566 317.356 65.3249C317.356 63.4932 316.653 62.0083 315.785 62.0083C314.918 62.0083 314.214 63.4932 314.214 65.3249C314.214 67.1566 314.918 68.6415 315.785 68.6415Z" fill="#30313C"/>
<path d="M310.189 75.88C305.995 75.88 304.337 73.0791 304.268 72.9599C304.219 72.8737 304.205 72.7712 304.231 72.6751C304.257 72.579 304.32 72.4971 304.406 72.4475C304.449 72.4228 304.496 72.4069 304.544 72.4005C304.593 72.3941 304.643 72.3974 304.69 72.4102C304.738 72.423 304.782 72.4451 304.821 72.4751C304.86 72.5052 304.893 72.5426 304.918 72.5854C304.978 72.6882 306.445 75.1294 310.189 75.1294C313.954 75.1294 315.446 72.6107 315.461 72.5854C315.51 72.4991 315.592 72.4362 315.688 72.4103C315.784 72.3844 315.886 72.3978 315.972 72.4475C316.015 72.472 316.052 72.5048 316.082 72.5438C316.112 72.5829 316.134 72.6275 316.147 72.6751C316.16 72.7227 316.163 72.7723 316.157 72.8212C316.151 72.8701 316.135 72.9172 316.11 72.9599C316.042 73.08 314.383 75.88 310.189 75.88Z" fill="#30313C"/>
<path d="M340.367 225.529H333.655V219.866C333.655 219.298 333.543 218.735 333.326 218.21C333.109 217.685 332.79 217.207 332.389 216.805C331.988 216.404 331.511 216.085 330.987 215.867C330.463 215.65 329.901 215.538 329.333 215.538H307.321C306.175 215.538 305.076 215.994 304.266 216.806C303.455 217.617 303 218.718 303 219.866V260.259H333.655V250.268H340.367C342.119 250.266 343.799 249.568 345.038 248.327C346.277 247.086 346.974 245.404 346.976 243.649V232.148C346.974 230.393 346.277 228.711 345.038 227.47C343.799 226.229 342.119 225.531 340.367 225.529ZM343.229 243.649C343.228 244.409 342.926 245.138 342.39 245.675C341.853 246.212 341.126 246.514 340.367 246.515H333.655V229.282H340.367C341.126 229.283 341.853 229.585 342.39 230.123C342.926 230.66 343.228 231.389 343.229 232.149V243.649Z" fill="#EEB702"/>
<path d="M340.843 219.491H310.189V220.242H340.843V219.491Z" fill="#9B453A"/>
<path d="M52.21 140.7C65.2713 140.7 75.8595 130.093 75.8595 117.01C75.8595 103.927 65.2713 93.3206 52.21 93.3206C39.1487 93.3206 28.5604 103.927 28.5604 117.01C28.5604 130.093 39.1487 140.7 52.21 140.7Z" fill="#FFB12A"/>
<path d="M44.5239 116.478C45.7155 116.478 46.6814 114.439 46.6814 111.923C46.6814 109.407 45.7155 107.368 44.5239 107.368C43.3323 107.368 42.3663 109.407 42.3663 111.923C42.3663 114.439 43.3323 116.478 44.5239 116.478Z" fill="#30313C"/>
<path d="M59.8962 116.478C61.0878 116.478 62.0538 114.439 62.0538 111.923C62.0538 109.407 61.0878 107.368 59.8962 107.368C58.7046 107.368 57.7386 109.407 57.7386 111.923C57.7386 114.439 58.7046 116.478 59.8962 116.478Z" fill="#30313C"/>
<path d="M59.8951 120.256C59.8637 121.325 59.7001 122.387 59.408 123.416H45.0097C44.7175 122.387 44.5539 121.325 44.5226 120.256H59.8951Z" fill="white"/>
<path d="M52.2096 129.81C48.3829 129.81 45.6502 127.589 44.5151 123.555C44.2096 122.481 44.0397 121.373 44.0093 120.256C44.0093 120.119 44.0635 119.988 44.16 119.891C44.2565 119.795 44.3874 119.74 44.5239 119.74H59.8949C59.9625 119.74 60.0294 119.754 60.0918 119.78C60.1543 119.806 60.211 119.844 60.2588 119.891C60.3065 119.939 60.3444 119.996 60.3703 120.059C60.3962 120.121 60.4095 120.188 60.4095 120.256C60.3791 121.373 60.2092 122.481 59.9037 123.556C58.7691 127.589 56.0365 129.81 52.2096 129.81ZM45.0642 120.771C45.13 121.618 45.2778 122.457 45.5055 123.276C46.2122 125.786 47.9488 128.779 52.2096 128.779C56.4704 128.779 58.2072 125.786 58.9136 123.276C59.1413 122.457 59.2891 121.619 59.355 120.771H45.0642Z" fill="#30313C"/>
<path d="M164.542 98.8404C164.476 98.8404 164.411 98.8213 164.355 98.7853L146.348 87.189C141.769 88.1551 137.102 88.6394 132.422 88.634C119.326 88.634 107.01 84.966 97.7417 78.3056C88.4391 71.6199 83.3158 62.7203 83.3158 53.2456C83.3158 43.7709 88.4392 34.8711 97.7417 28.1856C107.01 21.5253 119.326 17.8572 132.422 17.8572C145.519 17.8572 157.835 21.5258 167.103 28.1856C176.405 34.8713 181.529 43.7709 181.529 53.2456C181.529 58.9361 179.612 64.5912 175.985 69.5994C172.53 74.3706 167.521 78.576 161.489 81.7728L164.882 98.4244C164.895 98.4912 164.889 98.5606 164.863 98.6238C164.838 98.687 164.794 98.7412 164.738 98.7797C164.68 98.8193 164.612 98.8404 164.542 98.8404ZM146.415 86.4737C146.482 86.4736 146.547 86.4927 146.603 86.5287L164.039 97.7578L160.759 81.6569C160.744 81.5832 160.753 81.5066 160.785 81.4387C160.817 81.3707 160.871 81.3152 160.937 81.2803C173.398 74.758 180.837 64.2779 180.837 53.2459C180.837 34.1148 159.118 18.5507 132.422 18.5507C105.727 18.5507 84.0079 34.1148 84.0079 53.2459C84.0079 72.377 105.727 87.9412 132.422 87.9412C137.101 87.9468 141.767 87.4576 146.343 86.4818C146.367 86.4765 146.391 86.4737 146.415 86.4737Z" fill="white"/>
<path d="M177.723 51.5126C177.723 32.1596 155.892 16.4704 128.962 16.4704C102.033 16.4704 80.2018 32.1592 80.2018 51.5126C80.2018 70.866 102.033 86.5549 128.962 86.5549C133.665 86.561 138.356 86.0692 142.955 85.0877L161.082 96.7612L157.638 79.8546C169.81 73.483 177.723 63.1628 177.723 51.5126Z" fill="#EEB702"/>
<path d="M160.492 45.2376H97.4323C97.157 45.2376 96.893 45.1281 96.6983 44.9331C96.5036 44.7381 96.3943 44.4736 96.3943 44.1979C96.3943 43.9221 96.5037 43.6577 96.6983 43.4627C96.893 43.2677 97.157 43.1582 97.4323 43.1582H160.492C160.767 43.1582 161.031 43.2677 161.226 43.4627C161.421 43.6577 161.53 43.9221 161.53 44.1979C161.53 44.4736 161.421 44.7381 161.226 44.9331C161.031 45.1281 160.767 45.2376 160.492 45.2376Z" fill="white"/>
<path d="M160.492 52.4569H97.4323C97.157 52.4568 96.893 52.3473 96.6983 52.1523C96.5037 51.9573 96.3943 51.6929 96.3943 51.4171C96.3943 51.1414 96.5036 50.8769 96.6983 50.6819C96.893 50.4869 97.157 50.3774 97.4323 50.3774H160.492C160.767 50.3774 161.031 50.4869 161.226 50.6819C161.421 50.8769 161.53 51.1414 161.53 51.4171C161.53 51.6929 161.421 51.9573 161.226 52.1523C161.031 52.3473 160.767 52.4568 160.492 52.4569Z" fill="white"/>
<path d="M160.492 59.6761H97.4323C97.157 59.6761 96.893 59.5665 96.6983 59.3715C96.5036 59.1765 96.3943 58.912 96.3943 58.6363C96.3943 58.3605 96.5037 58.0961 96.6983 57.9011C96.893 57.7061 97.157 57.5965 97.4323 57.5965H160.492C160.767 57.5965 161.031 57.7061 161.226 57.9011C161.421 58.0961 161.53 58.3605 161.53 58.6363C161.53 58.912 161.421 59.1765 161.226 59.3715C161.031 59.5665 160.767 59.6761 160.492 59.6761Z" fill="white"/>
<path d="M227.376 68.3153C227.376 68.3153 244.423 58.7263 257.759 71.7494C271.096 84.7725 265.614 101.311 268.233 111.588C270.851 121.865 289.263 123.356 293.027 137.683C296.481 150.831 286.368 155.827 275.521 153.423C275.521 153.423 286.714 175.351 265.267 180.102C248.317 183.857 211.603 180.938 196.887 148.48C184.936 122.12 183.536 78.831 227.376 68.3153Z" fill="black"/>
<path d="M117.579 226.837C117.579 226.837 112.639 241.682 117.801 252.967C117.801 252.967 130.303 237.849 117.579 226.837Z" fill="#D88E4C"/>
<path d="M186.89 176.492L170.895 219.126L98.5482 232.469C97.3498 232.69 96.2066 233.145 95.1839 233.808C94.1612 234.472 93.279 235.331 92.5876 236.336C91.8963 237.341 91.4093 238.472 91.1545 239.666C90.8998 240.859 90.8822 242.092 91.1028 243.292C91.5083 245.495 92.6945 247.478 94.443 248.875C96.1915 250.272 98.3849 250.989 100.62 250.895L174.117 247.791C176.369 247.696 178.556 247.004 180.453 245.784C182.35 244.564 183.888 242.86 184.911 240.848L217.346 176.812C219.074 173.401 219.379 169.442 218.192 165.806C217.006 162.17 214.427 159.155 211.022 157.424C203.93 153.819 190.488 169.388 186.89 176.492Z" fill="#F69D85"/>
<path d="M216.213 147.15C216.213 147.15 194.341 151.145 174.362 189.17C165.666 205.721 160.858 216.207 160.858 216.207C160.858 216.207 130.837 223.988 117.579 226.837C117.579 226.837 124.096 237.529 117.802 252.967C117.802 252.967 173 257.741 184.046 247.86C195.25 237.838 221.824 184.93 221.824 184.93L216.213 147.15Z" fill="#F1F3F2"/>
<path d="M127.033 244.622C126.622 247.666 125.919 250.664 124.932 253.572C124.898 253.666 124.828 253.741 124.738 253.783C124.648 253.825 124.545 253.829 124.452 253.795C124.405 253.778 124.363 253.752 124.327 253.718C124.291 253.685 124.261 253.645 124.241 253.6C124.22 253.555 124.209 253.507 124.207 253.457C124.205 253.408 124.212 253.359 124.229 253.313C124.291 253.145 130.323 236.38 123.17 225.717C123.142 225.676 123.123 225.63 123.113 225.582C123.104 225.534 123.104 225.484 123.113 225.435C123.123 225.387 123.141 225.341 123.169 225.3C123.196 225.259 123.231 225.224 123.272 225.196C123.354 225.141 123.455 225.12 123.553 225.139C123.65 225.158 123.736 225.216 123.792 225.298C127.651 231.05 127.752 238.439 127.158 243.624C127.12 243.962 127.078 244.294 127.033 244.622Z" fill="#D88E4C"/>
<path d="M134.819 244.687C134.067 250.174 132.485 253.932 132.468 253.97C132.43 254.062 132.356 254.134 132.264 254.171C132.171 254.208 132.068 254.207 131.977 254.168C131.932 254.149 131.891 254.121 131.856 254.085C131.822 254.05 131.795 254.009 131.776 253.963C131.758 253.917 131.749 253.868 131.749 253.819C131.75 253.77 131.76 253.721 131.779 253.676C131.795 253.637 133.416 249.785 134.128 244.197C134.785 239.052 134.788 231.334 131.073 223.783C131.051 223.739 131.038 223.691 131.035 223.641C131.032 223.592 131.038 223.543 131.054 223.496C131.07 223.449 131.095 223.406 131.127 223.369C131.16 223.332 131.199 223.302 131.243 223.28C131.332 223.236 131.435 223.229 131.529 223.261C131.624 223.293 131.701 223.362 131.745 223.451C135.547 231.178 135.542 239.064 134.868 244.316C134.852 244.44 134.835 244.564 134.819 244.687Z" fill="#D88E4C"/>
<path d="M161.23 216.259C161.224 216.304 161.209 216.348 161.188 216.388C159.822 218.89 159.503 223.604 159.5 223.651C159.493 223.751 159.448 223.843 159.373 223.909C159.298 223.975 159.201 224.008 159.102 224.002C159.052 223.999 159.004 223.986 158.96 223.964C158.916 223.942 158.877 223.912 158.844 223.875C158.812 223.838 158.787 223.795 158.771 223.748C158.755 223.701 158.749 223.652 158.752 223.603C158.765 223.403 159.086 218.675 160.53 216.028C160.554 215.985 160.585 215.946 160.624 215.915C160.662 215.884 160.706 215.861 160.753 215.847C160.8 215.833 160.85 215.829 160.899 215.834C160.948 215.839 160.995 215.854 161.038 215.878C161.105 215.914 161.159 215.97 161.194 216.038C161.228 216.107 161.241 216.184 161.23 216.259Z" fill="#818496"/>
<path d="M203.727 112.82C203.806 112.798 203.875 112.75 203.925 112.685C203.975 112.621 204.003 112.541 204.004 112.459C204.046 109.959 202.381 109.459 201.279 109.129C200.786 108.981 200.32 108.841 200.188 108.593C200.115 108.386 200.122 108.158 200.21 107.956C200.903 105.707 203.709 105.605 203.738 105.604C203.839 105.602 203.934 105.559 204.004 105.485C204.074 105.412 204.111 105.313 204.109 105.212C204.106 105.111 204.063 105.015 203.99 104.945C203.916 104.875 203.818 104.838 203.717 104.84C203.579 104.844 200.335 104.963 199.481 107.73C199.329 108.224 199.34 108.624 199.515 108.952C199.797 109.482 200.411 109.666 201.061 109.861C202.148 110.187 203.273 110.524 203.241 112.446C203.239 112.547 203.278 112.645 203.348 112.718C203.418 112.791 203.515 112.833 203.616 112.834C203.653 112.835 203.691 112.83 203.727 112.82Z" fill="#AF5945"/>
<path d="M209.343 112.83C211.482 109.933 210.871 105.848 207.979 103.705C205.088 101.563 201.009 102.174 198.87 105.071C196.732 107.967 197.342 112.052 200.234 114.195C203.125 116.338 207.204 115.726 209.343 112.83Z" fill="#F69D85"/>
<path d="M239.53 118.216H216.214V154.828H239.53V118.216Z" fill="#F69D85"/>
<path d="M217.351 110.464C218.161 103.06 213.617 96.486 207.199 95.7811C200.782 95.0762 194.923 100.507 194.113 107.911C193.302 115.316 197.847 121.889 204.264 122.594C210.681 123.299 216.54 117.868 217.351 110.464Z" fill="#3E8EDD"/>
<path d="M232.582 139.866C232.582 139.866 224.523 143.112 216.214 141.534V129.619L232.582 139.866Z" fill="#D1836B"/>
<path d="M225.364 140.102C218.9 139.393 212.983 136.14 208.913 131.06C204.844 125.98 202.955 119.489 203.664 113.014L205.05 100.342C205.759 93.8675 209.006 87.94 214.077 83.8636C219.149 79.7871 225.629 77.8957 232.093 78.6053C235.293 78.9566 238.393 79.936 241.216 81.4874C244.039 83.0389 246.529 85.1321 248.544 87.6476C250.559 90.163 252.06 93.0514 252.96 96.1479C253.861 99.2443 254.144 102.488 253.793 105.694L252.407 118.366C251.698 124.841 248.451 130.768 243.38 134.844C238.308 138.921 231.828 140.812 225.364 140.102Z" fill="#FFB8A5"/>
<path d="M143.116 260.26H25.1822L8.86143 190.708C8.53065 189.298 8.52237 187.832 8.83719 186.419C9.15201 185.005 9.78178 183.682 10.6794 182.547C11.577 181.412 12.7193 180.495 14.0207 179.864C15.3221 179.234 16.749 178.906 18.1946 178.906H116.43C118.592 178.906 120.69 179.637 122.384 180.982C124.078 182.326 125.269 184.205 125.763 186.313L143.116 260.26Z" fill="#818496"/>
<path d="M135.623 260.26H25.1822L8.86143 190.708C8.53065 189.298 8.52237 187.832 8.83719 186.419C9.15201 185.005 9.78178 183.682 10.6794 182.547C11.577 181.412 12.7193 180.495 14.0207 179.864C15.3221 179.234 16.749 178.906 18.1946 178.906H108.937C111.098 178.906 113.196 179.637 114.891 180.982C116.585 182.326 117.776 184.205 118.27 186.313L135.623 260.26Z" fill="#E0E0E0"/>
<path d="M203.679 252.61H137.771V260.259H203.679V252.61Z" fill="#818496"/>
<path d="M229.868 256.434C208.332 256.434 191.271 252.806 191.271 252.806C195.576 237.598 193.681 219.244 192.551 191.681C192.265 184.715 216.213 147.15 216.213 147.15L228.578 145.044C250.114 145.044 264.947 167.211 262.729 188.669C259.871 216.325 247.939 222.545 261.568 250.261L229.868 256.434Z" fill="#FFB8A5"/>
<path d="M232.615 107.603C232.417 109.423 233.007 110.982 233.934 111.084C234.861 111.185 235.773 109.791 235.971 107.97C236.169 106.149 235.579 104.591 234.652 104.49C233.725 104.388 232.813 105.782 232.615 107.603Z" fill="#30313C"/>
<path d="M217.899 105.994C217.701 107.815 218.292 109.373 219.218 109.475C220.145 109.576 221.057 108.182 221.256 106.361C221.454 104.54 220.863 102.982 219.937 102.881C219.01 102.779 218.098 104.174 217.899 105.994Z" fill="#30313C"/>
<path d="M242.418 115.263C242.483 116.573 241.376 117.692 239.943 117.764C238.51 117.836 237.296 116.833 237.231 115.524C237.165 114.214 238.273 113.095 239.705 113.023C241.138 112.951 242.352 113.954 242.418 115.263Z" fill="#D1836B"/>
<path d="M214.889 113.326C214.954 114.636 213.846 115.756 212.414 115.828C210.981 115.9 209.767 114.897 209.701 113.587C209.636 112.278 210.744 111.158 212.176 111.086C213.609 111.014 214.823 112.018 214.889 113.326Z" fill="#D1836B"/>
<path d="M216.213 147.15C216.213 147.15 191.552 170.687 184.657 194.387C181.482 205.301 190.161 216.89 192.057 228.438C193.815 239.139 187.621 260.259 187.621 260.259C187.621 260.259 212.603 262.395 223.301 262.395C248.869 262.395 265.691 260.921 265.691 260.921C265.691 260.921 249.366 222.763 265.273 198.971C277.921 180.056 260.587 153.73 239.546 147.15C239.546 147.15 229.729 157.376 221.765 156.335C215.081 155.462 216.213 147.15 216.213 147.15Z" fill="#F1F3F2"/>
<path d="M257.621 118.687C260.664 116.766 261.577 112.738 259.659 109.69C257.742 106.641 253.72 105.727 250.677 107.648C247.634 109.568 246.721 113.597 248.639 116.645C250.556 119.693 254.578 120.607 257.621 118.687Z" fill="#F69D85"/>
<path d="M230.576 121.545C230.724 122.6 229.06 123.708 226.858 124.019C224.657 124.331 222.751 123.728 222.603 122.673C222.454 121.618 224.118 120.511 226.32 120.199C228.522 119.888 230.427 120.491 230.576 121.545Z" fill="#DB7777"/>
<path d="M228.709 122.286C230.092 121.888 231.41 121.29 232.621 120.512C232.664 120.486 232.7 120.451 232.729 120.409C232.758 120.368 232.778 120.322 232.789 120.273C232.8 120.224 232.801 120.173 232.792 120.124C232.784 120.075 232.765 120.027 232.738 119.985C232.684 119.9 232.598 119.839 232.499 119.817C232.401 119.795 232.297 119.814 232.212 119.868C226.474 123.527 220.841 121.498 220.784 121.477C220.737 121.46 220.687 121.452 220.637 121.454C220.587 121.455 220.538 121.467 220.493 121.488C220.447 121.509 220.406 121.539 220.372 121.576C220.338 121.612 220.311 121.655 220.294 121.703C220.259 121.797 220.262 121.902 220.304 121.995C220.346 122.087 220.423 122.158 220.518 122.194C220.708 122.264 224.271 123.556 228.709 122.286Z" fill="#AF5945"/>
<path d="M253.748 116.701C253.826 116.679 253.894 116.633 253.943 116.57C253.993 116.507 254.022 116.43 254.025 116.349C254.103 114.429 255.245 114.157 256.35 113.894C257.009 113.737 257.633 113.588 257.945 113.076C258.139 112.758 258.173 112.36 258.049 111.858C257.356 109.046 254.123 108.74 253.986 108.729C253.936 108.725 253.886 108.73 253.838 108.745C253.79 108.76 253.746 108.785 253.708 108.817C253.669 108.849 253.638 108.889 253.615 108.934C253.592 108.978 253.578 109.027 253.574 109.077C253.565 109.177 253.597 109.277 253.662 109.355C253.727 109.432 253.82 109.481 253.92 109.49C254.036 109.5 256.747 109.764 257.308 112.04C257.384 112.247 257.379 112.475 257.293 112.678C257.147 112.918 256.674 113.031 256.173 113.15C255.053 113.416 253.363 113.819 253.262 116.318C253.26 116.368 253.268 116.418 253.285 116.465C253.303 116.512 253.329 116.555 253.363 116.592C253.397 116.629 253.438 116.659 253.483 116.68C253.529 116.701 253.578 116.713 253.628 116.715C253.668 116.717 253.709 116.712 253.748 116.701Z" fill="#AF5945"/>
<path d="M238.69 104.621C238.797 104.59 238.894 104.532 238.971 104.452C239.03 104.391 239.076 104.32 239.108 104.242C239.139 104.164 239.154 104.08 239.153 103.996C239.152 103.912 239.135 103.829 239.102 103.751C239.069 103.674 239.021 103.604 238.961 103.545C238.836 103.423 235.864 100.569 231.722 101.088C231.638 101.099 231.558 101.126 231.485 101.167C231.412 101.209 231.348 101.264 231.296 101.331C231.244 101.397 231.206 101.473 231.184 101.555C231.162 101.636 231.156 101.72 231.166 101.804C231.187 101.973 231.274 102.126 231.408 102.231C231.543 102.335 231.712 102.382 231.881 102.361C235.418 101.917 238.04 104.437 238.066 104.463C238.147 104.542 238.247 104.598 238.357 104.626C238.466 104.654 238.582 104.652 238.69 104.621Z" fill="#AF5945"/>
<path d="M223.768 101.568C223.856 101.542 223.938 101.499 224.008 101.439C224.078 101.379 224.134 101.305 224.173 101.221C224.244 101.068 224.252 100.892 224.194 100.733C224.136 100.573 224.018 100.443 223.865 100.371C222.772 99.9323 221.591 99.7576 220.417 99.8616C219.244 99.9657 218.112 100.346 217.113 100.97C216.968 101.058 216.863 101.2 216.822 101.365C216.781 101.53 216.808 101.705 216.895 101.851C216.939 101.923 216.996 101.986 217.063 102.036C217.131 102.086 217.208 102.122 217.289 102.142C217.371 102.162 217.456 102.166 217.539 102.154C217.622 102.141 217.702 102.113 217.774 102.069C220.643 100.338 223.216 101.484 223.324 101.534C223.463 101.598 223.621 101.61 223.768 101.568Z" fill="#AF5945"/>
<path d="M226.693 116.98C226.756 116.962 226.812 116.929 226.858 116.883C226.904 116.837 226.938 116.78 226.955 116.717C226.969 116.669 226.973 116.618 226.967 116.569C226.962 116.519 226.946 116.471 226.922 116.427C226.898 116.383 226.865 116.344 226.826 116.313C226.786 116.282 226.741 116.259 226.693 116.245C225.804 115.991 224.002 115.22 224.11 114.457C224.261 113.394 226.111 108.679 226.811 106.951C226.83 106.904 226.84 106.855 226.839 106.804C226.839 106.754 226.829 106.705 226.809 106.658C226.79 106.612 226.761 106.57 226.726 106.535C226.69 106.5 226.648 106.472 226.601 106.453C226.555 106.434 226.505 106.425 226.455 106.425C226.405 106.425 226.356 106.435 226.309 106.455C226.263 106.474 226.221 106.503 226.186 106.539C226.151 106.574 226.123 106.617 226.104 106.663C226 106.92 223.55 112.976 223.355 114.349C223.125 115.974 226.14 116.882 226.484 116.979C226.553 116.999 226.625 116.999 226.693 116.98Z" fill="#AF5945"/>
<path d="M251.508 73.5285C257.96 67.0651 257.96 56.5859 251.508 50.1225C245.055 43.6591 234.593 43.659 228.141 50.1225C221.688 56.5859 221.688 67.0651 228.141 73.5285C234.593 79.992 245.055 79.992 251.508 73.5285Z" fill="black"/>
<path d="M199.772 234.32C199.772 234.32 210.818 250.294 202.402 260.88C202.402 260.88 193.856 250.707 199.772 234.32Z" fill="#818496"/>
<path d="M191.158 257.56C191.158 257.56 183.055 260.464 174.185 257.535C165.876 254.791 163.819 251.693 162.228 248.225C160.636 244.756 175.566 239.632 181.288 240.656C187.011 241.679 191.223 248.892 191.158 257.56Z" fill="#F69D85"/>
<path d="M174.764 257.719C170.382 256.461 165.889 256.136 161.434 257.162C159.429 257.624 155.408 260.08 154.147 256.948C152.745 252.57 171.376 248.867 174.753 248.816C183.823 247.317 182.124 260.537 174.764 257.719Z" fill="#F69D85"/>
<path d="M171.892 253.751C167.703 252.319 163.083 252.143 158.671 252.625C156.333 252.488 152.379 255.121 151.37 251.844C150.664 248.379 160.22 247.009 162.772 246.292C166.444 245.677 170.269 245.422 173.985 246.032C179.013 247.425 176.94 255.1 171.892 253.751Z" fill="#F69D85"/>
<path d="M172.358 249.969C166.049 247.352 158.762 246.863 152.182 248.82C149.762 249.536 148.441 245.85 150.742 244.855C153.504 243.516 156.433 242.556 159.45 242C164.666 241.124 170.106 241.156 175.251 242.494C180.76 244.157 177.556 252.461 172.358 249.969Z" fill="#F69D85"/>
<path d="M181.096 245.82C174.476 243.045 167.141 241.429 159.959 241.969C157.585 242.158 155.248 242.673 153.014 243.499C152.751 243.606 152.468 243.659 152.184 243.655C151.899 243.65 151.618 243.589 151.358 243.473C151.098 243.358 150.864 243.191 150.669 242.983C150.475 242.775 150.324 242.529 150.226 242.262C148.951 237.462 164.171 235.938 167.473 236.005C173.158 236.005 179.711 237.188 185.147 238.863C190.533 240.752 186.177 248.448 181.096 245.82Z" fill="#F69D85"/>
<path d="M159.165 252.775C159.122 252.765 159.082 252.744 159.049 252.716C159.016 252.687 158.99 252.65 158.974 252.609C158.947 252.541 158.948 252.465 158.977 252.398C159.006 252.331 159.06 252.278 159.128 252.25C159.169 252.234 163.265 250.622 168.893 250.519C168.966 250.518 169.037 250.546 169.089 250.597C169.142 250.648 169.172 250.717 169.174 250.791C169.175 250.864 169.147 250.935 169.097 250.987C169.046 251.04 168.976 251.071 168.903 251.072C163.381 251.173 159.372 252.748 159.332 252.764C159.279 252.785 159.22 252.789 159.165 252.775Z" fill="#AF5945"/>
<path d="M156.712 248.113C156.666 248.102 156.624 248.079 156.59 248.047C156.555 248.015 156.529 247.975 156.515 247.93C156.504 247.895 156.499 247.859 156.502 247.823C156.505 247.787 156.515 247.752 156.531 247.719C156.548 247.687 156.571 247.658 156.598 247.635C156.626 247.611 156.658 247.593 156.692 247.582C160.224 246.546 163.863 245.914 167.537 245.698C167.61 245.694 167.682 245.719 167.737 245.767C167.792 245.816 167.825 245.884 167.83 245.957C167.832 245.994 167.827 246.03 167.815 246.064C167.803 246.099 167.785 246.13 167.761 246.157C167.737 246.185 167.708 246.207 167.675 246.223C167.643 246.239 167.607 246.248 167.571 246.25C163.943 246.463 160.351 247.086 156.863 248.108C156.814 248.124 156.761 248.125 156.712 248.113Z" fill="#AF5945"/>
<path d="M156.819 242.803C156.769 242.791 156.722 242.764 156.686 242.727C156.65 242.689 156.625 242.642 156.615 242.591C156.6 242.519 156.614 242.445 156.654 242.383C156.694 242.322 156.757 242.279 156.829 242.264C156.881 242.253 162.151 241.165 166.769 241.015C166.806 241.014 166.842 241.02 166.876 241.033C166.909 241.045 166.941 241.065 166.967 241.09C166.993 241.114 167.015 241.144 167.03 241.177C167.044 241.21 167.053 241.246 167.054 241.282C167.055 241.318 167.049 241.355 167.036 241.389C167.023 241.423 167.004 241.454 166.979 241.48C166.955 241.507 166.925 241.528 166.892 241.543C166.859 241.558 166.823 241.566 166.787 241.567C162.216 241.716 156.993 242.795 156.941 242.806C156.901 242.814 156.859 242.813 156.819 242.803Z" fill="#AF5945"/>
<path d="M284.908 240.421L284.769 239.825L267.022 163.469C266.943 163.136 266.845 162.769 266.741 162.437C265.609 158.819 263.089 155.8 259.734 154.043C256.38 152.286 252.466 151.936 248.854 153.07C245.242 154.203 242.228 156.728 240.474 160.088C238.72 163.448 238.371 167.368 239.503 170.986L258.807 232.7L185.216 238.965C182.649 239.188 180.268 240.4 178.575 242.347C176.882 244.293 176.01 246.822 176.143 249.4C176.282 252.034 177.46 254.505 179.418 256.269C181.376 258.032 183.953 258.945 186.582 258.806L274.616 254.135C275.27 254.096 275.92 254.004 276.559 253.859C279.445 253.186 281.946 251.392 283.511 248.872C285.077 246.352 285.579 243.312 284.908 240.421Z" fill="#F69D85"/>
<path d="M239.546 147.15C239.546 147.15 264.868 145.551 273.836 165.771C282.805 185.992 298.11 238.812 285.145 251.651C274.629 262.065 202.402 260.88 202.402 260.88C202.402 260.88 205.644 249.944 199.772 234.32C199.772 234.32 231.334 227.992 247.321 225.883C247.321 225.883 229.118 167.631 239.546 147.15Z" fill="#F1F3F2"/>
<path d="M199.772 234.695C199.685 234.695 199.601 234.665 199.534 234.61C199.468 234.555 199.422 234.479 199.405 234.394C199.395 234.346 199.395 234.296 199.404 234.247C199.414 234.199 199.433 234.153 199.46 234.112C199.487 234.071 199.522 234.036 199.563 234.008C199.604 233.981 199.65 233.962 199.698 233.952C200.014 233.888 231.176 227.617 246.832 225.568C245.809 222.226 239.161 199.918 236.576 176.909C236.57 176.86 236.574 176.811 236.588 176.764C236.602 176.716 236.625 176.672 236.655 176.633C236.686 176.595 236.724 176.563 236.767 176.539C236.81 176.515 236.857 176.5 236.906 176.495C237.005 176.483 237.104 176.512 237.182 176.574C237.259 176.636 237.309 176.726 237.32 176.825C240.102 201.583 247.604 225.531 247.679 225.77C247.696 225.822 247.7 225.878 247.693 225.932C247.686 225.987 247.667 226.039 247.637 226.085C247.608 226.131 247.569 226.171 247.522 226.2C247.476 226.229 247.424 226.248 247.369 226.255C231.893 228.239 200.165 234.624 199.847 234.688C199.822 234.693 199.797 234.695 199.772 234.695Z" fill="#818496"/>
<path d="M210.568 261.296C210.544 261.296 210.52 261.293 210.496 261.289C210.448 261.28 210.402 261.261 210.361 261.234C210.32 261.207 210.284 261.172 210.257 261.131C210.229 261.09 210.21 261.044 210.2 260.996C210.19 260.947 210.19 260.898 210.199 260.849C210.226 260.71 212.821 246.743 207.396 232.893C207.359 232.8 207.361 232.697 207.401 232.606C207.441 232.514 207.515 232.443 207.607 232.406C207.653 232.388 207.702 232.379 207.751 232.38C207.801 232.381 207.849 232.392 207.894 232.411C207.939 232.431 207.98 232.459 208.014 232.495C208.048 232.531 208.075 232.573 208.093 232.618C213.601 246.677 210.962 260.85 210.935 260.992C210.919 261.077 210.873 261.154 210.806 261.21C210.739 261.265 210.655 261.296 210.568 261.296Z" fill="#818496"/>
<path d="M219.114 261.218C219.096 261.218 219.078 261.217 219.06 261.214C218.961 261.2 218.873 261.147 218.813 261.067C218.754 260.987 218.729 260.887 218.743 260.789C221.308 243.163 215.195 231.577 215.133 231.462C215.11 231.419 215.095 231.371 215.09 231.322C215.085 231.273 215.089 231.224 215.103 231.177C215.118 231.129 215.141 231.085 215.172 231.047C215.203 231.009 215.241 230.977 215.284 230.954C215.372 230.906 215.474 230.896 215.57 230.924C215.665 230.952 215.745 231.018 215.792 231.105C215.855 231.222 222.088 243.01 219.484 260.897C219.472 260.986 219.427 261.067 219.359 261.126C219.291 261.185 219.204 261.218 219.114 261.218Z" fill="#818496"/>
<path d="M246.2 131.662C245.625 131.662 245.051 131.617 244.483 131.528L234.448 129.953C234.203 129.915 233.982 129.78 233.836 129.579C233.69 129.378 233.629 129.127 233.668 128.881C233.706 128.635 233.84 128.415 234.041 128.268C234.242 128.122 234.492 128.061 234.738 128.099L244.773 129.674C247.087 130.036 249.451 129.497 251.381 128.169C253.312 126.842 254.662 124.825 255.156 122.532C255.182 122.411 255.231 122.297 255.301 122.196C255.371 122.094 255.46 122.008 255.564 121.941C255.667 121.874 255.782 121.828 255.903 121.806C256.024 121.784 256.149 121.786 256.269 121.812C256.512 121.864 256.724 122.011 256.859 122.22C256.993 122.429 257.04 122.684 256.988 122.927C256.455 125.398 255.095 127.612 253.132 129.201C251.17 130.79 248.723 131.658 246.2 131.662Z" fill="#3E8EDD"/>
<path d="M268.077 114.599C268.887 107.195 264.342 100.621 257.924 99.9166C251.507 99.2121 245.648 104.644 244.838 112.048C244.028 119.453 248.573 126.027 254.991 126.731C261.408 127.436 267.267 122.004 268.077 114.599Z" fill="#3E8EDD"/>
<path d="M258.125 108.115C258.013 108.115 257.902 108.107 257.792 108.093C257.127 108.005 256.525 107.657 256.116 107.125C255.708 106.592 255.527 105.92 255.614 105.254C255.627 105.15 256.452 98.3753 254.302 91.2786C251.534 82.1365 245.239 76.6815 235.591 75.0654C235.264 75.0105 234.95 74.8915 234.669 74.7153C234.387 74.539 234.143 74.3089 233.95 74.038C233.757 73.7672 233.619 73.4609 233.544 73.1368C233.47 72.8126 233.459 72.4769 233.514 72.1487C233.625 71.4862 233.994 70.8949 234.54 70.5048C235.086 70.1147 235.765 69.9577 236.426 70.0682C251.08 72.5238 256.896 82.2503 259.193 89.9772C261.613 98.1133 260.67 105.598 260.628 105.912C260.548 106.521 260.25 107.08 259.79 107.485C259.329 107.89 258.738 108.114 258.125 108.115Z" fill="#3E8EDD"/>
<path d="M242.421 77.1221C242.421 77.1221 236.058 59.1461 215.433 62.922C194.807 66.698 193.112 85.7447 203.237 91.5561C210.289 95.604 229.468 92.3443 237.193 88.1634C237.193 88.1634 238.282 102.484 250.579 102.536C261.152 102.582 260.203 78.4568 242.421 77.1221Z" fill="black"/>
<path d="M234.593 132.241C236.366 132.241 237.802 130.802 237.802 129.026C237.802 127.251 236.366 125.811 234.593 125.811C232.82 125.811 231.384 127.251 231.384 129.026C231.384 130.802 232.82 132.241 234.593 132.241Z" fill="#305777"/>
<path d="M258.148 123.452C257.913 123.452 257.678 123.439 257.444 123.413C255.314 123.179 253.431 121.923 252.141 119.876C250.868 117.855 250.325 115.301 250.612 112.682C251.207 107.244 255.24 103.21 259.602 103.688C263.964 104.166 267.03 108.98 266.435 114.419C265.872 119.563 262.232 123.452 258.148 123.452ZM258.895 104.4C255.189 104.4 251.877 108.003 251.357 112.764C251.088 115.214 251.592 117.598 252.775 119.475C253.941 121.325 255.628 122.459 257.525 122.667C261.478 123.101 265.14 119.364 265.69 114.337C266.24 109.31 263.472 104.868 259.521 104.434C259.313 104.411 259.104 104.399 258.895 104.399V104.4Z" fill="#305777"/>
<path d="M192.06 238.759C192.049 238.759 192.038 238.759 192.027 238.757C191.928 238.749 191.837 238.701 191.773 238.625C191.709 238.549 191.678 238.45 191.686 238.351C191.688 238.331 191.856 236.264 191.683 228.447C191.6 224.719 189.772 220.044 187.837 215.094C185.723 209.686 183.537 204.095 183.59 199.436C183.69 190.665 193.744 174.265 194.173 173.571C194.225 173.486 194.309 173.426 194.405 173.403C194.502 173.38 194.604 173.397 194.688 173.449C194.773 173.501 194.833 173.585 194.856 173.682C194.879 173.779 194.862 173.881 194.81 173.965C194.706 174.134 184.437 190.882 184.34 199.444C184.288 203.957 186.447 209.479 188.535 214.82C190.495 219.834 192.346 224.569 192.431 228.43C192.606 236.315 192.44 238.334 192.431 238.416C192.423 238.51 192.381 238.596 192.312 238.66C192.243 238.723 192.153 238.758 192.06 238.759Z" fill="#818496"/>
<path d="M222.138 160.548C221.264 160.551 220.392 160.478 219.531 160.331C217.037 159.896 215.127 158.753 213.852 156.932C211.346 153.354 212.173 148.47 212.209 148.264C212.227 148.166 212.282 148.079 212.364 148.022C212.445 147.965 212.546 147.943 212.644 147.96C212.741 147.977 212.828 148.033 212.885 148.114C212.942 148.196 212.965 148.296 212.947 148.394C212.939 148.442 212.14 153.185 214.468 156.504C215.624 158.154 217.371 159.192 219.659 159.591C220.483 159.732 221.317 159.802 222.152 159.8C230.278 159.8 239.63 153.582 244.276 147.069C244.305 147.029 244.341 146.995 244.383 146.969C244.425 146.943 244.471 146.925 244.52 146.917C244.568 146.909 244.618 146.91 244.666 146.921C244.714 146.933 244.759 146.953 244.799 146.982C244.839 147.01 244.873 147.047 244.899 147.088C244.925 147.13 244.943 147.177 244.951 147.225C244.959 147.274 244.958 147.324 244.946 147.372C244.935 147.42 244.915 147.465 244.886 147.505C242.187 151.29 238.074 154.855 233.601 157.286C229.662 159.427 225.685 160.548 222.138 160.548Z" fill="#818496"/>
<path d="M352.856 263H1.14367C0.512022 263 0 262.552 0 262C0 261.448 0.512022 261 1.14367 261H352.856C353.488 261 354 261.448 354 262C354 262.552 353.488 263 352.856 263Z" fill="white"/>
</svg>
