<svg width="45" height="44" viewBox="0 0 45 44" fill="none" xmlns="http://www.w3.org/2000/svg">
<g id="Layer 2">
<g id="Layer 1">
<path id="Vector" d="M0 21.8215C0 9.76967 9.88421 0 22.0773 0C34.2704 0 44.1546 9.76967 44.1546 21.8215C44.1546 33.8733 34.2704 43.643 22.0773 43.643C9.88421 43.643 0 33.8733 0 21.8215Z" fill="#EEB702"/>
<path id="Vector_2" d="M15.5746 16.5271C15.5746 18.0244 14.8464 19.2377 13.9481 19.2377C13.0498 19.2377 12.3208 18.0244 12.3208 16.5271C12.3208 15.0297 13.0498 13.8172 13.9481 13.8172C14.8464 13.8172 15.5746 15.0305 15.5746 16.5271Z" fill="white"/>
<path id="Vector_3" d="M31.8383 16.5271C31.8383 18.0244 31.1093 19.2377 30.211 19.2377C29.3126 19.2377 28.5845 18.0244 28.5845 16.5271C28.5845 15.0297 29.3126 13.8172 30.211 13.8172C31.1093 13.8172 31.8383 15.0305 31.8383 16.5271Z" fill="white"/>
<path id="Vector_4" d="M7.24219 23.8846C8.08353 31.2491 14.4025 36.9727 22.0773 36.9727C29.7522 36.9727 36.0711 31.2491 36.9125 23.8846H7.24219Z" fill="white"/>
</g>
</g>
</svg>
