<svg width="106" height="106" viewBox="0 0 106 106" fill="none" xmlns="http://www.w3.org/2000/svg">
<g filter="url(#filter0_d_227_571)">
<circle cx="53.024" cy="52.632" r="35.632" fill="#233E8B"/>
</g>
<g clip-path="url(#clip0_227_571)">
<path d="M39.8581 61.0209C39.8581 59.4034 39.8578 57.7859 39.8572 56.1683C39.8566 55.6108 39.9089 55.6978 39.3938 55.6916C37.933 55.674 36.7518 54.8035 36.3787 53.4331C36.0849 52.3539 36.3206 51.3816 37.0545 50.5345C37.14 50.4357 37.2343 50.3436 37.327 50.251C41.784 45.7917 46.2411 41.3323 50.6981 36.8729C50.9775 36.5932 51.2687 36.3311 51.6252 36.1535C52.6289 35.6532 54.3386 35.7679 55.2901 36.756C57.1391 38.6762 59.0495 40.5373 60.9345 42.4229C63.5534 45.0429 66.1724 47.6625 68.7914 50.2818C69.0791 50.5694 69.3515 50.8698 69.5086 51.2491C70.3904 53.3749 69.1294 55.5875 66.8299 55.6859C66.2256 55.7118 66.2257 55.7053 66.2253 56.3215C66.223 59.5346 66.2361 62.7479 66.2121 65.9609C66.1985 67.7712 64.5821 69.3642 62.7729 69.3826C60.9377 69.401 59.1022 69.3908 57.2668 69.3867C56.6597 69.3854 56.2631 68.9502 56.2626 68.2974C56.2607 65.7727 56.234 63.2477 56.2757 60.7237C56.292 59.7401 55.6482 58.8094 54.4078 58.853C53.48 58.8859 52.5503 58.8793 51.6223 58.8546C50.4338 58.8231 49.7965 59.7504 49.8108 60.679C49.8492 63.1812 49.8098 65.6845 49.8334 68.1871C49.8396 68.8417 49.4584 69.4172 48.6319 69.3994C46.9503 69.3631 45.2673 69.3897 43.5848 69.3882C41.4393 69.3865 39.8832 67.8587 39.8612 65.7095C39.8454 64.1467 39.8585 62.5838 39.8581 61.0209ZM41.8305 60.2824C41.8305 62.0635 41.8305 63.8445 41.8305 65.6256C41.8311 66.7368 42.5138 67.4211 43.6264 67.4231C44.8825 67.4254 46.1386 67.4252 47.3946 67.4224C47.8957 67.4208 47.8407 67.5014 47.8421 66.9667C47.8473 64.7705 47.8062 62.5731 47.8654 60.3784C47.92 58.3527 49.4999 56.8907 51.5317 56.8754C52.5365 56.8678 53.5414 56.873 54.5463 56.8745C54.9836 56.872 55.418 56.9452 55.8303 57.0907C57.3228 57.6264 58.2302 58.9516 58.2367 60.6329C58.2449 62.7745 58.2431 64.9161 58.2313 67.0578C58.2292 67.3672 58.3224 67.4338 58.6141 67.4302C59.881 67.4148 61.1481 67.4245 62.4151 67.4233C63.5904 67.4222 64.2558 66.7519 64.2559 65.5698C64.2563 61.9857 64.2566 58.4017 64.2567 54.8177C64.2567 54.1209 64.6564 53.7236 65.3539 53.7206C65.8126 53.7186 66.2715 53.7257 66.7301 53.7184C67.2724 53.7098 67.6842 53.3728 67.8158 52.8484C67.9532 52.3017 67.657 51.94 67.3041 51.5874C62.8762 47.1626 58.4501 42.736 54.0259 38.3075C53.3245 37.6058 52.7654 37.6046 52.0669 38.3033C48.1124 42.2591 44.1579 46.215 40.2035 50.1709C39.6551 50.7195 39.1007 51.2621 38.5612 51.8191C38.2175 52.174 38.1278 52.5986 38.3364 53.0556C38.5368 53.4946 38.8957 53.7127 39.3773 53.7188C39.8141 53.7242 40.251 53.7194 40.6879 53.7204C41.4456 53.7221 41.8298 54.1087 41.8302 54.8735C41.831 56.6764 41.8311 58.4794 41.8305 60.2823V60.2824Z" fill="#F2F2F2"/>
</g>
<defs>
<filter id="filter0_d_227_571" x="0.623998" y="0.232" width="104.8" height="104.8" filterUnits="userSpaceOnUse" color-interpolation-filters="sRGB">
<feFlood flood-opacity="0" result="BackgroundImageFix"/>
<feColorMatrix in="SourceAlpha" type="matrix" values="0 0 0 0 0 0 0 0 0 0 0 0 0 0 0 0 0 0 127 0" result="hardAlpha"/>
<feMorphology radius="2.096" operator="dilate" in="SourceAlpha" result="effect1_dropShadow_227_571"/>
<feOffset/>
<feGaussianBlur stdDeviation="7.336"/>
<feComposite in2="hardAlpha" operator="out"/>
<feColorMatrix type="matrix" values="0 0 0 0 0.137255 0 0 0 0 0.243137 0 0 0 0 0.545098 0 0 0 0.5 0"/>
<feBlend mode="normal" in2="BackgroundImageFix" result="effect1_dropShadow_227_571"/>
<feBlend mode="normal" in="SourceGraphic" in2="effect1_dropShadow_227_571" result="shape"/>
</filter>
<clipPath id="clip0_227_571">
<rect width="33.536" height="33.536" fill="white" transform="translate(36.2559 35.864)"/>
</clipPath>
</defs>
</svg>
