<svg width="25" height="25" viewBox="0 0 25 25" fill="none" xmlns="http://www.w3.org/2000/svg">
<g id="Interface/Interface 92 - 24px">
<path id="Icon" fill-rule="evenodd" clip-rule="evenodd" d="M11.7947 20.709L12.5039 18.75L13.2387 20.6996C12.7738 20.8746 12.2618 20.878 11.7947 20.709ZM10.9865 7.41981C10.1743 6.81572 9.10052 6.25001 7.92733 6.25001C5.29579 6.25001 3.75119 8.33333 4.26606 11.1929C5.14756 16.0888 12.5039 18.75 12.5039 18.75C11.7947 20.709 11.7942 20.7088 11.7936 20.7086L11.7891 20.707L11.7808 20.704L11.7563 20.6949C11.7365 20.6875 11.7097 20.6775 11.6764 20.6647C11.6099 20.6393 11.5174 20.6032 11.4022 20.5564C11.172 20.463 10.85 20.3266 10.4641 20.1478C9.69668 19.7921 8.65507 19.2588 7.57301 18.5498C5.52274 17.2063 2.81601 14.9004 2.21492 11.5619C1.87932 9.69802 2.17736 7.84611 3.24203 6.40916C4.32967 4.9412 6.02848 4.16667 7.92733 4.16667C9.87611 4.16667 11.4765 5.15209 12.4466 5.91347C12.4658 5.92859 12.4849 5.9437 12.5039 5.9588C12.5229 5.9437 12.542 5.92859 12.5613 5.91347C13.5314 5.15209 15.1317 4.16667 17.0805 4.16667C21.3593 4.16667 23.5062 8.329 22.7772 11.6407C22.0607 14.8952 19.4064 17.1759 17.3771 18.527C16.311 19.2367 15.2906 19.7731 14.5392 20.132C14.1616 20.3124 13.847 20.4503 13.6222 20.5448C13.5096 20.5922 13.4192 20.6288 13.3543 20.6546C13.3218 20.6675 13.2956 20.6777 13.2763 20.6852L13.2523 20.6944L13.2441 20.6975L13.2398 20.6992C13.2392 20.6994 13.2387 20.6996 12.5039 18.75C12.5039 18.75 19.6724 16.0503 20.7418 11.1929C21.2566 8.85417 19.712 6.25001 17.0805 6.25001C15.9073 6.25001 14.8335 6.81572 14.0214 7.41981C13.091 8.11181 12.5039 8.85417 12.5039 8.85417C12.5039 8.85417 11.9168 8.11181 10.9865 7.41981Z" fill="#F04A4A"/>
</g>
</svg>
