<svg width="24" height="20" viewBox="0 0 24 20" fill="none" xmlns="http://www.w3.org/2000/svg">
<g id="Like Icon">
<path id="Heart Icon" d="M11.9999 20C11.7491 19.9997 11.5087 19.8999 11.3313 19.7225L2.14414 10.5291C0.987502 9.37232 0.337773 7.80342 0.337891 6.16756C0.337949 5.35757 0.497546 4.55552 0.807571 3.8072C1.1176 3.05889 1.57198 2.37896 2.14477 1.80625C2.71756 1.23354 3.39755 0.779259 4.14591 0.469342C4.89427 0.159424 5.69634 -5.80108e-05 6.50634 1.58502e-08C8.14219 0.000117206 9.711 0.65007 10.8676 1.80688L11.9999 2.94043L13.1335 1.80688C14.2901 0.65007 15.859 0.000117206 17.4948 1.58502e-08C19.1307 -0.000117174 20.6996 0.649611 21.8564 1.80625C23.0132 2.9629 23.6631 4.53171 23.6633 6.16756C23.6634 7.80342 23.0136 9.37232 21.857 10.5291L12.6698 19.72C12.5821 19.8085 12.4777 19.8787 12.3628 19.9267C12.2478 19.9748 12.1245 19.9997 11.9999 20ZM6.5009 1.89561C5.65519 1.89572 4.82849 2.14656 4.12532 2.61643C3.42215 3.0863 2.87407 3.75409 2.55037 4.5354C2.22666 5.3167 2.14187 6.17644 2.3067 7.00593C2.47153 7.83542 2.87859 8.59742 3.47642 9.19561L11.995 17.7179L20.5147 9.19561C21.3163 8.39342 21.7666 7.30579 21.7666 6.17175C21.7666 5.03772 21.3163 3.95009 20.5147 3.1479C19.7007 2.36909 18.6175 1.9344 17.4909 1.9344C16.3643 1.9344 15.2811 2.36909 14.467 3.1479L12.6711 4.95009C12.4902 5.12058 12.251 5.21554 12.0024 5.21554C11.7539 5.21554 11.5147 5.12058 11.3338 4.95009L9.53037 3.1479C9.13408 2.74956 8.66271 2.43378 8.14356 2.21882C7.62441 2.00387 7.06778 1.89401 6.50589 1.89561H6.5009Z" fill="#919191"/>
</g>
</svg>
