<svg width="19" height="23" viewBox="0 0 19 23" fill="none" xmlns="http://www.w3.org/2000/svg">
<g id="Group">
<path id="Vector" d="M12.9339 18.6998C12.9339 19.4955 12.6179 20.2586 12.0553 20.8212C11.4927 21.3838 10.7296 21.6998 9.93395 21.6998C9.1383 21.6998 8.37524 21.3838 7.81263 20.8212C7.25002 20.2586 6.93395 19.4955 6.93395 18.6998M10.6549 4.70285L9.18895 4.69985C5.84495 4.69185 2.94195 7.40885 2.91895 10.6998V14.4898C2.91895 15.2798 2.81895 16.0508 2.38795 16.7078L2.10095 17.1458C1.66395 17.8098 2.13395 18.6998 2.91895 18.6998H16.9489C17.7339 18.6998 18.2029 17.8098 17.7669 17.1458L17.4799 16.7078C17.0499 16.0508 16.9489 15.2788 16.9489 14.4888V10.7008C16.9089 7.40885 13.9989 4.71085 10.6549 4.70285V4.70285Z" stroke="black" stroke-width="2" stroke-linecap="round" stroke-linejoin="round"/>
<path id="Vector_2" d="M9.93408 1.69986C10.4645 1.69986 10.9732 1.91057 11.3483 2.28565C11.7234 2.66072 11.9341 3.16943 11.9341 3.69986V4.69986H7.93408V3.69986C7.93408 3.16943 8.1448 2.66072 8.51987 2.28565C8.89494 1.91057 9.40365 1.69986 9.93408 1.69986Z" stroke="black" stroke-width="2" stroke-linecap="round" stroke-linejoin="round"/>
</g>
</svg>
