<svg width="15" height="15" viewBox="0 0 15 15" fill="none" xmlns="http://www.w3.org/2000/svg">
<g id="Layer_1" clip-path="url(#clip0_22_509)">
<path id="Vector" d="M12.4809 15H2.52216C2.4902 14.989 2.45751 14.9802 2.42433 14.9737C1.06309 14.797 0.00937884 13.6285 0.00605272 12.2565C-0.00177343 9.08823 -0.00177343 5.91998 0.00605272 2.75174C0.0099658 1.24933 1.25065 0.00946997 2.75362 0.00555675C5.91685 -0.00263492 9.08009 -0.00284373 12.2433 0.00493053C13.4745 0.00716107 14.5506 0.83786 14.8886 2.02501C14.935 2.18788 14.9632 2.35595 14.9999 2.5216V12.4807C14.9905 12.5179 14.9785 12.5545 14.9721 12.5922C14.7812 13.7095 14.154 14.4642 13.0907 14.8563C12.8928 14.9298 12.6831 14.9476 12.4809 15ZM7.51278 4.73128C5.4137 4.73128 3.31459 4.72997 1.21543 4.72737C1.06235 4.72694 1.03245 4.77162 1.03273 4.91559C1.03724 7.31747 1.03838 9.71936 1.03613 12.1212C1.03644 13.2064 1.79363 13.9666 2.87696 13.9669C5.96219 13.968 9.04741 13.9682 12.1326 13.9675C12.2743 13.9689 12.4157 13.9556 12.5546 13.9281C13.4029 13.7514 13.9661 13.0421 13.9666 12.1436C13.9679 9.74177 13.968 7.3399 13.9671 4.93801C13.9671 4.73108 13.9671 4.73097 13.7662 4.73097L7.51278 4.73128ZM9.4089 1.05442C9.41191 1.06678 9.41629 1.07876 9.42197 1.09014C10.0464 1.93783 10.6709 2.78551 11.2953 3.63319C11.3084 3.65335 11.3265 3.66971 11.3479 3.68061C11.3692 3.69152 11.3931 3.69658 11.4171 3.69529C12.2362 3.69378 13.0555 3.6936 13.8749 3.69475C13.9309 3.69475 13.9692 3.6861 13.9672 3.61648C13.9563 3.23193 14.0045 2.84401 13.9308 2.46322C13.7674 1.61819 13.0562 1.04053 12.1778 1.03595C11.3 1.03133 10.4222 1.03466 9.54426 1.03552C9.50223 1.03571 9.4575 1.02339 9.4089 1.05442ZM5.60222 3.69431C5.59523 3.6737 5.58657 3.65369 5.57632 3.63448C4.9544 2.79071 4.33263 1.94687 3.71099 1.10294C3.69478 1.0792 3.67247 1.06027 3.6464 1.04815C3.62034 1.03602 3.59149 1.03114 3.56288 1.03403C3.29953 1.03681 3.03595 1.02945 2.77279 1.03704C1.86187 1.0631 1.15219 1.71462 1.05065 2.61712C1.01567 2.92807 1.04779 3.24116 1.03347 3.55273C1.02799 3.67166 1.06935 3.69698 1.18138 3.69666C2.61529 3.69314 4.04923 3.69236 5.48319 3.69431H5.60222ZM10.054 3.69431C9.40268 2.81134 8.77358 1.95994 8.14725 1.1065C8.09865 1.04029 8.04093 1.03422 7.97007 1.0343C7.00847 1.03535 6.04685 1.03589 5.08523 1.03595C5.04977 1.03595 5.00732 1.01775 4.97449 1.06232C4.98535 1.08296 4.99728 1.10302 5.01021 1.12243C5.62149 1.95081 6.23223 2.7796 6.84243 3.60881C6.8978 3.68449 6.95838 3.69557 7.04036 3.69541C7.99223 3.69369 8.94408 3.69332 9.89593 3.69431H10.054Z" fill="#EEB702"/>
<path id="Vector_2" d="M5.39209 9.34739C5.39209 8.58142 5.39209 7.81546 5.39209 7.04951C5.39264 6.55703 5.79784 6.32224 6.22476 6.56818C7.55053 7.3322 8.87576 8.09713 10.2004 8.86298C10.4922 9.03164 10.5931 9.29691 10.475 9.56125C10.4159 9.69352 10.308 9.77233 10.1875 9.84175C9.11931 10.4574 8.05142 11.0736 6.98385 11.6903C6.72641 11.839 6.46964 11.9888 6.21086 12.135C5.79862 12.3679 5.39303 12.1325 5.39213 11.6598C5.39111 10.8889 5.3911 10.1181 5.39209 9.34739ZM6.42436 7.87821V8.01416C6.42436 8.89774 6.42436 9.78129 6.42436 10.6648C6.42436 10.8163 6.42546 10.8168 6.56054 10.7389C7.3166 10.3029 8.07237 9.86633 8.82785 9.4293C8.86698 9.4066 8.92008 9.39658 8.94176 9.33213L6.42436 7.87821Z" fill="#EEB702"/>
</g>
<defs>
<clipPath id="clip0_22_509">
<rect width="15" height="15" fill="white"/>
</clipPath>
</defs>
</svg>
