<svg width="30" height="30" viewBox="0 0 30 30" fill="none" xmlns="http://www.w3.org/2000/svg">
<g id="&#195;&#131;&#226;&#128;&#152;&#195;&#131;&#194;&#171;&#195;&#131;&#194;&#174;&#195;&#131;&#194;&#169;_1" clip-path="url(#clip0_71_2724)">
<path id="Vector" d="M4.57764e-05 14.0758C0.0752226 13.527 0.123152 12.9731 0.229888 12.4301C1.2714 7.13183 4.25496 3.32406 9.21514 1.20791C15.3568 -1.41215 22.2665 0.32984 26.5579 5.45663C28.5892 7.88336 29.7372 10.6954 29.9573 13.8552C30.2742 18.4021 28.8254 22.3314 25.632 25.5773C23.2034 28.0456 20.2296 29.471 16.7815 29.8954C16.5025 29.9297 16.2153 29.9049 15.9436 29.9998H14.0685C14.0046 29.9792 13.9391 29.9637 13.8727 29.9536C11.0296 29.7365 8.4441 28.8021 6.15653 27.1058C2.94507 24.7246 0.958619 21.5613 0.233711 17.6241C0.13191 17.0702 0.0770928 16.5077 0.000428145 15.9492L4.57764e-05 14.0758ZM1.50551 15.0014C1.5035 16.7729 1.85113 18.5274 2.5285 20.1646C3.20587 21.8019 4.19972 23.2897 5.4532 24.5431C6.70668 25.7964 8.19523 26.7907 9.83373 27.4692C11.4722 28.1476 13.2285 28.4968 15.0023 28.4969C22.4527 28.5013 28.4843 22.4898 28.5066 15.0377C28.5289 7.59053 22.4985 1.54797 15.0243 1.5281C7.57105 1.50824 1.5135 7.54548 1.50551 15.0014Z" fill="#EEB702"/>
<path id="Vector_2" d="M10.4997 15.0173C10.4997 13.262 10.5042 11.5067 10.4967 9.75139C10.4947 9.27493 10.6322 8.88326 11.0703 8.65113C11.4996 8.42353 11.8901 8.53655 12.2763 8.79449C14.8955 10.5449 17.5175 12.2915 20.142 14.0341C20.9829 14.5941 20.9868 15.4282 20.1499 15.9857C17.5201 17.7381 14.89 19.4902 12.2599 21.242C11.8721 21.5009 11.4782 21.598 11.053 21.3642C10.6296 21.1314 10.4951 20.7477 10.497 20.2832C10.5036 18.5279 10.4997 16.7726 10.4997 15.0173ZM12.0267 19.5866C12.1277 19.523 12.2002 19.4795 12.2705 19.4327C14.3973 18.0168 16.525 16.6023 18.6535 15.1892C18.8861 15.0355 18.8664 14.9781 18.6484 14.8338C16.5251 13.4303 14.4052 12.0216 12.289 10.6076C12.2114 10.556 12.1446 10.4783 12.0267 10.473V19.5866Z" fill="#EEB702"/>
</g>
<defs>
<clipPath id="clip0_71_2724">
<rect width="30" height="30" fill="white"/>
</clipPath>
</defs>
</svg>
