<svg width="9" height="14" viewBox="0 0 9 14" fill="none" xmlns="http://www.w3.org/2000/svg">
<g id="&#195;&#131;&#226;&#128;&#152;&#195;&#131;&#194;&#171;&#195;&#131;&#194;&#174;&#195;&#131;&#194;&#169;_1" clip-path="url(#clip0_71_1680)">
<path id="Vector" d="M5.97037 0C6.2991 0.179378 6.34676 0.290331 6.2497 0.64138C5.82043 2.19397 5.39149 3.74664 4.96286 5.29938C4.95929 5.31227 4.95885 5.3259 4.95464 5.35344C5.00888 5.35564 5.06067 5.35958 5.11247 5.35962C6.22743 5.35995 7.34239 5.36159 8.4573 5.3583C8.66176 5.35772 8.83511 5.39886 8.94158 5.57042C9.04858 5.74275 8.99562 5.89922 8.88669 6.05657C7.11543 8.61784 5.34583 11.18 3.57792 13.7432C3.46191 13.9114 3.31735 14.0215 3.08985 13.9963C2.81604 13.966 2.65034 13.7304 2.72102 13.4705C2.92657 12.7155 3.13426 11.961 3.34408 11.2071C3.57291 10.3778 3.80185 9.54848 4.03087 8.71922C4.0368 8.69774 4.04025 8.67571 4.04754 8.64144H3.87775C2.76279 8.64144 1.64785 8.63991 0.532897 8.64283C0.333734 8.64338 0.165743 8.59954 0.0609104 8.43496C-0.0480116 8.26387 0.00118615 8.10725 0.110669 7.94907C1.88199 5.38786 3.65136 2.82553 5.41875 0.262057C5.49495 0.150846 5.60257 0.0603581 5.73033 7.58137e-05L5.97037 0Z" fill="url(#paint0_linear_71_1680)"/>
</g>
<defs>
<linearGradient id="paint0_linear_71_1680" x1="4.49989" y1="0" x2="4.49989" y2="13.9999" gradientUnits="userSpaceOnUse">
<stop stop-color="#233E8B"/>
<stop offset="1" stop-color="#242A6B"/>
</linearGradient>
<clipPath id="clip0_71_1680">
<rect width="9" height="14" fill="white"/>
</clipPath>
</defs>
</svg>
