<svg width="19" height="21" viewBox="0 0 19 21" fill="none" xmlns="http://www.w3.org/2000/svg">
<g clip-path="url(#clip0_198_544)">
<path d="M9.51802 0.824096C9.72745 0.863061 9.93987 0.891261 10.1459 0.942061C12.2461 1.45995 13.5943 2.70326 14.0306 4.67978C14.411 6.4026 13.8882 7.93332 12.4754 9.13635C10.8862 10.4899 9.02359 10.7904 7.0591 10.0585C5.2418 9.38154 4.13642 8.06955 3.89302 6.22711C3.60468 4.0451 4.77946 2.1374 6.92193 1.2153C7.35292 1.03528 7.81078 0.917424 8.27981 0.865788C8.33311 0.85931 8.39315 0.872899 8.43328 0.823853L9.51802 0.824096ZM12.8763 5.62394C12.876 4.66405 12.4673 3.74344 11.7399 3.06396C11.0125 2.38448 10.0257 2.00159 8.9959 1.99924C7.96607 1.99689 6.97728 2.37528 6.24631 3.05144C5.51534 3.72759 5.10187 4.64633 5.09654 5.60621C5.07522 7.63432 6.91101 9.25958 8.98095 9.24667C11.1436 9.23308 12.8693 7.65263 12.8763 5.62385V5.62394Z" fill="url(#paint0_linear_198_544)"/>
<path d="M9.11773 20.7322C7.33769 20.7322 5.55755 20.7432 3.77772 20.7277C2.8615 20.7197 2.03108 20.4524 1.33745 19.8721C0.716675 19.3525 0.3394 18.6982 0.26661 17.9317C0.10943 16.2793 0.308727 14.6596 0.968801 13.1106C1.36358 12.1842 1.95222 11.3862 2.92723 10.8927C3.5396 10.5828 4.19738 10.4495 4.88729 10.4372C5.1251 10.4329 5.33244 10.5315 5.5285 10.6444C5.83575 10.8212 6.13773 11.0061 6.44295 11.1857C7.36612 11.729 8.3659 12.0227 9.46459 11.9455C10.2664 11.889 11.0078 11.6398 11.6945 11.2521C11.938 11.1147 12.1895 10.9837 12.4101 10.8181C12.9681 10.3989 13.5866 10.3881 14.2451 10.5231C15.5061 10.7816 16.3831 11.4859 16.9863 12.5262C17.499 13.4105 17.7475 14.3666 17.9016 15.3507C18.0067 16.0698 18.0492 16.7956 18.0286 17.521C18.0006 19.096 16.8626 20.3591 15.2011 20.6547C14.8733 20.7111 14.5404 20.7382 14.2071 20.7356C12.5106 20.7332 10.814 20.7329 9.11752 20.7345L9.11773 20.7322ZM9.12677 19.569C9.46047 19.569 9.79416 19.569 10.1279 19.569C11.539 19.5681 12.9506 19.586 14.3613 19.5612C15.9305 19.5337 16.7978 18.6817 16.7762 17.2243C16.7676 16.6485 16.7484 16.072 16.6541 15.5007C16.5156 14.6603 16.3228 13.8357 15.8762 13.081C15.4709 12.3962 14.9223 11.8792 14.0742 11.69C13.6943 11.6053 13.3449 11.5894 13.0187 11.8463C12.8239 11.9997 12.5954 12.1176 12.3746 12.2399C10.7368 13.1472 9.01881 13.4007 7.18417 12.818C6.42372 12.5765 5.75894 12.1839 5.10315 11.7716C5.01377 11.7115 4.91243 11.6685 4.80505 11.6453C4.69766 11.622 4.58638 11.619 4.47772 11.6363C4.15428 11.679 3.84088 11.7722 3.55068 11.912C2.83417 12.2689 2.43375 12.8742 2.13804 13.5388C1.57422 14.8057 1.4522 16.1469 1.47985 17.4995C1.49641 18.3067 1.87907 18.9449 2.68206 19.3168C3.12099 19.5201 3.59687 19.5684 4.07975 19.5687C5.76209 19.5696 7.44445 19.5697 9.12682 19.569H9.12677Z" fill="url(#paint1_linear_198_544)"/>
</g>
<defs>
<linearGradient id="paint0_linear_198_544" x1="9.00041" y1="0.823853" x2="9.00041" y2="10.4468" gradientUnits="userSpaceOnUse">
<stop stop-color="#233E8B"/>
<stop offset="1" stop-color="#242A6B"/>
</linearGradient>
<linearGradient id="paint1_linear_198_544" x1="9.12466" y1="10.437" x2="9.12466" y2="20.736" gradientUnits="userSpaceOnUse">
<stop stop-color="#233E8B"/>
<stop offset="1" stop-color="#242A6B"/>
</linearGradient>
<clipPath id="clip0_198_544">
<rect width="17.816" height="19.912" fill="white" transform="translate(0.216003 0.824005)"/>
</clipPath>
</defs>
</svg>
