<svg width="19" height="21" viewBox="0 0 19 21" fill="none" xmlns="http://www.w3.org/2000/svg">
<g id="Layer_1" clip-path="url(#clip0_227_115)">
<path id="Vector" d="M9.51771 0.824096C9.72715 0.863061 9.93956 0.891261 10.1455 0.942061C12.2457 1.45995 13.594 2.70326 14.0303 4.67978C14.4107 6.4026 13.8879 7.93332 12.4751 9.13635C10.8859 10.4899 9.02329 10.7904 7.05879 10.0585C5.2415 9.38154 4.13611 8.06955 3.89271 6.22711C3.60437 4.0451 4.77915 2.1374 6.92162 1.2153C7.35261 1.03528 7.81048 0.917424 8.2795 0.865788C8.3328 0.85931 8.39284 0.872899 8.43297 0.823853L9.51771 0.824096ZM12.876 5.62394C12.8757 4.66405 12.467 3.74344 11.7396 3.06396C11.0122 2.38448 10.0254 2.00159 8.99559 1.99924C7.96577 1.99689 6.97697 2.37528 6.246 3.05144C5.51504 3.72759 5.10156 4.64633 5.09623 5.60621C5.07491 7.63432 6.9107 9.25958 8.98065 9.24667C11.1433 9.23308 12.869 7.65263 12.876 5.62385V5.62394Z" fill="#EEB702"/>
<path id="Vector_2" d="M9.11736 20.7322C7.33733 20.7322 5.55719 20.7432 3.77736 20.7277C2.86113 20.7197 2.03071 20.4524 1.33709 19.8721C0.716309 19.3525 0.339034 18.6982 0.266244 17.9317C0.109064 16.2793 0.308361 14.6596 0.968435 13.1106C1.36322 12.1842 1.95186 11.3862 2.92687 10.8927C3.53923 10.5828 4.19701 10.4495 4.88692 10.4372C5.12473 10.4329 5.33207 10.5315 5.52813 10.6444C5.83539 10.8212 6.13736 11.0061 6.44258 11.1857C7.36575 11.729 8.36553 12.0227 9.46423 11.9455C10.266 11.889 11.0075 11.6398 11.6941 11.2521C11.9376 11.1147 12.1892 10.9837 12.4097 10.8181C12.9678 10.3989 13.5862 10.3881 14.2448 10.5231C15.5057 10.7816 16.3827 11.4859 16.9859 12.5262C17.4986 13.4105 17.7471 14.3666 17.9012 15.3507C18.0063 16.0698 18.0488 16.7956 18.0282 17.521C18.0003 19.096 16.8622 20.3591 15.2007 20.6547C14.8729 20.7111 14.5401 20.7382 14.2067 20.7356C12.5102 20.7332 10.8137 20.7329 9.11716 20.7345L9.11736 20.7322ZM9.1264 19.569C9.4601 19.569 9.79379 19.569 10.1275 19.569C11.5387 19.5681 12.9503 19.586 14.361 19.5612C15.9301 19.5337 16.7974 18.6817 16.7758 17.2243C16.7672 16.6485 16.748 16.072 16.6538 15.5007C16.5152 14.6603 16.3224 13.8357 15.8758 13.081C15.4705 12.3962 14.922 11.8792 14.0738 11.69C13.6939 11.6053 13.3445 11.5894 13.0183 11.8463C12.8235 11.9997 12.595 12.1176 12.3743 12.2399C10.7364 13.1472 9.01845 13.4007 7.1838 12.818C6.42335 12.5765 5.75857 12.1839 5.10278 11.7716C5.01341 11.7115 4.91207 11.6685 4.80468 11.6453C4.69729 11.622 4.58602 11.619 4.47735 11.6363C4.15392 11.679 3.84052 11.7722 3.55031 11.912C2.8338 12.2689 2.43338 12.8742 2.13767 13.5388C1.57385 14.8057 1.45184 16.1469 1.47948 17.4995C1.49605 18.3067 1.8787 18.9449 2.68169 19.3168C3.12063 19.5201 3.59651 19.5684 4.07939 19.5687C5.76173 19.5696 7.44408 19.5697 9.12646 19.569H9.1264Z" fill="#EEB702"/>
</g>
<defs>
<clipPath id="clip0_227_115">
<rect width="17.816" height="19.912" fill="white" transform="translate(0.21582 0.824005)"/>
</clipPath>
</defs>
</svg>
