<svg width="28" height="28" viewBox="0 0 28 28" fill="none" xmlns="http://www.w3.org/2000/svg">
<g id="Layer_1" clip-path="url(#clip0_36_1065)">
<g id="Group 36757">
<path id="Vector" d="M28 2.5702V13.8358C27.9256 14.0013 27.8244 14.1535 27.7007 14.2862C23.4275 18.5562 19.1556 22.8273 14.8848 27.0995C14.4723 27.5155 13.9499 27.8056 13.3787 27.9357C13.3109 27.9517 13.229 27.9258 13.1797 27.9998H12.3047C11.3159 27.8255 10.6399 27.18 9.96554 26.5006C7.14771 23.6624 4.31935 20.8346 1.48045 18.0173C0.806477 17.3486 0.171719 16.6749 0 15.6952V14.8202C0.184133 13.835 0.838032 13.1661 1.51484 12.4923C5.49008 8.53481 9.45797 4.56996 13.4185 0.597789C13.6343 0.381992 13.8385 0.152414 14.1093 0H25.4297C25.4656 0.051625 25.5233 0.0454454 25.5754 0.0568204C26.5692 0.273383 27.2806 0.845962 27.7277 1.75684C27.8553 2.01677 27.8961 2.3036 28 2.5702ZM19.9609 1.63953C18.3023 1.63953 16.6435 1.6427 14.9849 1.63527C14.8959 1.63094 14.8071 1.64623 14.7247 1.68006C14.6423 1.7139 14.5683 1.76544 14.508 1.83105C10.4069 5.9399 6.30295 10.046 2.19625 14.1493C1.45343 14.8922 1.45113 15.6434 2.18827 16.3805C5.32656 19.519 8.46495 22.6574 11.6034 25.7957C12.3561 26.5483 13.1044 26.5503 13.8563 25.7986C17.9615 21.694 22.0674 17.5899 26.1739 13.4865C26.2366 13.4296 26.2861 13.3597 26.319 13.2816C26.3519 13.2036 26.3674 13.1193 26.3643 13.0347C26.3588 9.74466 26.3574 6.45464 26.36 3.1646C26.36 2.20511 25.7912 1.64035 24.8276 1.63975C23.2056 1.63884 21.5833 1.63877 19.9609 1.63953Z" fill="url(#paint0_linear_36_1065)"/>
<path id="Vector_2" d="M20.7714 9.80914C20.4314 9.80962 20.0948 9.74283 19.7808 9.61263C19.4667 9.48242 19.1816 9.29137 18.9417 9.05047C18.7019 8.80958 18.512 8.52361 18.3832 8.20903C18.2543 7.89445 18.189 7.55749 18.191 7.21755C18.1934 6.5356 18.4662 5.88244 18.9495 5.40131C19.4328 4.92017 20.0871 4.65033 20.7691 4.65096C21.4509 4.64988 22.1053 4.91913 22.589 5.3997C23.0726 5.88027 23.346 6.53297 23.3492 7.21476C23.3516 7.55473 23.2867 7.8918 23.1582 8.20655C23.0296 8.5213 22.8401 8.80751 22.6005 9.04868C22.3609 9.28984 22.0759 9.4812 21.7619 9.61171C21.448 9.74223 21.1114 9.80933 20.7714 9.80914ZM20.7764 8.15539C20.8992 8.15483 21.0206 8.13009 21.1337 8.08257C21.2469 8.03506 21.3496 7.9657 21.4359 7.87848C21.5223 7.79125 21.5906 7.68786 21.6369 7.57422C21.6833 7.46058 21.7068 7.33892 21.7061 7.21619C21.6981 6.97304 21.5975 6.74215 21.4249 6.5707C21.2523 6.39925 21.0207 6.30019 20.7775 6.29377C20.6548 6.29382 20.5334 6.31806 20.4201 6.36511C20.3068 6.41215 20.2039 6.48108 20.1173 6.56794C20.0307 6.6548 19.962 6.75789 19.9153 6.87131C19.8685 6.98473 19.8446 7.10626 19.8449 7.22893C19.8426 7.35165 19.8652 7.47357 19.9113 7.58734C19.9573 7.70111 20.0259 7.80438 20.113 7.89094C20.2 7.9775 20.3036 8.04555 20.4177 8.091C20.5317 8.13644 20.6537 8.15835 20.7764 8.15539Z" fill="url(#paint1_linear_36_1065)"/>
</g>
</g>
<defs>
<linearGradient id="paint0_linear_36_1065" x1="14" y1="0" x2="14" y2="27.9998" gradientUnits="userSpaceOnUse">
<stop stop-color="#233E8B"/>
<stop offset="1" stop-color="#242A6B"/>
</linearGradient>
<linearGradient id="paint1_linear_36_1065" x1="20.7701" y1="4.65096" x2="20.7701" y2="9.80914" gradientUnits="userSpaceOnUse">
<stop stop-color="#233E8B"/>
<stop offset="1" stop-color="#242A6B"/>
</linearGradient>
<clipPath id="clip0_36_1065">
<rect width="28" height="28" fill="white"/>
</clipPath>
</defs>
</svg>
