<svg width="31" height="31" viewBox="0 0 31 31" fill="none" xmlns="http://www.w3.org/2000/svg">
<g id="Communications/Communication 25 - 24px">
<g clip-path="url(#clip0_234_812)">
<path id="Icon" fill-rule="evenodd" clip-rule="evenodd" d="M2.58361 14.2303C2.57476 13.7102 2.87876 13.2356 3.35488 13.0261L26.1885 2.97929C26.6761 2.76475 27.2454 2.87155 27.6221 3.24823C27.9988 3.6249 28.1056 4.19419 27.891 4.68178L17.8442 27.5154C17.6347 27.9916 17.1601 28.2956 16.64 28.2867C16.1199 28.2779 15.6558 27.9579 15.4627 27.4749L12.0149 18.8555L3.39537 15.4077C2.91241 15.2145 2.59245 14.7504 2.58361 14.2303ZM14.5242 18.1729L16.7187 23.6591L22.7535 9.94347L14.5242 18.1729ZM20.9268 8.11678L12.6975 16.3462L7.2112 14.1517L20.9268 8.11678Z" fill="#EEB702"/>
</g>
</g>
<defs>
<clipPath id="clip0_234_812">
<rect width="31" height="31" fill="white"/>
</clipPath>
</defs>
</svg>
