<svg width="25" height="25" viewBox="0 0 25 25" fill="none" xmlns="http://www.w3.org/2000/svg">
<g id="Communications/Communication 25 - 24px" clip-path="url(#clip0_36_767)">
<path id="Icon" fill-rule="evenodd" clip-rule="evenodd" d="M2.08352 11.476C2.07639 11.0566 2.32155 10.6738 2.70552 10.5049L21.1198 2.40262C21.513 2.2296 21.9721 2.31573 22.2758 2.6195C22.5796 2.92327 22.6657 3.38237 22.4927 3.77559L14.3905 22.1898C14.2215 22.5738 13.8387 22.819 13.4193 22.8118C12.9999 22.8047 12.6256 22.5467 12.4698 22.1572L9.68937 15.206L2.73817 12.4255C2.34868 12.2697 2.09065 11.8955 2.08352 11.476ZM11.713 14.6555L13.4828 19.0799L18.3496 8.01889L11.713 14.6555ZM16.8765 6.54575L10.2399 13.1824L5.81546 11.4126L16.8765 6.54575Z" fill="#1D1D28"/>
</g>
<defs>
<clipPath id="clip0_36_767">
<rect width="25" height="25" fill="white"/>
</clipPath>
</defs>
</svg>
