<svg width="25" height="25" viewBox="0 0 25 25" fill="none" xmlns="http://www.w3.org/2000/svg">
<g id="Interface/Interface 100 - 24px">
<path id="Icon" fill-rule="evenodd" clip-rule="evenodd" d="M8.33333 5.22684C8.33333 4.64814 8.7997 4.179 9.375 4.179H15.625C16.2003 4.179 16.6667 4.64813 16.6667 5.22684V20.2919C16.6667 20.7455 16.1326 20.9848 15.7974 20.6814L13.1968 18.327C12.8007 17.9683 12.1993 17.9683 11.8032 18.327L9.20258 20.6814C8.86742 20.9848 8.33333 20.7455 8.33333 20.2919V5.22684ZM9.375 2.08333H15.625C17.3509 2.08333 18.75 3.49073 18.75 5.22684V20.2919C18.75 22.5599 16.0796 23.7562 14.4037 22.2391L12.5 20.5155L10.5963 22.2391C8.92041 23.7563 6.25 22.5599 6.25 20.2919V5.22684C6.25 3.49073 7.64911 2.08333 9.375 2.08333Z" fill="url(#paint0_linear_36_773)"/>
</g>
<defs>
<linearGradient id="paint0_linear_36_773" x1="12.5" y1="2.08333" x2="12.5" y2="22.9167" gradientUnits="userSpaceOnUse">
<stop stop-color="#233E8B"/>
<stop offset="1" stop-color="#242A6B"/>
</linearGradient>
</defs>
</svg>
