<svg width="22" height="20" viewBox="0 0 22 20" fill="none" xmlns="http://www.w3.org/2000/svg">
<path d="M21.6197 13.4534C21.4801 13.9583 21.4134 14.4791 21.2379 14.9781C20.0366 18.3957 16.3126 20.2805 12.8539 19.2163C12.7031 19.1765 12.5661 19.0964 12.4574 18.9846C12.3488 18.8728 12.2726 18.7335 12.237 18.5817C11.9594 17.6522 11.8837 16.674 12.0149 15.7127C12.1462 14.7515 12.4814 13.8294 12.9982 13.0084C13.5149 12.1873 14.2011 11.4862 15.0109 10.9521C15.8208 10.4179 16.7354 10.0631 17.6935 9.91136C18.7309 9.74922 19.7918 9.83261 20.7912 10.1548C20.9153 10.1909 21.028 10.2583 21.1185 10.3506C21.209 10.4429 21.2742 10.5569 21.3078 10.6817C21.4563 11.1217 21.4973 11.5839 21.6197 12.0284V13.4534ZM14.2082 18.1766C14.6784 18.1766 15.0592 18.2124 15.4314 18.171C18.6533 17.813 20.8384 14.7913 20.2022 11.5986C20.1944 11.5095 20.1556 11.4261 20.0925 11.3628C20.0293 11.2995 19.946 11.2605 19.857 11.2525C16.6268 10.6122 13.6128 12.8403 13.2762 16.1292C13.2309 16.4825 13.251 16.8411 13.3356 17.1871C13.644 16.9251 13.9046 16.6393 14.1748 16.3627C14.5137 16.0154 14.8557 15.6705 15.2052 15.3339C15.5292 15.0218 15.9046 15.0147 16.1788 15.2993C16.4441 15.5749 16.4275 15.9352 16.1326 16.2501C16.0442 16.3445 15.9503 16.4338 15.8588 16.5254L14.2082 18.1766Z" fill="url(#paint0_linear_198_561)"/>
<path d="M11.0641 0.824005C12.1247 1.38493 12.9898 2.15084 13.5861 3.20555C15.1619 5.99324 14.1164 9.58178 11.291 11.09C11.1627 11.1687 11.0149 11.2098 10.8644 11.2086C10.7139 11.2074 10.5668 11.1639 10.4397 11.0832C8.49253 9.96586 7.44051 8.29042 7.43013 6.0461C7.41975 3.81459 8.45187 2.13526 10.3725 1.00268L10.6753 0.824005H11.0641ZM11.5157 9.33095C13.6872 7.44561 13.4139 3.83942 11.0541 2.33262C10.8725 2.21651 10.7657 2.28071 10.6262 2.37727C10.1248 2.72593 9.70055 3.17427 9.38013 3.69429C9.05972 4.2143 8.84997 4.79482 8.764 5.39956C8.67804 6.0043 8.71769 6.62027 8.8805 7.20899C9.04331 7.79772 9.32577 8.34653 9.71022 8.82116C9.85584 9.01201 10.0277 9.18133 10.2207 9.32411C10.2207 8.64015 10.2187 8.01762 10.2213 7.39465C10.2234 6.91384 10.4609 6.64277 10.8707 6.64467C11.2787 6.64649 11.5137 6.9205 11.5152 7.40278C11.5171 8.02514 11.5157 8.64724 11.5157 9.33095Z" fill="url(#paint1_linear_198_561)"/>
<path d="M0.114531 12.7163C0.0920368 12.0406 0.218342 11.3872 0.400023 10.7409C0.434701 10.5945 0.509291 10.4605 0.615507 10.3538C0.721722 10.2471 0.855415 10.172 1.00174 10.1367C2.1805 9.7734 3.43602 9.73849 4.63314 10.0358C5.83026 10.3331 6.92362 10.9513 7.79551 11.8239C8.66739 12.6965 9.28477 13.7904 9.58116 14.9879C9.87756 16.1853 9.84175 17.4409 9.47758 18.6196C9.44201 18.7605 9.36956 18.8894 9.26769 18.9931C9.16583 19.0968 9.0382 19.1714 8.89793 19.2095C4.96151 20.4627 0.735445 17.7832 0.175435 13.6829C0.137964 13.362 0.117634 13.0393 0.114531 12.7163ZM8.38767 17.2077C8.51744 16.7935 8.49945 16.2517 8.35064 15.4956C7.77636 12.5783 4.77819 10.6178 1.87069 11.255C1.6717 11.2982 1.57291 11.3812 1.52636 11.6017C1.25423 12.9193 1.47492 14.291 2.1466 15.4567C2.81828 16.6225 3.89427 17.5013 5.17061 17.9265C5.91798 18.171 6.70949 18.2503 7.49051 18.1592C7.38245 18.0445 7.31177 17.9659 7.23728 17.8909C6.68116 17.333 6.12482 16.7753 5.56824 16.2178C5.47516 16.134 5.40964 16.0239 5.3803 15.9021C5.35096 15.7803 5.35917 15.6525 5.40386 15.5354C5.44117 15.4215 5.51002 15.3206 5.60243 15.2442C5.69483 15.1679 5.80701 15.1194 5.92589 15.1043C6.18544 15.0603 6.38095 15.1886 6.55528 15.3646C7.15491 15.969 7.75559 16.5718 8.38767 17.2077Z" fill="url(#paint2_linear_198_561)"/>
<defs>
<linearGradient id="paint0_linear_198_561" x1="16.786" y1="9.83081" x2="16.786" y2="19.5133" gradientUnits="userSpaceOnUse">
<stop stop-color="#233E8B"/>
<stop offset="1" stop-color="#242A6B"/>
</linearGradient>
<linearGradient id="paint1_linear_198_561" x1="10.8756" y1="0.824005" x2="10.8756" y2="11.2086" gradientUnits="userSpaceOnUse">
<stop stop-color="#233E8B"/>
<stop offset="1" stop-color="#242A6B"/>
</linearGradient>
<linearGradient id="paint2_linear_198_561" x1="4.94589" y1="9.83591" x2="4.94589" y2="19.52" gradientUnits="userSpaceOnUse">
<stop stop-color="#233E8B"/>
<stop offset="1" stop-color="#242A6B"/>
</linearGradient>
</defs>
</svg>
