<svg width="18" height="18" viewBox="0 0 18 18" fill="none" xmlns="http://www.w3.org/2000/svg">
<g id="wi:time-2">
<path id="Vector" d="M2.24402 8.68201C2.24402 7.45801 2.55002 6.32401 3.15602 5.28601C3.76202 4.24801 4.58402 3.42601 5.62202 2.82001C6.66002 2.21401 7.78802 1.91401 9.00602 1.91401C9.91802 1.91401 10.794 2.09401 11.628 2.44801C12.462 2.80201 13.176 3.28801 13.782 3.88801C14.388 4.48801 14.868 5.20801 15.222 6.04801C15.576 6.88801 15.756 7.75801 15.756 8.68201C15.756 9.59401 15.576 10.47 15.222 11.304C14.868 12.138 14.382 12.858 13.782 13.458C13.182 14.058 12.462 14.538 11.628 14.892C10.794 15.246 9.92402 15.426 9.00602 15.426C8.08802 15.426 7.20602 15.246 6.37202 14.892C5.53802 14.538 4.81802 14.052 4.21202 13.452C3.60602 12.852 3.13202 12.132 2.77202 11.304C2.41202 10.476 2.24402 9.60001 2.24402 8.68201ZM3.73202 8.68201C3.73202 10.104 4.24802 11.34 5.28602 12.39C6.32402 13.428 7.56002 13.944 9.00602 13.944C9.95402 13.944 10.836 13.71 11.64 13.236C12.444 12.762 13.092 12.126 13.566 11.316C14.04 10.506 14.28 9.63001 14.28 8.68201C14.28 7.73401 14.04 6.85201 13.566 6.04201C13.092 5.23201 12.45 4.59001 11.64 4.11601C10.83 3.64201 9.95402 3.40801 9.00602 3.40801C8.05802 3.40801 7.17602 3.64201 6.37202 4.11601C5.56802 4.59001 4.92002 5.23201 4.44002 6.04201C3.96002 6.85201 3.73202 7.73401 3.73202 8.68201ZM8.48402 8.68201V4.68601C8.48402 4.54801 8.53202 4.42801 8.62802 4.33201C8.72402 4.23601 8.84402 4.18801 8.98202 4.18801C9.12002 4.18801 9.24002 4.23601 9.33602 4.33201C9.43202 4.42801 9.48002 4.54801 9.48002 4.68601V7.81201L11.148 6.87001C11.268 6.79801 11.394 6.78001 11.526 6.81601C11.658 6.85201 11.76 6.93601 11.826 7.06201C11.898 7.18201 11.91 7.30801 11.874 7.44001C11.838 7.57201 11.76 7.68001 11.64 7.74601L9.31202 9.04801C9.22112 9.13352 9.10081 9.18078 8.97602 9.18001C8.9106 9.18109 8.84564 9.1689 8.78507 9.14418C8.72449 9.11946 8.66955 9.08272 8.62357 9.03617C8.57759 8.98963 8.54151 8.93425 8.51753 8.87338C8.49354 8.81251 8.48214 8.74741 8.48402 8.68201Z" fill="#EEB702"/>
</g>
</svg>
