<svg width="18" height="19" viewBox="0 0 18 19" fill="none" xmlns="http://www.w3.org/2000/svg">
<g id="wi:time-2">
<path id="Vector" d="M2.2439 9.53935C2.2439 8.324 2.5499 7.19802 3.1559 6.16735C3.7619 5.13669 4.5839 4.3205 5.6219 3.71878C6.6599 3.11706 7.7879 2.81918 9.0059 2.81918C9.9179 2.81918 10.7939 2.99791 11.6279 3.34941C12.4619 3.70091 13.1759 4.18347 13.7819 4.77923C14.3879 5.37499 14.8679 6.0899 15.2219 6.92397C15.5759 7.75803 15.7559 8.62188 15.7559 9.53935C15.7559 10.4449 15.5759 11.3147 15.2219 12.1428C14.8679 12.9709 14.3819 13.6858 13.7819 14.2816C13.1819 14.8774 12.4619 15.354 11.6279 15.7055C10.7939 16.057 9.9239 16.2357 9.0059 16.2357C8.0879 16.2357 7.2059 16.057 6.3719 15.7055C5.5379 15.354 4.8179 14.8714 4.2119 14.2756C3.6059 13.6799 3.1319 12.965 2.7719 12.1428C2.4119 11.3207 2.2439 10.4509 2.2439 9.53935ZM3.7319 9.53935C3.7319 10.9513 4.2479 12.1786 5.2859 13.2211C6.3239 14.2518 7.5599 14.7642 9.0059 14.7642C9.9539 14.7642 10.8359 14.5318 11.6399 14.0612C12.4439 13.5905 13.0919 12.959 13.5659 12.1547C14.0399 11.3505 14.2799 10.4807 14.2799 9.53935C14.2799 8.59805 14.0399 7.72229 13.5659 6.91801C13.0919 6.11373 12.4499 5.47627 11.6399 5.00562C10.8299 4.53497 9.9539 4.30262 9.0059 4.30262C8.0579 4.30262 7.1759 4.53497 6.3719 5.00562C5.5679 5.47627 4.9199 6.11373 4.4399 6.91801C3.9599 7.72229 3.7319 8.59805 3.7319 9.53935ZM8.4839 9.53935V5.57159C8.4839 5.43457 8.5319 5.31542 8.6279 5.22009C8.7239 5.12477 8.8439 5.07711 8.9819 5.07711C9.1199 5.07711 9.2399 5.12477 9.3359 5.22009C9.4319 5.31542 9.4799 5.43457 9.4799 5.57159V8.6755L11.1479 7.74016C11.2679 7.66867 11.3939 7.65079 11.5259 7.68654C11.6579 7.72229 11.7599 7.80569 11.8259 7.9308C11.8979 8.04995 11.9099 8.17506 11.8739 8.30613C11.8379 8.4372 11.7599 8.54443 11.6399 8.60997L9.3119 9.90277C9.221 9.98767 9.10069 10.0346 8.9759 10.0338C8.91048 10.0349 8.84552 10.0228 8.78494 9.99826C8.72437 9.97371 8.66943 9.93723 8.62345 9.89102C8.57747 9.8448 8.54139 9.78981 8.51741 9.72937C8.49342 9.66893 8.48202 9.60429 8.4839 9.53935Z" fill="url(#paint0_linear_28_262)"/>
</g>
<defs>
<linearGradient id="paint0_linear_28_262" x1="8.9999" y1="2.81918" x2="8.9999" y2="16.2357" gradientUnits="userSpaceOnUse">
<stop stop-color="#EF4165"/>
<stop offset="1" stop-color="#A51656" stop-opacity="0.75"/>
</linearGradient>
</defs>
</svg>
